<?xml version="1.0" encoding="utf-8"?>
<!-- Generator: Adobe Illustrator 23.1.0, SVG Export Plug-In . SVG Version: 6.00 Build 0)  -->
<svg version="1.1" id="Слой_1" xmlns="http://www.w3.org/2000/svg" xmlns:xlink="http://www.w3.org/1999/xlink" x="0px" y="0px"
	 viewBox="0 0 150 100" style="enable-background:new 0 0 150 100;" xml:space="preserve">
<path d="M67.5,12.2C74.9,8,82.2,3.8,89.6-0.5c12.7,22.1,25.5,44.1,38.3,66.2c-0.2,0-0.4,0-0.5,0c-9.6,0-19.1,0-28.7,0
	c-0.3,0-0.5-0.1-0.6-0.4C88,47.8,77.9,30.2,67.8,12.7C67.7,12.5,67.6,12.4,67.5,12.2z"/>
<path d="M66,65.7c0,2.1,0,4.2,0,6.3c-2.1,0-4.2,0-6.3,0c0-0.7,0-1.3,0-1.9c0-1.3,0-2.6,0-3.9c0-0.3-0.1-0.6-0.2-0.8
	c-5.6-9.7-11.2-19.4-16.9-29.2c-0.1-0.2-0.2-0.4-0.4-0.7C49.6,31.3,57,27,64.3,22.8c8.3,14.3,16.5,28.6,24.8,43
	C81.4,65.7,73.7,65.7,66,65.7z"/>
<path d="M56.6,99.8c-2.1,0-4.2,0-6.3,0c0-0.5,0-1.1,0-1.7c-3.6,2.3-7.4,2.9-11.4,1.7c-2.9-0.9-5.3-2.6-7-5.1
	c-3.2-4.6-3.3-10.9,0.5-15.7c1-1.3,2.3-2.4,3.8-3.2c1.4-0.8,3-1.4,4.6-1.6c1.7-0.2,3.3-0.2,4.9,0.2c1.6,0.3,3.1,1,4.5,1.9
	c0-3.6,0-7.1,0-10.6c2.1,0,4.2,0,6.3,0C56.6,77.1,56.6,88.5,56.6,99.8z M42.9,94.5c4,0,7.3-3.3,7.4-7.2c0-3.9-3.4-7.4-7.3-7.4
	c-4,0-7.4,3.3-7.4,7.3C35.5,91.1,38.9,94.5,42.9,94.5z"/>
<path d="M89.3,76.4c0-3.6,0-7.1,0-10.6c2.1,0,4.1,0,6.2,0c0,11.3,0,22.7,0,34.1c-2,0-4.1,0-6.2,0c0-0.5,0-1,0-1.6
	c-3.3,2.1-6.9,2.8-10.6,1.9c-3.8-0.9-6.6-3.1-8.5-6.5c-2.7-4.9-1.9-10.9,1.7-15C75.8,74.1,83.4,72.4,89.3,76.4z M89.3,87.3
	c0-4-3.3-7.3-7.4-7.4c-3.9,0-7.3,3.4-7.3,7.3c0,3.9,3.3,7.2,7.2,7.2C85.9,94.5,89.3,91.2,89.3,87.3z"/>
<path d="M118.3,76.4c0-0.7,0-1.3,0-2c2.1,0,4.2,0,6.3,0c0,8.5,0,16.9,0,25.4c-2.1,0-4.1,0-6.3,0c0-0.5,0-1,0-1.6
	c-3.6,2.3-7.3,2.9-11.3,1.7c-2.9-0.9-5.3-2.6-7-5.1c-3.3-4.7-3.2-11.1,0.6-15.8c2.2-2.6,4.9-4.2,8.3-4.6
	C112.3,73.8,115.4,74.4,118.3,76.4z M118.3,87.2c0-4-3.3-7.3-7.3-7.3c-3.9,0-7.3,3.4-7.3,7.3c0,3.9,3.4,7.2,7.4,7.2
	C115.1,94.4,118.3,91.1,118.3,87.2z"/>
<path d="M21.1,76.4c0-0.7,0-1.4,0-2c2.1,0,4.1,0,6.2,0c0,8.5,0,16.9,0,25.4c-2.1,0-4.1,0-6.2,0c0-0.5,0-1,0-1.6
	c-4,2.4-8.1,3-12.5,1.3c-2.6-1-4.6-2.7-6.1-5c-3.2-5-2.9-11.1,0.8-15.6c1.1-1.3,2.3-2.3,3.8-3.1c1.4-0.8,3-1.3,4.6-1.5
	c1.6-0.2,3.3-0.1,4.9,0.2C18.2,74.8,19.7,75.4,21.1,76.4z M21.1,87.3c0-4-3.4-7.3-7.4-7.3c-3.9,0-7.3,3.4-7.3,7.3
	c0,3.9,3.3,7.2,7.3,7.3C17.7,94.5,21.1,91.2,21.1,87.3z"/>
<path d="M16.3,58.2C23.7,54,31,49.7,38.4,45.4c3.9,6.7,7.8,13.5,11.7,20.2c-0.1,0-0.2,0-0.3,0c-9.6,0-19.2,0-28.8,0
	c-0.2,0-0.4-0.1-0.5-0.2C19.1,63.1,17.7,60.7,16.3,58.2z"/>
<path d="M127.1,91.7c2.2,0,4.4,0,6.6,0c0,0.3,0,0.5,0.1,0.8c0.2,1,0.8,1.8,1.7,2.3c1.8,1,3.7,1.2,5.7,0.5c0.7-0.2,1.2-0.7,1.6-1.3
	c0.7-1.1,0.4-2.3-0.8-2.9c-1-0.5-2-0.6-3.1-0.8c-2.1-0.4-4.1-0.8-6.1-1.3c-2-0.5-3.5-1.8-4.5-3.7c-1.2-2.4-0.7-5.8,1-7.8
	c1.6-1.8,3.6-2.7,5.9-3.1c2.7-0.5,5.4-0.4,8.1,0.6c2.3,0.9,4,2.4,5,4.6c0.4,0.9,0.6,1.8,0.7,2.8c-2.1,0-4.2,0-6.4,0
	c0-0.3-0.1-0.6-0.1-0.8c-0.2-1.3-1-2.1-2.3-2.4c-1.5-0.3-3.1-0.3-4.6,0.2c-0.4,0.1-0.7,0.4-1,0.6c-0.8,0.9-0.6,2.1,0.5,2.8
	c0.9,0.5,1.9,0.7,3,0.9c2,0.4,4.1,0.7,6.1,1.2c1.7,0.4,3.2,1.3,4.3,2.6c1.4,1.6,1.7,3.5,1.4,5.6c-0.5,3.1-2.3,5.1-5.1,6.2
	c-2.7,1.1-5.5,1.2-8.3,0.9c-1.9-0.2-3.6-0.7-5.2-1.7c-2.4-1.5-3.8-3.6-4.2-6.5c0-0.1,0-0.2,0-0.3C127.1,91.9,127.1,91.8,127.1,91.7z
	"/>
<path d="M66,99.8c-2.1,0-4.2,0-6.3,0c0-8.5,0-16.9,0-25.4c2.1,0,4.2,0,6.3,0C66,82.9,66,91.3,66,99.8z"/>
</svg>
