<?xml version="1.0" encoding="utf-8"?>
<!-- Generator: Adobe Illustrator 23.1.0, SVG Export Plug-In . SVG Version: 6.00 Build 0)  -->
<svg version="1.1" id="Слой_1" xmlns="http://www.w3.org/2000/svg" xmlns:xlink="http://www.w3.org/1999/xlink" x="0px" y="0px"
	 viewBox="0 0 150 100" style="enable-background:new 0 0 150 100;" xml:space="preserve">
<style type="text/css">
	.st0{fill:#010166;}
</style>
<path class="st0" d="M36.4,45.6c1.9-2.2,3.5-4.7,4.7-7.3c0.7-1.6,1.2-3.2,1.3-5c0.2-2.3-1.2-4.1-3-4.9c-1.8-0.9-3.7-0.9-5.7-0.7
	c-4.3,0.5-8.2,2.1-11.9,4.1c-1.7,0.9-3.4,1.9-5,3c-0.2,0.1-0.4,0.3-0.5-0.1c-0.1-0.2-0.4-0.4,0-0.6c5.1-4.1,10.6-7.3,17-9
	c2.6-0.7,5.2-1.1,7.8-0.9c2.4,0.2,4.7,0.9,6.5,2.6c1.5,1.4,2.3,3.2,2.6,5.3c0.4,2.7-0.2,5.3-1,7.8c-1.5,4.6-3.9,8.8-6.7,12.8
	c-3.9,5.6-8.4,10.5-13.7,14.8c-3.5,2.9-7.3,5.3-11.7,6.9c-2.9,1.1-6,1.7-9.1,1.2c-2.9-0.4-5.3-1.6-6.8-4.2c-1-1.7-1.3-3.6-1.2-5.6
	c0.2-3.3,1.3-6.2,3-8.9c1.9-3.2,4.5-5.9,7.3-8.4c4.3-3.6,9-6.5,14.3-8.3c2.2-0.7,4.4-1.2,6.8-1c1.4,0.1,2.7,0.5,3.7,1.4
	c1.3,1.2,1.6,2.7,1.3,4.4c0,0.1,0,0.2-0.1,0.3C36.4,45.4,36.4,45.5,36.4,45.6z M16.6,60.8c1.6-0.1,3.5-0.8,5.2-1.8
	c3.7-2,6.8-4.7,9.7-7.8c1.2-1.4,2.2-2.9,2.6-4.7c0.5-2.3-0.6-3.8-2.9-4c-1.7-0.2-3.4,0.2-5,0.8c-3,1.1-5.6,2.8-8,4.9
	c-2.1,1.8-4,3.9-5.3,6.5c-0.5,1.1-0.9,2.3-0.5,3.5C12.8,59.9,14.2,60.8,16.6,60.8z"/>
<path class="st0" d="M54.9,42.4c0.6-2,1.1-4,1.6-6c0.1-0.2,0.1-0.3,0.4-0.3c3.4,0,6.8-0.1,10.2,0.1c2.9,0.2,5.9,2.1,6.7,5.4
	c0.3,1.5,0.2,2.9-0.2,4.4c-1.9,6.9-3.7,13.8-5.6,20.7c-0.1,0.3-0.2,0.4-0.5,0.4c-4,0-7.9,0-11.9,0c-2.1,0-4-0.4-5.8-1.4
	c-2.2-1.3-3.3-3.3-3.5-5.8c-0.2-3.2,1.1-5.8,3.3-7.9c3.1-2.9,6.7-4.5,11-4.6c1.7,0,3.5,0,5.2,0c0.3,0,0.4-0.1,0.5-0.4
	c0.2-0.8,0.5-1.6,0.5-2.4c0-1.1-0.6-1.8-1.7-2c-1.2-0.1-2.3-0.1-3.5-0.1C59.4,42.4,57.2,42.4,54.9,42.4z M64.6,53.5
	c-2,0-3.9-0.1-5.9,0c-1.6,0.1-2.9,0.8-3.9,2c-0.6,0.7-1,1.6-1,2.6c0,1.5,1,2.5,2.5,2.6c2,0.1,4,0,6,0c0.3,0,0.3-0.2,0.4-0.4
	c0.4-1.4,0.7-2.7,1.1-4.1C64.1,55.4,64.4,54.5,64.6,53.5z"/>
<path class="st0" d="M131.6,67.1c-2.2,0-4,0-5.7,0c-0.3,0-0.5,0-0.3-0.4c0.5-1.8,1-3.7,1.5-5.5c0.1-0.3,0.2-0.4,0.5-0.4
	c3.2,0,6.3,0,9.5,0c0.5,0,1-0.1,1.5-0.2c1.2-0.3,1.7-1.2,1.9-2.3c0.1-0.6-0.2-1.1-0.6-1.5c-0.6-0.7-1.4-1.1-2.2-1.6
	c-1.5-0.9-3.1-1.7-4.6-2.7c-1.4-1-2.6-2.2-3.1-3.9c-0.6-1.8-0.3-3.5,0.3-5.2c1.4-3.9,4.4-6,8.3-6.9c0.9-0.2,1.8-0.2,2.7-0.2
	c2.8,0,5.7,0,8.5,0c0.4,0,0.4,0.1,0.3,0.5c-0.5,1.8-1,3.6-1.5,5.5c-0.1,0.3-0.2,0.4-0.5,0.4c-2.8,0-5.6,0-8.4,0
	c-0.9,0-1.7,0.2-2.4,0.8c-1,0.9-1,1.9,0,2.8c0.7,0.6,1.4,1.1,2.2,1.5c1.6,0.9,3.3,1.7,4.8,2.9c2.7,2.1,3.6,4.8,2.7,8.1
	c-0.5,1.9-1.3,3.7-2.7,5.2c-1.7,1.8-3.8,2.8-6.2,3.1C135.7,67.2,133.4,67,131.6,67.1z"/>
<path class="st0" d="M71.4,67.1c0.4-1.6,0.8-3.2,1.3-4.7c0.1-0.5,0.1-1.2,0.5-1.5c0.4-0.3,1.1-0.1,1.6-0.1c2.7,0,5.4,0,8.1,0
	c0.4,0,0.8-0.1,1.2-0.1c1.3-0.3,2-1,2.3-2.3c0.1-0.7-0.1-1.2-0.6-1.7c-0.6-0.7-1.3-1.1-2.1-1.5c-1.6-0.9-3.2-1.7-4.7-2.8
	c-1.1-0.8-2.1-1.8-2.8-3.1c-0.8-1.6-0.8-3.3-0.3-5.1c1.2-4.4,4.2-6.8,8.6-7.8c0.9-0.2,1.8-0.2,2.7-0.2c2.8,0,5.6,0,8.5,0
	c0.4,0,0.5,0,0.3,0.4c-0.5,1.8-1,3.6-1.5,5.5c-0.1,0.3-0.2,0.4-0.5,0.4c-2.8,0-5.6,0-8.4,0c-1.1,0-2.1,0.3-2.7,1.3
	c-0.5,0.9-0.5,1.5,0.3,2.2c0.6,0.6,1.3,1,2,1.4c1.6,0.9,3.2,1.7,4.7,2.8c1.2,0.9,2.3,1.9,2.9,3.2c0.7,1.5,0.8,3.1,0.4,4.7
	c-0.4,1.9-1.1,3.6-2.3,5.2c-1.7,2.2-4,3.3-6.7,3.7c-1,0.2-2,0.2-3.1,0.2C77.8,67.1,74.6,67.1,71.4,67.1z"/>
<path class="st0" d="M130,36.1c-0.6,2.1-1.1,4.1-1.6,6.1c-0.1,0.3-0.2,0.2-0.4,0.2c-1.1,0-2.1,0-3.2,0c-3.9,0.1-7.2,1.5-9.8,4.5
	c-2,2.2-3,4.9-2.9,7.9c0,3,2.2,5.5,5.2,5.9c1.4,0.2,2.8,0.1,4.2,0.1c0.9,0,1.7,0,2.6,0c-0.5,1.8-1,3.7-1.5,5.5
	c-0.2,0.8-0.2,0.9-1.1,0.8c-2,0-4.1,0.1-6.1-0.1c-3.9-0.3-7-1.9-9-5.4c-0.7-1.3-1.2-2.8-1.3-4.3c-0.4-5.6,1.7-10.4,5.3-14.6
	c3.1-3.6,7.1-5.5,11.7-6.3C124.7,36,127.3,36.2,130,36.1z"/>
<path class="st0" d="M96.3,67.1c-1,0-2,0-3,0c-0.3,0-0.4-0.1-0.3-0.4c2-7.8,4.1-15.6,6.1-23.5c0.6-2.2,1.2-4.4,1.7-6.7
	c0.1-0.4,0.2-0.5,0.6-0.5c2,0,3.9,0,5.9,0c0.5,0,0.5,0.1,0.4,0.5c-2.6,10-5.2,20-7.8,30.1c-0.1,0.3-0.2,0.4-0.5,0.4
	C98.3,67.1,97.3,67.1,96.3,67.1z"/>
</svg>
