<?xml version="1.0" encoding="utf-8"?>
<!-- Generator: Adobe Illustrator 23.1.0, SVG Export Plug-In . SVG Version: 6.00 Build 0)  -->
<svg version="1.1" id="Слой_1" xmlns="http://www.w3.org/2000/svg" xmlns:xlink="http://www.w3.org/1999/xlink" x="0px" y="0px"
	 viewBox="0 0 192.1 101" style="enable-background:new 0 0 192.1 101;" xml:space="preserve">
<style type="text/css">
	.st0{fill:#FFFFFF;}
</style>
<path class="st0" d="M155,82c0-20.9,0-41.8,0-62.8c0.2,0,0.3,0,0.5,0c4.8,0,9.7,0,14.5,0.1c3.1,0,6.2,0.2,9.2,0.8
	c5.1,1.1,8.3,4.7,8.9,9.9c0.2,2,0.4,4,0.4,6.1c0,10.5,0,21,0,31.4c0,2.2-0.2,4.5-0.5,6.6c-0.7,4.2-3.4,6.8-7.6,7.4
	c-1.8,0.3-3.6,0.5-5.5,0.5c-6.5,0.1-13,0-19.4,0C155.3,82,155.1,82,155,82z M169.5,71.4c0.9-0.2,1.7-0.3,2.5-0.5
	c0.8-0.2,1.4-0.8,1.5-1.7c0.2-1.5,0.4-3.1,0.5-4.6c0-9.9,0-19.8,0-29.8c0-0.8-0.1-1.6-0.2-2.4c-0.1-0.9-0.5-1.6-1.4-2
	c-0.9-0.4-1.9-0.4-2.9-0.4C169.5,43.8,169.5,57.5,169.5,71.4z"/>
<path class="st0" d="M39.6,50.6c0.1-5.2,0.2-10.3,0.3-15.5c0.1-2.4,0.2-4.8,1.1-7.1c2-5.6,6.1-8.8,11.9-9.8c3.2-0.6,6.4-0.4,9.5,0.5
	c5.7,1.8,9,5.7,10.2,11.4c0.5,2.4,0.6,4.9,0.6,7.3c0,8.8,0.1,17.6,0,26.4c0,2.4-0.2,4.9-0.6,7.3c-1.1,6.3-5.9,10.9-12.2,12
	c-3.4,0.6-6.7,0.5-10-0.6c-5.4-1.7-8.6-5.5-9.9-10.9c-0.4-1.8-0.5-3.6-0.6-5.5c-0.1-2.6-0.2-5.1-0.2-7.7
	C39.7,55.7,39.7,53.1,39.6,50.6C39.7,50.6,39.7,50.6,39.6,50.6z M58.8,50.3c0-5.2,0-10.3,0-15.5c0-1.6-0.2-3.3-0.4-4.9
	c-0.1-0.9-0.8-1.4-1.6-1.4c-1,0-1.7,0.4-2,1.3c-0.1,0.3-0.2,0.6-0.2,0.9c-0.1,1.6-0.2,3.2-0.2,4.7c0,9.6,0,19.2,0,28.8
	c0,1.4,0,2.9,0.1,4.3c0,0.9,0.1,1.8,0.3,2.6c0.1,0.6,0.4,1.1,1.1,1.3c1.2,0.4,2.3-0.1,2.7-1.4c0.1-0.3,0.1-0.5,0.1-0.8
	c0.1-2,0.2-4,0.3-6.1C58.8,59.6,58.8,55,58.8,50.3z"/>
<path class="st0" d="M3,59.5c4.5,0,9,0,13.5,0c0,0.2,0,0.3,0,0.5c0,2.7,0,5.3,0,8c0,1,0.1,1.9,0.3,2.9c0.1,0.9,0.7,1.6,1.7,1.7
	c1,0.2,1.9-0.1,2.5-1c0.5-0.7,0.7-1.5,0.8-2.4c0.2-2.4,0.1-4.8-0.4-7.1c-0.2-1-0.7-1.8-1.4-2.5c-2-1.6-3.9-3.2-5.9-4.8
	c-1.9-1.5-3.9-3.1-5.8-4.6c-2.8-2.2-4.3-5.1-5.1-8.5c-0.7-2.9-0.7-5.9-0.5-8.9c0.1-1.9,0.3-3.8,0.7-5.6c0.9-4.1,3.7-6.7,7.5-8.2
	c2.9-1.1,5.9-1.4,9-1.2c2.4,0.1,4.8,0.6,7.1,1.6c1.5,0.7,2.9,1.5,4.1,2.7c1.7,1.5,2.5,3.5,2.8,5.7c0.6,3.4,0.5,6.8,0.5,10.2
	c0,0,0,0.1,0,0.2c-4.5,0-8.9,0-13.5,0c0-0.2,0-0.3,0-0.5c0-1.7,0-3.5,0-5.2c0-0.8-0.1-1.5-0.2-2.3c-0.1-0.8-0.5-1.5-1.4-1.7
	c-1-0.2-1.9,0.1-2.4,1c-0.3,0.6-0.5,1.3-0.6,2c-0.2,1.7-0.1,3.4,0.2,5.1c0.3,1.5,1.1,2.6,2.3,3.5c1.6,1.2,3.3,2.4,5,3.6
	c2.3,1.7,4.6,3.4,6.7,5.4c2.8,2.6,4.3,5.8,4.8,9.6c0.6,4.2,0.7,8.5,0.2,12.8c-0.3,3-1.2,5.7-3.6,7.7c-1.5,1.3-3.2,2.2-5,2.9
	c-3,1.1-6.1,1.3-9.2,1.1c-2.6-0.2-5.1-0.9-7.4-2.1c-3.7-2-5.9-5.1-6.6-9.3c-0.4-2.6-0.6-5.3-0.6-8C3,62.4,3,61,3,59.5z"/>
<path class="st0" d="M123.2,31.2c-0.2,0-0.4,0-0.6,0c-4.5,0-9.1,0-13.6,0c-2.1,0-3.7-1.7-3.8-3.6c-0.1-1.7-0.1-3.4,0-5.1
	c0.1-1.8,1.7-3.4,3.5-3.6c0.2,0,0.4,0,0.6,0c11.9,0,23.8,0,35.7,0c1.4,0,2.6,0.4,3.5,1.5c0.6,0.7,0.9,1.5,0.9,2.5c0,1.5,0,2.9,0,4.4
	c0,2.2-1.7,3.9-3.9,3.9c-4.1,0-8.1,0-12.2,0c-0.2,0-0.4,0-0.6,0c0,12.9,0,25.8,0,38.8c0.2,0,0.3,0,0.5,0c4.5,0,8.9,0,13.4,0
	c2,0,3.7,1.6,3.8,3.7c0,1.6,0,3.2,0,4.7c-0.1,2-1.7,3.6-3.7,3.7c-0.2,0-0.3,0-0.5,0c-11.9,0-23.9,0-35.8,0c-2,0-3.6-1.1-4.1-3
	c0-0.1-0.1-0.2-0.1-0.4c0-1.8-0.1-3.6,0-5.3c0.2-2.1,1.8-3.5,4-3.5c4.1,0,8.2,0,12.4,0c0.2,0,0.4,0,0.6,0
	C123.2,57.1,123.2,44.2,123.2,31.2z"/>
<path class="st0" d="M78.6,19.2c4.9,0,9.7,0,14.5,0c0,16.7,0,33.4,0,50.2c2.9,0,5.8,0,8.8,0c0,4.2,0,8.4,0,12.6c-0.2,0-0.3,0-0.5,0
	c-7.4,0-14.8,0-22.2,0c-0.5,0-0.6-0.1-0.6-0.6c0-20.6,0-41.1,0-61.7C78.6,19.6,78.6,19.4,78.6,19.2z"/>
<path class="st0" d="M127.8,82.8c4.5,0,9,0,13.5,0c1.6,0,2.8,1.2,2.8,2.8c0,1.1,0,2.2,0,3.3c0,1.7-1.2,2.9-2.8,2.9
	c-0.1,0-0.2,0-0.3,0c-8.8,0-17.6,0-26.5,0c-1.5,0-2.6-0.7-3-2c-0.1-0.3-0.2-0.6-0.2-0.9c0-1.1,0-2.2,0-3.3c0.1-1.7,1.2-2.8,2.9-2.8
	C118.8,82.8,123.3,82.8,127.8,82.8C127.8,82.8,127.8,82.8,127.8,82.8z"/>
<path class="st0" d="M127.8,9.5c4.5,0,9,0,13.5,0c1.4,0,2.4,0.8,2.8,2.1c0.1,0.3,0.1,0.5,0.1,0.8c0,1.1,0,2.1,0,3.2
	c-0.1,1.7-1.2,2.8-2.9,2.9c-0.1,0-0.3,0-0.4,0c-8.8,0-17.5,0-26.3,0c-2,0-3.1-1.2-3.1-3.1c0-0.9,0-1.9,0-2.8c0-1.9,1.1-3.1,3.1-3.1
	C118.9,9.5,123.4,9.5,127.8,9.5C127.8,9.5,127.8,9.5,127.8,9.5z"/>
<path class="st0" d="M127.8,92.4c2.8,0,5.7,0,8.5,0c1.4,0,2.2,0.8,2.2,2.2c0,0.9,0,1.8,0,2.7c0,1.4-0.9,2.2-2.3,2.3
	c-0.1,0-0.2,0-0.3,0c-5.5,0-11,0-16.4,0c-0.3,0-0.6,0-0.9-0.1c-1-0.3-1.6-1.1-1.6-2.3c0-0.8,0-1.6,0-2.5c0-1.4,0.9-2.3,2.3-2.3
	C122.1,92.3,125,92.4,127.8,92.4z"/>
<path class="st0" d="M127.8,1.8c2.7,0,5.5,0,8.2,0c1.7,0,2.5,0.9,2.5,2.5c0,0.8,0,1.5,0,2.3c0,1.4-0.9,2.3-2.4,2.3
	c-5.6,0-11.2,0-16.7,0c-1.5,0-2.4-1-2.5-2.4c0-0.8,0-1.5,0-2.3c0-1.5,1-2.5,2.5-2.5C122.2,1.8,125,1.8,127.8,1.8z"/>
</svg>
