<?xml version="1.0" encoding="utf-8"?>
<!-- Generator: Adobe Illustrator 23.1.0, SVG Export Plug-In . SVG Version: 6.00 Build 0)  -->
<svg version="1.1" id="Слой_1" xmlns="http://www.w3.org/2000/svg" xmlns:xlink="http://www.w3.org/1999/xlink" x="0px" y="0px"
	 viewBox="0 0 150 100" style="enable-background:new 0 0 150 100;" xml:space="preserve">
<style type="text/css">
	.st0{fill:#E11836;}
	.st1{fill:#E11937;}
</style>
<path class="st0" d="M60.6,56c1-0.1,1.9-0.1,2.9-0.2c4-0.3,8.1-0.6,12.1-0.9c1.1-0.1,2.3-0.2,3.4-0.2c0.2,0,0.3-0.1,0.4-0.2
	c0.1-0.3,0.3-0.6,0.5-0.9c-0.5,0-1-0.1-1.4-0.1c-4.9-0.3-9.9-0.6-14.8-0.9c-1.3-0.1-2.5-0.2-3.8-0.2c-0.2,0-0.3-0.1-0.4-0.3
	c-0.7-2.5-1.3-5-2-7.6c-0.1-0.3,0-0.3,0.3-0.4c4.7-0.3,9.5-0.6,14.2-0.8c3.1-0.2,6.2-0.4,9.3-0.5c1.6-0.1,3.2-0.2,4.7-0.3
	c0.2,0,0.3,0,0.3-0.2c0.1-0.3,0.3-0.6,0.5-0.9c-17.3-1.1-34.5-2.2-51.9-3.3c0.3-0.5,0.6-1,0.9-1.5c0.5-0.9,1-1.7,1.5-2.6
	c0.1-0.2,0.2-0.2,0.4-0.2c4.7-0.3,9.4-0.6,14-0.9c3.5-0.2,7-0.4,10.6-0.7c4.6-0.3,9.2-0.6,13.8-0.9c3.2-0.2,6.3-0.4,9.5-0.6
	c2.5-0.2,5-0.3,7.5-0.5c0.1,0,0.2,0,0.3-0.1c0.2-0.3,0.4-0.6,0.6-1c-5.5-0.4-10.9-0.7-16.4-1.1c0.3-0.5,0.5-0.9,0.8-1.4
	c1.4-2.5,2.8-4.9,4.2-7.4c0.1-0.2,0.2-0.3,0.5-0.3c3.7-0.2,7.5-0.5,11.2-0.7c1.9-0.1,3.7-0.2,5.6-0.4c0.4,0,0.6-0.1,0.8-0.5
	c0.1-0.2,0.2-0.4,0.3-0.6c-5.5-0.4-10.9-0.8-16.3-1.1c0.4-0.7,0.7-1.3,1.1-1.9c0.9-1.5,1.7-3,2.6-4.5C88.6,9.1,88.7,9,88.9,9
	c10,0,20,0,30,0c2.6,0,5.1,0.2,7.5,1c2,0.7,3.9,1.7,5.1,3.5c0.7,1,1.1,2.1,1.3,3.4c0.4,3.4-0.5,6.4-2.4,9.2c-3,4.5-7.2,7.3-12.2,9.1
	c-0.5,0.2-1,0.3-1.5,0.5c0.7,0.2,1.4,0.4,2.1,0.6c2.4,1.1,4.2,2.8,4.9,5.5c0.4,1.7,0.2,3.4-0.2,5.1c-0.9,3.5-3,6.4-5.7,8.7
	c-4.4,3.7-9.5,5.8-15,6.9c-1.9,0.4-3.7,0.5-5.6,0.5c-11.5,0-23,0-34.4,0c-0.3,0-0.5-0.1-0.5-0.4c-0.5-2-1-4.1-1.5-6.1
	C60.6,56.2,60.6,56.1,60.6,56z M88.9,50.9c1.4,0,2.7,0,4,0c1.2,0,2.3,0.1,3.5-0.1c2.1-0.4,4.1-1.1,5.7-2.5c1.3-1.1,2.1-2.5,2.2-4.2
	c0.2-2.1-1.4-3.8-3.5-3.9c-1.8,0-3.6,0-5.4,0c-0.2,0-0.4,0.1-0.5,0.3c-1.3,2.2-2.6,4.4-3.8,6.7C90.4,48.3,89.6,49.5,88.9,50.9z
	 M101.1,29.7c2,0,4,0.1,6,0c2.3-0.1,4.4-0.9,6-2.6c1.3-1.3,2-2.8,1.8-4.7c-0.2-1.6-1.4-3-3.2-2.9c-1.5,0.1-2.9,0-4.4,0
	c-0.2,0-0.4,0.1-0.5,0.3c-1.1,1.9-2.2,3.8-3.3,5.8C102.6,27,101.8,28.4,101.1,29.7z"/>
<path class="st1" d="M42.2,25.7c0.8-1.4,1.6-2.8,2.4-4.2c0.1-0.1,0.2-0.2,0.3-0.2c2.8-0.2,5.6-0.3,8.4-0.5c2.9-0.2,5.7-0.4,8.6-0.5
	c2.5-0.2,5-0.3,7.5-0.5c1.8-0.1,3.6-0.2,5.4-0.4c0.3,0,0.5,0,0.6,0.4c0.7,2.6,1.4,5.2,2,7.8c0.1,0.3,0,0.3-0.3,0.3
	c-1.6-0.1-3.3-0.2-4.9-0.3c-2.1-0.1-4.1-0.3-6.2-0.4c-1.6-0.1-3.2-0.2-4.8-0.3c-2.8-0.2-5.6-0.4-8.3-0.5c-2.4-0.2-4.8-0.3-7.2-0.5
	C44.6,25.9,43.4,25.8,42.2,25.7z"/>
<path class="st1" d="M57.2,44.2c-0.3,0.5-0.5,1-0.8,1.4c-1.2,2-2.3,4-3.5,6c-0.1,0.2-0.2,0.3-0.5,0.3c-2.4-0.1-4.8-0.3-7.1-0.4
	c-2.3-0.1-4.6-0.3-6.9-0.4c-3.5-0.2-6.9-0.4-10.4-0.6c-0.1-0.1,0-0.2,0.1-0.2c0.7-1.3,1.5-2.6,2.2-3.9c0.1-0.2,0.3-0.2,0.5-0.3
	c1.7-0.1,3.4-0.3,5-0.4c2.4-0.2,4.8-0.4,7.3-0.6c2.1-0.2,4.2-0.3,6.2-0.5c2.1-0.2,4.1-0.3,6.2-0.5C56,44.2,56.6,44.2,57.2,44.2z"/>
<path class="st1" d="M56.5,89c0,0.5,0,0.9,0,1.3c0,0.2-0.1,0.3-0.3,0.3c-0.8,0-1.7,0-2.5,0c-0.2,0-0.3-0.1-0.3-0.3
	c0-0.1,0-0.1,0-0.2c0-5.9,0-11.8,0-17.8c0-0.4,0.1-0.5,0.5-0.5c0.8,0,1.7,0,2.5,0c0.3,0,0.4,0.1,0.4,0.4c0,1.7,0,3.4,0,5.1
	c0,0.1-0.1,0.2,0.1,0.3c0.1,0,0.2-0.1,0.2-0.1c2.5-2.1,6.2-1.9,8.6,0.3c2.7,2.5,3.3,6.7,1.3,9.9c-1,1.7-2.5,2.8-4.4,3.1
	c-1.1,0.2-2.2,0.2-3.3-0.1c-1-0.3-1.7-0.9-2.4-1.5C56.8,89.1,56.7,89,56.5,89z M64.8,83.6c0-0.4,0-0.7-0.1-1.1
	c-0.5-2.8-3.7-4.2-6.1-2.8c-1.6,1-2.4,2.9-2,4.9c0.6,2.6,3.4,4.1,5.8,3C64.1,86.7,64.8,85.3,64.8,83.6z"/>
<path class="st1" d="M37.1,81.6c-0.2,0-0.2,0.1-0.2,0.3c-0.8,2.8-1.6,5.6-2.4,8.4c-0.1,0.2-0.2,0.3-0.4,0.3c-0.5,0-1,0-1.4,0
	c-0.2,0-0.3-0.1-0.4-0.3c-1-2.8-2-5.6-3-8.4c-0.6-1.6-1.2-3.3-1.8-4.9c-0.2-0.4-0.2-0.4,0.3-0.4c0.9,0,1.8,0,2.8,0
	c0.3,0,0.4,0.1,0.5,0.4c0.8,2.6,1.5,5.1,2.3,7.7c0,0.1,0.1,0.3,0.2,0.4c0.2-0.3,0.2-0.7,0.3-1.1c0.6-2.3,1.3-4.7,1.9-7
	c0.1-0.3,0.2-0.3,0.4-0.3c0.7,0,1.3,0,2,0c0.3,0,0.4,0.1,0.4,0.3c0.7,2.6,1.4,5.2,2.1,7.8c0,0.1,0,0.2,0.2,0.3
	c0.2-0.7,0.4-1.3,0.6-2c0.6-2,1.2-4.1,1.8-6.1c0.1-0.3,0.2-0.3,0.4-0.3c1,0,1.9,0,2.9,0c0.3,0,0.4,0.1,0.2,0.4
	c-1.3,3.6-2.6,7.2-4,10.8c-0.3,0.9-0.6,1.7-0.9,2.6c-0.1,0.2-0.2,0.3-0.4,0.3c-0.5,0-1,0-1.5,0c-0.2,0-0.3-0.1-0.4-0.3
	c-0.6-2.1-1.2-4.3-1.8-6.4C37.6,83.1,37.4,82.4,37.1,81.6z"/>
<path class="st0" d="M50,56.7c-0.5,0.9-1,1.8-1.5,2.6c-0.6,1.1-1.3,2.1-1.9,3.2c-0.1,0.3-0.3,0.4-0.6,0.4c-8.1,0-16.1,0-24.2,0
	c-0.3,0-0.6,0-0.8,0c-0.2,0-0.2-0.1-0.1-0.2c0.8-1.3,1.5-2.6,2.2-3.9c0.1-0.1,0.1-0.2,0.3-0.2c2.4-0.2,4.8-0.3,7.2-0.5
	c2.3-0.2,4.6-0.3,6.8-0.5c1.9-0.1,3.8-0.3,5.7-0.4c1.9-0.1,3.8-0.3,5.7-0.4C49.2,56.7,49.6,56.7,50,56.7z"/>
<path class="st1" d="M144.3,85c-1.7,0-3.4,0-5.1,0c-0.3,0-0.3,0.1-0.2,0.4c0.6,1.7,2.6,2.8,4.4,2.5c1.1-0.2,1.9-0.6,2.5-1.6
	c0.1-0.1,0.2-0.2,0.4-0.2c1,0,2,0,2.9,0c0.3,0,0.3,0.1,0.2,0.4c-0.9,2-2.4,3.4-4.4,4.2c-4,1.4-8.5-1.2-9.4-5.4
	c-0.8-3.8,1.3-7.7,4.9-8.9c4-1.4,8.3,1,9.4,5.3c0.3,1,0.3,2.1,0.1,3.1c0,0.3-0.2,0.3-0.4,0.3C147.7,85,146,85,144.3,85z M142.6,82.4
	c1.2,0,2.4,0,3.6,0c0.1,0,0.3,0,0.3-0.2c-0.2-0.9-0.6-1.7-1.4-2.2c-2.3-1.7-5.4-0.6-6.3,2.1c-0.1,0.3-0.1,0.4,0.3,0.4
	C140.2,82.3,141.4,82.4,142.6,82.4z"/>
<path class="st1" d="M22.4,85c-1.7,0-3.4,0-5.1,0c-0.2,0-0.3,0-0.2,0.3c0.5,1.3,1.5,2.2,2.9,2.5c1.4,0.3,2.8,0.1,3.8-1.2
	c0.3-0.4,0.7-0.6,1.2-0.5c0.8,0,1.6,0,2.3,0c0.4,0,0.4,0,0.3,0.4c-1,2.3-2.8,3.8-5.2,4.3c-4.1,0.9-8.1-1.9-8.7-6.1
	c-0.6-3.8,1.9-7.6,5.5-8.5c4-1,7.9,1.4,8.9,5.5c0.2,1,0.2,2,0.1,3c0,0.2-0.1,0.3-0.4,0.3C25.8,85,24.1,85,22.4,85z M20.7,82.4
	c1.2,0,2.4,0,3.6,0c0.2,0,0.3,0,0.3-0.3c-0.2-0.8-0.5-1.5-1.2-2.1c-2.3-1.8-5.6-0.8-6.4,2c-0.1,0.3,0,0.3,0.3,0.3
	C18.4,82.3,19.5,82.4,20.7,82.4z"/>
<path class="st1" d="M101.7,78.3c0-0.5,0-1,0-1.4c0-0.2,0.1-0.3,0.3-0.3c0.8,0,1.7,0,2.5,0c0.2,0,0.3,0.1,0.3,0.3c0,4.5,0,9,0,13.4
	c0,0.2-0.1,0.3-0.3,0.3c-0.8,0-1.7,0-2.5,0c-0.2,0-0.3-0.1-0.3-0.3c0-0.4,0-0.9,0-1.3c-0.1-0.1-0.1,0-0.2,0c-3.9,3.7-9.9,2-11.2-3.2
	c-0.6-2.4-0.4-4.8,1.1-6.9c1.6-2.3,4.6-3.4,7.2-2.7c1.1,0.3,2.1,0.9,2.9,1.9C101.6,78.2,101.6,78.2,101.7,78.3z M97.5,87.9
	c1.7,0,3-0.9,3.7-2.4c0.4-0.9,0.5-1.8,0.3-2.8c-0.3-2.7-3.3-4.4-5.7-3.2c-1.8,0.9-2.5,2.5-2.5,4.4C93.5,86.2,95.3,87.9,97.5,87.9z"
	/>
<path class="st1" d="M80.8,78.2c0-0.4,0-0.9,0-1.3c0-0.2,0-0.3,0.3-0.3c0.8,0,1.7,0,2.5,0c0.2,0,0.3,0.1,0.3,0.3c0,4.5,0,8.9,0,13.4
	c0,0.2-0.1,0.3-0.3,0.3c-0.8,0-1.7,0-2.5,0c-0.2,0-0.3-0.1-0.3-0.3c0-0.3,0-0.7,0-1c0-0.1,0-0.2,0-0.2c-0.1-0.1-0.2,0.1-0.2,0.1
	c-1.1,1-2.4,1.6-3.8,1.8c-2.7,0.3-4.9-0.7-6.4-3c-1.8-2.7-1.7-6.5,0.2-9.1c1.6-2.3,4.7-3.4,7.2-2.6c1.1,0.3,2.1,0.9,2.9,1.8
	C80.6,78.1,80.6,78.2,80.8,78.2z M80.7,83.4c0-0.2,0-0.6-0.1-0.9c-0.4-2.7-3.4-4.2-5.9-3c-1.6,0.8-2.5,2.7-2.3,4.8
	c0.3,2.6,3,4.2,5.5,3.4C79.6,87.1,80.7,85.5,80.7,83.4z"/>
<path class="st1" d="M49.4,13.3c0.7-1.2,1.4-2.4,2-3.6C51.7,9.2,52.1,9,52.7,9c6.5,0,12.9,0,19.4,0c0.3,0,0.4,0.1,0.5,0.4
	c0.4,1.7,0.9,3.4,1.4,5.2c0.1,0.3,0,0.3-0.2,0.3c-2.6-0.2-5.3-0.3-7.9-0.5c-2.4-0.2-4.9-0.3-7.3-0.5C55.5,13.7,52.5,13.5,49.4,13.3z
	"/>
<path class="st1" d="M109.7,77.7c0.3-0.2,0.5-0.4,0.7-0.6c1.6-1.2,3.3-1.4,5.1-0.7c1.9,0.7,3,2.1,3.3,4.1c0.1,0.6,0.2,1.3,0.2,2
	c0,2.6,0,5.1,0,7.7c0,0.3-0.1,0.3-0.3,0.3c-0.9,0-1.7,0-2.6,0c-0.3,0-0.4-0.1-0.4-0.4c0-2.1,0-4.1,0-6.2c0-1,0-1.9-0.3-2.9
	c-0.4-1.3-1.3-2-2.6-1.9c-1.2,0-2.2,0.9-2.5,2.1c-0.2,0.8-0.2,1.5-0.2,2.3c0,2.2,0,4.4,0,6.6c0,0.3-0.1,0.4-0.4,0.4
	c-0.9,0-1.8,0-2.7,0c-0.2,0-0.3,0-0.3-0.3c0-4.5,0-8.9,0-13.4c0-0.2,0.1-0.3,0.3-0.3c0.8,0,1.7,0,2.5,0c0.2,0,0.3,0.1,0.3,0.3
	C109.7,77.1,109.7,77.4,109.7,77.7z"/>
<path class="st1" d="M3.2,77.7c0.3-0.1,0.4-0.3,0.6-0.5c1.8-1.4,4.1-1.5,6.1-0.3c1.4,0.9,2.1,2.1,2.4,3.7c0.2,0.8,0.2,1.7,0.2,2.5
	c0,2.3,0,4.7,0,7c0,0.3-0.1,0.4-0.4,0.4c-0.9,0-1.7,0-2.6,0c-0.3,0-0.4-0.1-0.4-0.4c0-2.2,0-4.4,0-6.6c0-0.8-0.1-1.7-0.3-2.5
	c-0.4-1.3-1.3-2-2.7-1.9c-1.2,0-2.2,0.9-2.5,2.1c-0.2,0.6-0.2,1.2-0.2,1.9c0,2.3,0,4.7,0,7c0,0.3-0.1,0.4-0.4,0.4
	c-0.9,0-1.8,0-2.7,0c-0.2,0-0.3,0-0.3-0.3c0-4.5,0-8.9,0-13.4c0-0.2,0.1-0.3,0.3-0.3c0.8,0,1.7,0,2.5,0c0.2,0,0.3,0.1,0.3,0.3
	C3.2,77.1,3.2,77.4,3.2,77.7z"/>
<path class="st1" d="M134.8,86c-0.3,0.8-0.7,1.5-1.2,2.2c-1.4,1.8-3.3,2.7-5.6,2.8c-3.2,0.1-6.6-2.1-7.5-5.6c-0.9-3.4,0.8-7.1,4-8.6
	c3-1.4,6.5-0.7,8.7,1.7c0.6,0.7,1.1,1.5,1.4,2.4c0.1,0.2,0,0.2-0.2,0.2c-1.1,0-2.2,0-3.3,0c-0.2,0-0.3-0.1-0.4-0.3
	c-0.8-1.3-2-1.9-3.5-1.7c-1.7,0.2-3,1.3-3.4,3c-0.4,1.7-0.1,3.3,1.2,4.6c1.1,1.1,3,1.5,4.3,0.8c0.6-0.3,1.1-0.8,1.5-1.3
	c0.1-0.2,0.3-0.2,0.5-0.2C132.4,86,133.6,86,134.8,86z"/>
<path class="st1" d="M85.6,81.2c0-3,0-6,0-9c0-0.3,0.1-0.4,0.4-0.4c0.9,0,1.8,0,2.7,0c0.2,0,0.3,0.1,0.3,0.3c0,6,0,12.1,0,18.1
	c0,0.2-0.1,0.3-0.3,0.3c-0.9,0-1.8,0-2.7,0c-0.3,0-0.4-0.1-0.4-0.3C85.7,87.2,85.6,84.2,85.6,81.2z"/>
</svg>
