<?xml version="1.0" encoding="utf-8"?>
<!-- Generator: Adobe Illustrator 23.1.0, SVG Export Plug-In . SVG Version: 6.00 Build 0)  -->
<svg version="1.1" id="Слой_1" xmlns="http://www.w3.org/2000/svg" xmlns:xlink="http://www.w3.org/1999/xlink" x="0px" y="0px"
	 viewBox="0 0 150 100" style="enable-background:new 0 0 150 100;" xml:space="preserve">
<path d="M21.6,23.4c-0.2,0.3-0.4,0.7-0.6,1c-2,3.6-3.6,7.4-4.5,11.5c-0.6,2.9-0.8,5.7,0,8.6c1.3,4.8,4.4,7.9,9.2,9.2
	c2.3,0.6,4.7,0.7,7.2,0.6c4-0.2,7.9-1.2,11.8-2.2c18-4.8,36-9.6,54-14.4c16.9-4.5,33.9-9,50.8-13.5c0.2,0,0.3-0.1,0.5-0.1
	c-0.2,0.1-0.4,0.2-0.6,0.3c-35,15-69.9,29.9-104.9,44.9c-4,1.7-8,3.4-12.2,4.7c-3.9,1.2-7.8,2.2-11.9,2.5c-3.3,0.3-6.6,0.2-9.8-0.9
	C5,73.7,1.4,69.9,0.3,63.9c-0.5-3-0.2-5.9,0.5-8.8c1.1-4.6,3.1-8.8,5.5-12.8c2.3-3.8,5.1-7.4,8-10.8c2.4-2.8,4.8-5.5,7.2-8.2
	C21.5,23.3,21.5,23.4,21.6,23.4z"/>
</svg>
