<?xml version="1.0" encoding="utf-8"?>
<!-- Generator: Adobe Illustrator 23.1.0, SVG Export Plug-In . SVG Version: 6.00 Build 0)  -->
<svg version="1.1" id="Слой_1" xmlns="http://www.w3.org/2000/svg" xmlns:xlink="http://www.w3.org/1999/xlink" x="0px" y="0px"
	 viewBox="0 0 150 100" style="enable-background:new 0 0 150 100;" xml:space="preserve">
<style type="text/css">
	.st0{fill:#022A64;}
	.st1{fill:#FE1335;}
</style>
<path class="st0" d="M67.4,48.2c0-5.4,0-10.7,0-16.1c0-2.8,1.3-4.8,3.8-6.1c1.5-0.8,3.2-0.8,4.8-0.4c2.3,0.4,3.9,1.9,4.8,4
	c0.3,0.8,0.5,1.6,0.5,2.5c0,8.8,0,17.5,0,26.3c0,1.3,0.7,2,2,2c4,0,7.9-0.1,11.9,0c2.4,0.1,4.1-1,5.3-3.1c2.4-4.2,5-8.3,7.4-12.4
	c2.3-3.8,4.5-7.5,6.8-11.3c1.1-1.7,1.9-3.5,3.2-5.1c1.3-1.6,3-2.6,5.1-2.9c2.1-0.3,4.1,0,5.9,1.3c1.2,0.8,2,1.9,2.7,3.1
	c1.3,2.1,2.6,4.2,3.9,6.3c1.8,2.9,3.6,5.9,5.4,8.8c1.7,2.9,3.5,5.7,5.2,8.6c1.1,1.8,2.3,3.6,3,5.6c0.6,1.5,0.7,3.1,0.6,4.7
	c-0.2,4-2.3,6.8-5.6,8.8c-1.5,0.9-3.2,1.3-5,1.3c-6.4,0-12.9,0-19.3,0c-2.6,0-4.8-1.1-5.9-3.6c-0.9-1.9-0.7-3.9,0.2-5.8
	c0.9-1.8,2.3-2.8,4.2-3.4c0.6-0.2,1.2-0.2,1.8-0.2c4,0,7.9,0,11.9,0c0.4,0,0.8,0,1.1-0.2c0.5-0.4,0.6-1,0.2-1.6c-1.2-2-2.5-4-3.7-6
	c-1.6-2.6-3.2-5.1-4.8-7.7c-0.6-1-0.8-1-1.4,0c-2.5,4.3-5,8.6-7.5,12.8c-2,3.4-4,6.9-6,10.3c-1.1,1.9-2.4,3.6-4.4,4.7
	c-0.9,0.5-1.9,0.8-3,0.8c-8.6,0-17.1,0-25.7,0c-2.4,0-4.4-1.1-6.1-2.8c-1.5-1.4-2.6-3.2-3-5.2c-0.1-0.6-0.2-1.2-0.2-1.8
	C67.3,59,67.4,53.6,67.4,48.2z"/>
<path class="st0" d="M21.3,43.9c4.4,0,8.8,0,13.2,0c3.3,0,6.3,2.7,6.4,6.3c0.1,1.7-0.3,3.2-1.3,4.5c-1.3,1.7-3.1,2.6-5.2,2.6
	c-5,0-9.9,0-14.9,0c-1.1,0-2.3,0-3.4,0c-1.2,0-2,0.8-2,1.9c0,3.1,0.1,6.1,0,9.2c-0.1,2.5-1.3,4.4-3.5,5.5c-2.5,1.3-6.5,1-8.6-1.5
	c-1-1.2-1.6-2.5-1.6-4c0-5.7,0-11.4,0-17c0-3.3,2.2-6.2,5.4-7.2c1.2-0.4,2.4-0.3,3.6-0.3c2,0,4,0,6,0C17.3,43.9,19.3,43.9,21.3,43.9
	z"/>
<path class="st0" d="M62.1,50.3c0,5.9,0,11.8,0,17.7c0,2.6-1.2,4.6-3.5,5.9c-1.4,0.8-3,0.9-4.6,0.7c-2.5-0.3-4.3-1.8-5.2-4.1
	c-0.3-0.7-0.4-1.5-0.4-2.3c0-3.2,0-6.4,0-9.6c0-8.9-0.1-17.8-0.1-26.7c0-2.7,1.2-4.8,3.6-5.9c3.1-1.4,7.5-0.8,9.4,3
	c0.4,0.9,0.6,1.8,0.7,2.7c0,1.4,0.1,2.8,0.1,4.2C62,40.8,62,45.5,62.1,50.3C62.1,50.3,62.1,50.3,62.1,50.3z"/>
<path class="st1" d="M22.3,26.3c5.1,0,10.3,0,15.4,0c2.7,0,5.1,1.6,6,4c0.9,2.5,0.6,4.8-1,7c-1.3,1.7-3.1,2.4-5.1,2.4
	c-10.2,0-20.4,0-30.6,0c-2.4,0-4.4-1.1-5.6-3.2c-1-1.8-1.2-3.7-0.7-5.6c0.7-2.3,2.3-3.7,4.6-4.4c0.6-0.2,1.2-0.2,1.8-0.2
	C12.2,26.3,17.3,26.3,22.3,26.3z"/>
</svg>
