<?xml version="1.0" encoding="utf-8"?>
<!-- Generator: Adobe Illustrator 23.1.0, SVG Export Plug-In . SVG Version: 6.00 Build 0)  -->
<svg version="1.1" id="Слой_1" xmlns="http://www.w3.org/2000/svg" xmlns:xlink="http://www.w3.org/1999/xlink" x="0px" y="0px"
	 viewBox="0 0 150 100" style="enable-background:new 0 0 150 100;" xml:space="preserve">
<style type="text/css">
	.st0{fill:#FFFFFF;}
</style>
<rect width="150" height="100"/>
<path class="st0" d="M66,31.4c1.5-2.8,3-5.5,4.3-8.3c0.6-1.3,1.4-2,2.9-1.7c0.5,0.1,1.1,0,1.7,0c1,8.4,2,16.7,3,25
	c-1.9,0-3.8,0-5.8,0c-0.4-4.1-0.8-8.2-1.2-12.4c0,0-0.1,0-0.1,0c-1.6,2.7-3.1,5.4-4.7,8.2c-1.7-2.8-3.4-5.5-5.2-8.4
	c-0.6,4.3-1.2,8.5-1.8,12.7c-1.8,0-3.6,0-5.4,0c0.2-1.5,0.4-2.9,0.6-4.3c0.7-4.9,1.4-9.9,2.1-14.8c0.3-1.8,0.5-3.6,0.8-5.5
	c0.1-0.4,0.2-0.5,0.6-0.5c0.9,0,1.8,0,2.7,0c0.4,0,0.6,0.1,0.8,0.5c1.5,2.9,3,5.8,4.4,8.7C65.7,30.8,65.8,31,66,31.4z"/>
<path class="st0" d="M85.5,21.4c1.2,0,2.4,0,3.5,0c0.2,0,0.4,0.3,0.5,0.5c1.5,2.9,3,5.8,4.5,8.7c0.1,0.2,0.2,0.4,0.3,0.7
	c0.1-0.2,0.3-0.4,0.4-0.6c1.5-2.9,3-5.8,4.5-8.6c0.3-0.5,0.6-0.7,1.1-0.7c0.9,0,1.9,0,2.9,0c1,8.3,2,16.6,3,25c-1.9,0-3.8,0-5.8,0
	c-0.4-4.1-0.8-8.3-1.2-12.6c-1.7,2.9-3.2,5.6-4.8,8.4c-1.7-2.8-3.4-5.5-5.2-8.4c-0.6,4.3-1.2,8.5-1.8,12.7c-1.8,0-3.5,0-5.4,0
	C83.2,38.1,84.4,29.8,85.5,21.4z"/>
<path class="st0" d="M77.4,80c-1.9,0-3.7,0-5.6,0c0-8.3,0-16.7,0-25c1.8,0,3.6,0,5.3,0c0.2,0,0.4,0.2,0.6,0.4
	c2.2,2.1,4.4,4.2,6.7,6.2c0.2,0.2,0.4,0.4,0.7,0.7c0-2.5,0-4.9,0-7.3c1.9,0,3.7,0,5.6,0c0,8.4,0,16.7,0,25c-1.8,0-3.7,0-5.5,0
	c0-0.3,0-0.5,0-0.8c0-2.8,0-5.5,0-8.3c0-0.3-0.1-0.6-0.3-0.8c-2.4-2.1-4.8-4.2-7.3-6.2c0,0-0.1-0.1-0.2-0.1
	C77.4,69.2,77.4,74.5,77.4,80z"/>
<path class="st0" d="M22,21.4c1.9,0,3.7,0,5.6,0c0,8.3,0,16.7,0,25c-1.8,0-3.6,0-5.5,0c0-3.1,0-6.3,0-9.4c-2,0-3.9,0-5.8,0
	c0,0.2,0,0.5,0,0.7c0,3.4,0,6.8,0,10.3c0,0.5-0.1,0.7-0.5,0.9c-1.7,0.9-3.3,1.8-5,2.8c0-10.1,0-20.2,0-30.3c1.8,0,3.6,0,5.5,0
	c0,3.1,0,6.1,0,9.2c2,0,3.8,0,5.8,0C22,27.6,22,24.6,22,21.4z"/>
<path class="st0" d="M49.3,46.4c-1.9,0-3.7,0-5.6,0c0-3.2,0-6.5,0-9.7c-1.9,0-3.8,0-5.7,0c0,3.2,0,6.5,0,9.7c-1.9,0-3.7,0-5.6,0
	c0-0.2,0-0.4,0-0.7c0-2.6-0.1-5.2,0-7.9c0.1-2.4-0.5-4.7-0.8-7c0-0.2-0.1-0.4-0.1-0.7c0.3,0,0.6,0,0.8-0.1c0.1-0.9,0.2-1.8,0.3-2.7
	c1-5.3,4.9-7.3,9.7-6.8c4.3,0.5,6.2,3.5,6.7,7.1c0.2,1.1,0.2,2.2,0.2,3.3c0,4.8,0,9.6,0,14.5C49.3,45.9,49.3,46.2,49.3,46.4z
	 M43.8,30.2c-0.1-0.6-0.1-1.2-0.2-1.8c-0.4-1.9-2.7-2.6-4.2-1.4c-1,0.8-1.1,1.9-1.2,3.2c1.7,0,3.4,0,5.1,0
	C43.3,30.2,43.5,30.2,43.8,30.2z"/>
<path class="st0" d="M134.1,39.9c0,2.3,0,4.4,0,6.5c-1.9,0-3.7,0-5.5,0c0-8.3,0-16.7,0-25c1.9,0,3.7-0.1,5.5,0c1.7,0.2,3.4,0.5,5,1
	c2.9,1,5.1,2.9,5.9,6c1.1,4.2-0.5,7.9-4.3,9.9c-0.2,0.1-0.4,0.2-0.6,0.3c0.9,1.3,1.8,2.6,2.7,3.9c0.9,1.3,1.8,2.6,2.8,3.9
	c-0.2,0-0.4,0-0.6,0c-1.9,0-3.7,0-5.6,0c-0.4,0-0.6-0.1-0.9-0.5c-1.3-1.9-2.6-3.7-3.9-5.5C134.5,40.3,134.3,40.2,134.1,39.9z
	 M134.1,33.9c1.5,0,2.7-0.3,3.6-0.9c1.7-1.1,1.7-3.5,0-4.6c-1.1-0.7-2.3-0.9-3.6-0.9C134.1,29.7,134.1,31.8,134.1,33.9z"/>
<path class="st0" d="M33.4,55C33.4,55,33.5,55,33.4,55c3.7-0.2,7.3-0.3,10.8,1.1c2.7,1.1,4.8,2.8,5.6,5.8c1.2,4.2-0.4,7.9-4.2,10
	c-0.2,0.1-0.4,0.2-0.7,0.4c1.8,2.6,3.6,5.1,5.5,7.7C50.1,80,50,80,49.8,80c-1.9,0-3.8,0-5.6,0c-0.4,0-0.6-0.1-0.9-0.5
	c-1.4-2-2.8-4-4.3-6.1c0,2.3,0,4.4,0,6.5c-1.9,0-3.7,0-5.6,0C33.4,71.6,33.4,63.3,33.4,55z M39,67.7c1.1-0.3,2.1-0.4,3.1-0.8
	c2-0.8,2.4-3.4,0.7-4.8C41.7,61.3,40.4,61,39,61C39,63.2,39,65.4,39,67.7z"/>
<path class="st0" d="M111.7,64.9c0,5,0,10,0,15c-0.2,0-0.4,0-0.6,0c-2.6,0-5.2,0-7.7,0c-6,0.1-9.5-3.5-10.7-8.8
	c-0.6-2.4-0.6-4.9,0-7.3c0.9-3.3,2.8-5.8,5.9-7.4c4-2.1,8.3-2.7,12.7-1.3c0.5,0.1,0.6,0.4,0.6,0.9c0,1.6,0,3.1,0,4.7
	c-1-0.2-1.9-0.4-2.8-0.5c-1.8-0.2-3.5-0.2-5.3,0.3c-3.3,1-5.2,3.5-5.1,7c0,0.9,0.1,1.9,0.3,2.8c0.5,2.1,1.9,3.4,4,3.9
	c1,0.2,2.1,0.3,3.2,0.4c0-3.3,0-6.5,0-9.7C108,64.9,109.8,64.9,111.7,64.9z"/>
<path class="st0" d="M138.7,55c0,0.4,0,0.7,0,1.1c0,2.7,0,5.5,0,8.2c0,0.5,0.1,0.6,0.6,0.6c1.5,0,2.9,0,4.5,0c0-3.3,0-6.6,0-9.8
	c1.9,0,3.7,0,5.5,0c0,8.3,0,16.6,0,25c-1.8,0-3.6,0-5.5,0c0-3.1,0-6.3,0-9.4c-1.7,0-3.4,0-5.1,0c0,3.1,0,6.3,0,9.4
	c-1.9,0-3.7,0-5.6,0c0-0.3,0-0.5,0-0.8c0-2.8,0-5.5,0-8.3c0-0.8-0.2-1.6-0.4-2.3c-0.3-1.2-0.7-2.4-1.2-3.7c0.5,0,1,0,1.5-0.1
	c0-3.3,0-6.5,0-9.8C135,55,136.8,55,138.7,55z"/>
<path class="st0" d="M110.6,31.4c0.4,0,0.7,0,1.1-0.1c0-3.3,0-6.6,0-10c4.2,0,8.2,0,12.4,0c0,1.7,0,3.5,0,5.2c-2.3,0-4.7,0-7,0
	c0,1.6,0,3.1,0,4.7c0.2,0,0.4,0,0.6,0c2,0,3.9,0,5.9,0c0.2,0,0.5,0.2,0.6,0.3c0.2,1.6,0.4,3.2,0.6,4.9c-2.6,0-5.2,0-7.7,0
	c0,1.7,0,3.2,0,4.9c2.3,0,4.7,0,7,0c0,1.7,0,3.3,0,4.9c-4.1,0-8.2,0-12.3,0c0-0.2,0-0.4,0-0.6c0-2.5-0.1-4.9,0-7.4
	c0.1-2-0.5-3.9-0.9-5.8C110.7,32.3,110.7,31.9,110.6,31.4z"/>
<path class="st0" d="M59.7,75.1c2.4,0,4.7,0,7,0c0,1.6,0,3.2,0,4.8c-4.1,0-8.2,0-12.4,0c0-0.3,0-0.5,0-0.7c0-2.5-0.1-4.9,0-7.4
	c0.1-1.9-0.5-3.8-0.9-5.6c-0.1-0.4-0.2-0.8-0.3-1.3c0.4,0,0.7,0,1.1-0.1c0-3.3,0-6.6,0-10c4.2,0,8.3,0,12.4,0c0,1.7,0,3.4,0,5.2
	c-2.3,0-4.7,0-7,0c0,1.6,0,3.2,0,4.8c2.3,0,4.7,0,7.1,0c0.2,1.7,0.4,3.4,0.7,5.2c-2.6,0-5.1,0-7.7,0C59.7,71.8,59.7,73.4,59.7,75.1z
	"/>
<path class="st0" d="M31,55c0,1.8,0,3.5,0,5.3c-1.9,0-3.7,0-5.6,0c0,6.6,0,13.1,0,19.7c-2,0-3.9,0-6,0c0-6.5,0-13.1,0-19.7
	c-1.9,0-3.7,0-5.5,0c0-1.8,0-3.6,0-5.3C19.6,55,25.3,55,31,55z"/>
<path class="st0" d="M125.9,60.3c0,6.6,0,13.1,0,19.7c-2,0-3.9,0-6,0c0-6.5,0-13,0-19.6c-1.9,0-3.7,0-5.5,0c0-1.8,0-3.6,0-5.3
	c5.7,0,11.4,0,17.1,0c0,1.7,0,3.5,0,5.3C129.7,60.3,127.8,60.3,125.9,60.3z"/>
<path class="st0" d="M0.7,74.8c1.3,0,2.6,0.1,3.8,0c2.3-0.3,3.2-2.2,2-4.2c-0.6-1-1.5-1.7-2.4-2.5c-0.6-0.6-1.3-1.1-1.9-1.7
	c-2.8-2.6-2.3-8.1,1.3-10.4c2.5-1.5,5.8-1.9,8.8-1c0,1.7,0,3.4,0,5.1c-0.8-0.1-1.6-0.2-2.4-0.2c-0.7,0-1.4,0.1-2,0.3
	c-1.4,0.5-1.9,1.8-1.2,3.1c0.4,0.7,1,1.2,1.5,1.8c1,1,2.2,1.8,3.2,2.9c2.6,2.7,2.7,8.6-2.4,11C6.6,80,4,80.2,1.3,79.7
	c-0.5-0.1-0.7-0.3-0.7-0.8C0.7,77.5,0.7,76.1,0.7,74.8z"/>
</svg>
