<?xml version="1.0" encoding="utf-8"?>
<!-- Generator: Adobe Illustrator 23.1.0, SVG Export Plug-In . SVG Version: 6.00 Build 0)  -->
<svg version="1.1" id="Слой_1" xmlns="http://www.w3.org/2000/svg" xmlns:xlink="http://www.w3.org/1999/xlink" x="0px" y="0px"
	 viewBox="0 0 100 100" style="enable-background:new 0 0 100 100;" xml:space="preserve">
<g>
	<path d="M29.7,16.7c0.3,0.3,0.6,0.6,0.9,0.9c0.3,0.3,0.6,0.3,0.9,0c0.2-0.2,0.4-0.4,0.7-0.6c0.3-0.2,0.6-0.2,0.8,0.1
		c0.1,0.1,0.1,0.3,0.2,0.5c0.2,0.7,0.7,1,1.4,1.1c3,0.5,5.6,1.7,8.1,3.3c3,1.8,5.6,4.1,8.3,6.3c1.7,1.3,3.4,2.7,5.2,4
		c1.5,1,3.2,1.7,4.9,1.9c2.2,0.4,4.1-0.1,5.8-1.5c1.7-1.3,2.8-3,3.6-5c0.9-1.9,1.7-3.8,2.6-5.6c1.2-2.3,3.1-3.9,5.4-5
		c0.3-0.1,0.6-0.3,0.9-0.3c1.3-0.3,2.4,0.6,2.2,1.9c-0.1,1.1-0.7,2.1-1.7,2.7c-0.8,0.5-1.6,0.9-2.4,1.3c-2.2,1.1-3.9,2.8-5,5
		c-0.7,1.4-1.3,2.9-1.9,4.4c-0.7,1.5-1.7,2.8-3.2,3.7c-1.1,0.7-1.1,0.9-0.3,1.9c1,1.5,1.5,3.2,1.7,5c0.2,1.7,0.3,3.6,0.4,5.3
		c0.1,1.5,0.7,2.6,1.9,3.4c0.7,0.4,1.1,1.1,1.2,1.9c0.1,0.8,0.3,1.5,0.7,2.2c0.5,0.9,0.7,1.8,0.4,2.8c-0.1,0.5-0.1,1.1-0.1,1.6
		c0,1-0.3,1.2-1.3,1c-1.1-0.3-1.9-0.9-2.2-2c-0.2-1-0.4-2.1-0.5-3.2c-0.1-1.3-0.5-2.2-1.5-3c-3-2.2-5-5-6.5-8.3
		c-0.5-1.1-1-2.2-1.6-3.2c-1-1.9-2.6-2.8-4.6-3.1c-1.9-0.3-3.8-0.4-5.7-0.7c-2.6-0.3-4.8-1.5-6.7-3.2c-0.9-0.9-1.9-1.7-2.8-2.6
		c-0.5-0.5-0.7-0.5-1.2,0c-1.4,1.3-3.2,1.6-4.9,1.1c-1.1-0.3-2.1-0.8-3.2-1.2c-0.7-0.3-1.5-0.5-2.2-0.8c-0.4-0.1-0.6,0.1-0.7,0.4
		c0,0.1-0.1,0.2-0.1,0.3c-0.3,0.9-0.7,1.2-1.7,0.9c-1.5-0.5-2-2.1-1-3.4c0.7-0.9,1.5-1.2,2.6-1.2c1,0,2,0,3,0c0.2,0,0.3,0,0.5,0
		c0.7-0.1,0.9-0.3,1-0.9s-0.2-1.1-0.8-1.2c-0.7-0.1-1.4-0.1-2.2-0.1c-0.7,0.1-1.3-0.1-1.7-0.6c-0.5-0.5-1-0.8-1.5-1.2
		c-0.7-0.6-0.7-1.1-0.1-1.7c0.3-0.5,0.6-1,0.8-1.7c0.1-0.3,0.3-0.6,0.7-0.8c0.7-0.5,1.3-1.1,1.7-1.8C29.3,17.4,29.5,17,29.7,16.7z"
		/>
	<path d="M52.7,83.4c-0.1,0-0.3,0-0.4,0c-1.5,0-3.2,0-4.7,0c-0.3,0-0.4-0.1-0.5-0.5c0-5.7,0-11.4,0-17.1c0-0.1,0-0.3,0-0.5
		c0.1-1.4,0.7-2.1,2.1-2.1c1.1,0,2.2,0,3.3,0c4.1,0,8.3,0,12.4,0c0.3,0,0.7,0,1.1,0.1c1.3,0.2,1.9,0.7,1.9,2.2c0,2,0,4,0,6
		c0,3.6,0,7.3,0,10.8c0,0.3-0.1,0.7-0.1,1c-1.9,0-3.7,0-5.6,0c0-0.2,0-0.4,0-0.6c0-5.2,0-10.4,0-15.7c0-0.2,0-0.5-0.1-0.7
		c-0.1-0.5-0.4-0.7-0.9-0.7c-0.5,0-0.8,0.2-0.9,0.7c-0.1,0.3-0.1,0.7-0.1,0.9c0,5.1,0,10.2,0,15.4c0,0.2,0,0.4,0,0.6
		c-1.9,0-3.7,0-5.6,0c0-0.2,0-0.4,0-0.6c0-5.2,0-10.4,0-15.6c0-0.2,0-0.5-0.1-0.7c-0.1-0.5-0.4-0.8-0.9-0.8s-0.8,0.3-0.9,0.7
		c-0.1,0.3-0.1,0.5-0.1,0.8c0,5.2,0,10.4,0,15.6C52.7,83,52.7,83.2,52.7,83.4z"/>
	<path d="M75.3,83.4c-1.9,0-3.7,0-5.6,0c0-0.3-0.1-0.6-0.1-0.9c0-5.6,0-11.1,0-16.7c0-0.5,0.1-0.9,0.1-1.3c0.1-0.7,0.6-1.1,1.3-1.1
		c1.3-0.1,2.8-0.1,4.1-0.1c1.9,0,3.8,0,5.6,0c1.4,0,1.9,0.5,1.9,2c0,5.8,0,11.7,0,17.5c0,0.4-0.1,0.5-0.5,0.5c-1.5,0-3,0-4.6,0
		c-0.1,0-0.3,0-0.5,0c0-1.6,0-3.2,0-4.9c-0.6,0-1.1,0-1.7,0c-0.1,0-0.2,0.3-0.2,0.4c0,1.3,0,2.7,0,4C75.3,83,75.3,83.2,75.3,83.4z
		 M75.2,75.8c0.1,0,0.1,0,0.2,0c0.3,0,0.7,0,1.1,0c0.6,0,0.6,0,0.6-0.6c0-2.8,0-5.6,0-8.3c0-0.2,0-0.3-0.1-0.5
		c-0.1-0.4-0.4-0.6-0.8-0.6c-0.4,0-0.7,0.2-0.9,0.6c-0.1,0.2-0.1,0.5-0.1,0.7c0,2.8,0,5.5,0,8.3C75.2,75.4,75.2,75.6,75.2,75.8z"/>
	<path d="M39.6,63.3c1.8,0,3.5,0,5.2,0c0.1,0,0.3,0,0.5,0c0,0.2,0,0.3,0,0.5c0,5.8,0,11.7,0,17.5c0,1.4-0.7,2.1-2.1,2.1
		c-3,0-5.9,0-8.9,0c-0.1,0-0.3,0-0.3,0c-1.3-0.1-1.8-0.5-1.8-1.8c-0.1-1.9,0-4,0-5.9c0-4,0-7.9,0-11.8c0-0.2,0-0.3,0-0.6
		c0.2,0,0.3,0,0.5,0c1.5,0,3.1,0,4.6,0c0.4,0,0.5,0.1,0.5,0.5c0,5.2,0,10.4,0,15.7c0,0.3,0,0.5,0.1,0.8c0.1,0.5,0.5,0.7,0.9,0.7
		c0.5,0,0.8-0.3,0.9-0.7c0.1-0.2,0.1-0.5,0.1-0.7c0-5.2,0-10.4,0-15.6C39.6,63.7,39.6,63.5,39.6,63.3z"/>
	<path d="M22.7,78.3c0,0.3,0,0.6,0,0.9c0,1.1,0,2.2,0,3.3c0,0.6-0.2,0.8-0.8,0.8c-1.5,0-3.1,0-4.7,0c0-6.7,0-13.4,0-20.1
		c0.1,0,0.1,0,0.2,0c3.5,0,6.9,0,10.4,0c0.3,0,0.5,0,0.8,0.1c0.9,0.1,1.4,0.6,1.5,1.6c0.1,1.4,0.1,2.8,0.1,4.2c0,2.4,0,4.8,0,7.2
		c0,1.4-0.7,2-2.1,2.1c-1.6,0.1-3.3,0.1-4.9,0.1C23.1,78.3,22.9,78.3,22.7,78.3z M22.7,75.9c1.5,0.3,1.9-0.1,1.9-1.5
		c0-1.5,0-3.2,0-4.7c0-0.9,0-1.8,0-2.7c0-0.7-0.3-1.1-0.8-1.1c-0.3-0.1-0.7,0-1.1,0C22.7,69.2,22.7,72.6,22.7,75.9z"/>
</g>
</svg>
