<?xml version="1.0" encoding="utf-8"?>
<!-- Generator: Adobe Illustrator 23.1.0, SVG Export Plug-In . SVG Version: 6.00 Build 0)  -->
<svg version="1.1" id="Слой_1" xmlns="http://www.w3.org/2000/svg" xmlns:xlink="http://www.w3.org/1999/xlink" x="0px" y="0px"
	 viewBox="0 0 150 100" style="enable-background:new 0 0 150 100;" xml:space="preserve">
<style type="text/css">
	.st0{fill:#183083;}
	.st1{fill:#F9E22F;}
	.st2{fill:#EA3C49;}
	.st3{fill:#EB3C49;}
	.st4{fill:#D43F54;}
	.st5{fill:#EC3E46;}
	.st6{fill:#E94440;}
	.st7{fill:#FBDA34;}
</style>
<rect class="st0" width="150" height="100"/>
<path class="st1" d="M28.6,24.4c-0.8,0-1.5-0.1-2.2-0.4c-1.4-0.6-2.2-2.1-1.9-3.7c0.1-0.4,0.1-0.8,0.4-1.1c0.3-0.3,0.6-0.3,0.9,0
	c0.9,1,2.1,1.5,3.4,1.6c0.7,0.1,1.3,0.3,1.8,0.8c1.2,1,1.2,2.9,0.2,4c-0.6,0.6-1.3,1.1-1.9,1.6c-0.6,0.5-1.1,1-1.4,1.7
	c-0.5,1.2,0,2.1,1.3,2.3c0.8,0.1,1.7,0,2.4-0.4c0.9-0.4,1.8-1,2.4-1.7c1.1-1.2,2.5-1.6,4.1-1.7c0.4,0,0.7-0.1,1.1-0.1
	c0.6-0.1,1.1-0.4,1.5-0.8c1.2-1.4,2.7-2,4.4-2.1c0.3,0,0.6-0.1,0.8-0.4c0.8-1,1.8-1.7,3-2c1.5-0.3,2.8-1,4-1.8
	c1.2-0.8,2.6-0.7,3.9-0.3c0.4,0.1,0.5,0.1,0.8-0.2c4.4-5.4,10-8,16.9-7.4c5.5,0.4,10,3,13.5,7.3c0.2,0.3,0.4,0.3,0.7,0.3
	c1.4-0.4,2.6-0.3,3.8,0.6c1,0.8,2.2,1.3,3.5,1.5c1.4,0.3,2.5,1,3.3,2.1c0.2,0.2,0.4,0.3,0.6,0.3c1.9,0,3.4,0.8,4.6,2.2
	c0.5,0.6,1.2,0.8,2,0.8c0.5,0.1,1.1,0.1,1.6,0.2c1.1,0.2,2,0.6,2.8,1.4c0.9,0.9,2,1.7,3.3,2.1c0.6,0.2,1.2,0.3,1.8,0.1
	c1.1-0.2,1.6-1.1,1.2-2.2c-0.3-0.8-0.9-1.4-1.5-1.9c-0.5-0.4-1-0.9-1.6-1.3c-0.9-0.8-1.2-1.8-0.9-3c0.4-1.2,1.2-1.8,2.4-2
	c0.9-0.1,1.7-0.3,2.5-0.7c0.4-0.2,0.8-0.4,1.1-0.8c0.2-0.2,0.4-0.5,0.7-0.4c0.4,0.1,0.6,0.4,0.7,0.8c0.1,0.5,0.2,1.1,0.1,1.7
	c-0.3,1.9-1.6,2.9-3.6,3c-0.2,0-0.3,0-0.5,0c0.3,0.4,0.6,0.6,1,0.8c1.5,0.9,2.4,2.3,2.6,4.1c0.2,1.6-0.7,4-3,4.6
	c-0.9,0.3-1.9,0.3-2.9,0.2c-0.3,0-0.5,0-0.5,0.4c-0.1,1-0.3,1.9-0.8,2.8c-0.1,0.2-0.1,0.4,0.2,0.6c0.6,0.4,1.2,0.6,1.9,0.5
	c0.8-0.2,1.2,0.2,1.4,1c0.1,0.5,0.2,1,0.5,1.4c0.2,0.2,0.3,0.4,0.6,0.1c0.1-0.1,0.2-0.2,0.3-0.3c0.4-0.6,1-0.6,1.6-0.3
	c0.7,0.4,1.5,0.6,1.8,1.5c0.1,0.2,0.3,0.3,0.5,0.4c0.6,0.3,0.8,0.9,0.9,1.5c0,0.3,0.1,0.7,0.2,1c0.4,1,0,1.7-1.1,1.8
	c-1,0.1-2,0-3.1,0.1c-0.7,0.1-1.2-0.3-1.6-0.9c-0.1-0.1-0.2-0.3-0.2-0.4c-0.3-0.4-0.6-0.7-1.2-0.5c-0.9,0.2-1.7-0.2-2.3-0.8
	c-0.9-0.9-1.9-1.1-3-0.9c-1.1,0.2-2.1,0.2-3-0.4c-0.4-0.3-1-0.4-1.4-0.7c-0.5-0.2-0.8-0.6-1-1.2c-0.2-0.6-0.6-1.1-0.8-1.7
	c0-0.1-0.1-0.1-0.2-0.1c-0.8,0.1-1.5-0.1-2.3-0.2c-0.5-0.1-1.1-0.1-1.6,0.1c-1.3,0.3-2.6,0.4-4,0.2c-0.5-0.1-0.7,0.3-1.1,0.6
	c1.3,0.1,2.5,0.2,3.7,0.3c0.2,0,0.4,0,0.6,0.1c0.9,0.1,1.3,0.8,0.8,1.6c-0.3,0.6-0.8,1.2-1.1,1.7c-0.2,0.3-0.6,0.4-0.9,0.4
	c-0.3,0-0.4,0.1-0.5,0.3c-0.2,0.6-0.7,1.1-1.2,1.4c-0.5,0.3-1.1,0.4-1.7,0.2c-1.2-0.4-2.4-0.8-3.5-1.4c-0.3-0.2-0.7-0.2-1-0.2
	c-0.6,0.1-1.1-0.1-1.5-0.6c-0.2-0.3-0.3-0.3-0.6,0c-2.3,2.9-5.1,5.2-8.6,6.4c-7.1,2.5-13.6,1.3-19.4-3.5c-1.1-1-2.1-2.1-3-3.3
	c-0.2-0.3-0.3-0.3-0.5,0c-0.5,0.8-1.1,1.1-2,0.9c-0.3-0.1-0.5,0.1-0.7,0.2c-1.1,0.6-2.3,1-3.5,1.5c-1.1,0.4-2.3-0.4-2.8-1.3
	c-0.2-0.4-0.4-0.7-0.9-0.7c-0.4,0-0.7-0.3-0.8-0.6c-0.2-0.4-0.5-0.8-0.8-1.2c-0.2-0.2-0.3-0.4-0.3-0.7c-0.1-0.6,0.2-1.1,0.9-1.2
	c0.3,0,0.6-0.1,0.8-0.1c1.2-0.1,2.3-0.1,3.5-0.3c-0.3-0.5-0.5-0.6-1.1-0.5c-1.1,0.2-2.3,0.1-3.3-0.1c-1.1-0.2-2.1-0.2-3.1,0
	c-0.1,0-0.1,0-0.2,0c-0.4,0.3-1.1-0.4-1.4,0.4c-0.2,0.5-0.6,0.9-0.7,1.4c-0.2,0.6-0.6,1-1.1,1.3c-0.6,0.3-1.3,0.6-2,0.9
	c-0.6,0.3-1.3,0.2-2,0.2c-0.4,0-0.7-0.1-1.1-0.2c-0.8,0-1.6,0.2-2.2,0.8c-0.8,0.8-1.7,1.1-2.8,0.9c-0.2,0-0.3,0-0.4,0.1
	c-0.2,0.2-0.4,0.5-0.6,0.8c-0.5,0.8-1.2,1.1-2.1,0.9c-0.5-0.1-0.9-0.1-1.4-0.1c-0.6,0-1.2,0-1.8-0.2c-0.6-0.2-0.9-0.8-0.7-1.4
	c0.2-0.5,0.3-1,0.4-1.5c0.1-0.6,0.4-1,0.9-1.3c0.2-0.1,0.4-0.3,0.5-0.5c0.5-1,1.4-1.3,2.3-1.6c0.3-0.1,0.6,0,0.8,0.2
	c0.1,0.1,0.2,0.2,0.3,0.3c0.6,0.5,0.7,0.5,1-0.3c0.1-0.4,0.2-0.8,0.4-1.2c0.2-0.6,0.6-0.8,1.1-0.8c0.1,0,0.3,0,0.4,0
	c0.7,0.3,1.3-0.2,1.8-0.5c0.2-0.1,0.2-0.2,0.1-0.4c-0.5-0.9-0.8-2-0.9-3c0-0.3-0.2-0.3-0.4-0.2c-0.9,0.1-1.9,0-2.8-0.2
	c-2.5-0.6-3.6-3.3-3-5.4c0.4-1.4,1.2-2.6,2.5-3.3C27.9,25,28.3,24.8,28.6,24.4z M88.7,33.1c0.1,0.1,0.1,0.2,0.2,0.3
	c0.1,0.7,0.3,1.4,0.5,2c0.3,0.8,0.8,1.3,1.6,1.5c0.3,0.1,0.5,0.1,0.8,0.2c0.3,0.1,0.4,0.3,0.2,0.5c-0.5,0.8-0.9,1.7-1.4,2.5
	c-0.3,0.4-0.4,0.9-0.3,1.3c0.1,0.3,0.2,0.5,0.3,0.8c0,0.1,0.2,0.3,0.1,0.4c-0.1,0.1-0.3,0-0.4-0.1c-0.4-0.2-0.5-0.7-0.7-1.1
	c-0.3-0.4-0.3-0.8-0.1-1.1c0.1-0.3,0.3-0.6,0.4-0.8c0.3-0.5,0.6-1.1,0.8-1.7c0.1-0.1,0.2-0.3-0.1-0.4c-0.4-0.1-0.7-0.1-1,0.3
	c-0.2,0.2-0.3,0.5-0.4,0.8c-0.2,0.5-0.4,0.9-0.7,1.4c-0.4,0.6-0.5,1.2-0.1,1.8c0.2,0.4,0.5,0.7,0.7,1c0.3,0.5,0.7,0.6,1.2,0.6
	c0.4,0,0.7,0,1,0.1c1.1,0.6,2.3,1,3.5,1.5c0.6,0.2,1.2,0.1,1.6-0.3c0.3-0.2,0.4-0.5,0.6-0.9c0.3-0.6,0.5-0.7,1.1-0.7
	c0.2,0,0.4-0.1,0.5-0.3c0.3-0.4,0.6-0.8,0.8-1.3c0.2-0.3,0.1-0.6-0.3-0.6c-0.5,0-0.9-0.1-1.4-0.1c-0.3,0-0.6,0.1-0.8,0.3
	c-0.5,0.5-0.8,1.1-1.1,1.6c-0.3,0.5-0.5,0.7-1.1,0.5c-0.7-0.2-1.4-0.5-2.1-0.9c-0.2-0.1-0.2-0.2-0.2-0.4c0.1-1,0.5-1.9,1.4-2.3
	c1.2-0.5,2-1.5,2.5-2.7c0.1-0.1,0.1-0.4,0.3-0.3c0.2,0,0.3,0.2,0.3,0.4c0,0.3,0,0.7-0.2,1c-0.1,0.3-0.1,0.4,0.3,0.4
	c0.6,0,1.1,0,1.7-0.1c1.3-0.2,2.5-0.5,3.8-0.2c0.4,0.1,0.7,0.2,1.1,0.2c1,0,1.5-0.4,1.7-1.5c0.1-0.8,0-1.5-0.1-2.3
	c0-0.2-0.1-0.5,0.1-0.5c0.3-0.1,0.3,0.3,0.4,0.5c0.1,0.3,0.2,0.5,0.2,0.8c0.1,0.6,0.1,1.2,0.1,1.8c0,0.2,0,0.4,0.1,0.6
	c1.1,2,2.7,3,5,3c1.8,0,3.3,0.6,4.6,1.9c0.2,0.2,0.5,0.4,0.3,0.6c-0.2,0.2-0.5-0.2-0.7-0.4c-1.2-1.2-2.7-1.9-4.5-1.6
	c-1.8,0.3-3.3-0.2-4.5-1.7c-0.2-0.3-0.5-0.4-0.9-0.4c-0.2,0-0.2,0.1-0.2,0.3c0.4,1,0.8,1.9,2,2.2c0.1,0,0.1,0.1,0.2,0.1
	c1,0.7,2,0.7,3.1,0.5c1.3-0.3,2.4,0.1,3.3,1c0.6,0.6,1.3,0.8,2,0.6c0.6-0.1,0.9,0.1,1.3,0.5c0.2,0.2,0.4,0.5,0.6,0.8
	c0.3,0.5,0.7,0.6,1.3,0.6c0.3-0.1,0.7-0.2,1-0.1c0.1,0,0.2,0,0.3-0.2c0.1-0.5-0.4-1.6-0.9-1.8c-0.3-0.1-0.5-0.3-0.7-0.6
	c-0.2-0.4-0.5-0.6-0.8-0.7c-0.6-0.2-1-0.6-1.3-1.1c-0.4-0.5-0.6-1.1-0.8-1.7c-0.1-0.4-0.4-0.6-0.8-0.5c-0.8,0.2-1.5-0.2-2.2-0.6
	c-0.7-0.4-0.8-0.8-0.5-1.5c0.5-1.1,0.8-2.2,0.8-3.3c0-0.3,0.1-0.4,0.4-0.4c0.7,0.1,1.4,0.2,2.1,0.1c2.7-0.1,4.1-1.9,3.6-4.3
	c-0.3-1.5-0.9-2.7-2.4-3.3c-0.3-0.1-0.6-0.4-0.8-0.6c-0.2-0.2-0.4-0.5-0.3-0.8c0.1-0.4,0.5-0.5,0.8-0.6c0.3,0,0.6,0,0.9-0.1
	c2-0.3,2.7-1.6,2.4-3.5c0-0.2-0.1-0.3-0.3-0.1c-1.1,0.9-2.3,1.4-3.7,1.5c-1.1,0.1-1.7,0.7-2,1.7c-0.2,1,0.2,1.7,0.9,2.2
	c0.8,0.6,1.5,1.3,2.2,2c0.5,0.6,0.9,1.2,1,2c0.2,1-0.3,1.8-1.2,2.3c-0.5,0.3-1,0.4-1.6,0.3c-1.8-0.1-3.3-1-4.6-2.2
	c-1.2-1.1-2.5-1.6-4.2-1.7c-1,0-1.9-0.3-2.6-1.1c-1-1.2-2.3-1.9-3.9-1.9c-0.5,0-0.9-0.1-1.2-0.5c-0.8-1.2-2.1-1.8-3.5-2.1
	c-0.3-0.1-0.7-0.2-1-0.3c-0.8-0.3-1.6-0.8-2.4-1.3c-0.6-0.4-1.2-0.6-1.9-0.6c-1.3,0.1-2.5,0.5-3.5,1.4c-0.4,0.4-0.8,0.7-1.3,1.1
	c-2.1,1.5-3.7,3.4-5.2,5.4c-0.8,1-1.3,2.2-1.3,3.5c0,1.1-0.4,2.3-0.8,3.3c-0.2,0.6-0.5,1.2-0.5,1.9c0,0.3-0.1,0.4-0.3,0.6
	c-0.5,0.4-1,1-1.2,1.6c-0.3,0.8-1,1.3-1.7,1.8c-0.1,0.1-0.3,0.2-0.4,0.2c0.2,0.1,0.3,0.1,0.5,0.1c1.1,0,1.8-0.6,2.4-1.4
	c0.4-0.6,0.8-1.2,1.3-1.7c0.2-0.1,0.3-0.4,0.6-0.2c0.2,0.2,0,0.4-0.1,0.5c-0.4,0.5-0.7,1.1-0.9,1.7c-0.2,0.8-0.7,1.2-1.3,1.6
	c-0.4,0.2-0.7,0.5-1.1,0.7c0.1,0.1,0.1,0.1,0.2,0.1c1.4,0.1,2.4-0.4,3.4-1.3c0.5-0.5,0.6-0.6,1.2-0.1c0.6,0.5,1.2,0.7,1.9,0.6
	c0.7-0.1,1.4,0,2.1,0.2c0.7,0.2,1.5,0.5,2.2,0.6c0.4,0,0.6-0.1,0.8-0.5c0.3-0.7,0.2-1.3-0.3-1.8c-0.1-0.1-0.3-0.2-0.2-0.4
	c0.1-0.2,0.3-0.1,0.4-0.1c0.5,0.1,0.6,0,0.4-0.5c0-0.2-0.1-0.3-0.2-0.4c-0.7-0.6-1.2-1.4-1.5-2.3c0,0,0,0,0-0.1
	c0-0.1-0.2-0.2-0.1-0.3c0.1-0.1,0.2-0.1,0.3,0c0.7,0.2,1.4,0.2,2.1,0.4c0.4,0.1,0.9,0.1,1.3,0c0.2,0,0.2-0.1,0.1-0.3
	c-0.2-0.2-0.3-0.5-0.4-0.8C88.4,35,88.3,34,88.7,33.1z M56.5,33c0.2,0.3,0.2,0.5,0.2,0.7c0.2,1-0.1,2-0.7,2.9
	c-0.2,0.3-0.1,0.4,0.2,0.4c0.5,0.1,0.9,0.1,1.4,0c0.6-0.2,1.3-0.2,1.9-0.4c0.1,0,0.2,0,0.2,0c0.1,0.1,0,0.2-0.1,0.3
	c-0.2,0.3-0.4,0.6-0.4,0.9c-0.1,0.4-0.3,0.7-0.6,1c-0.3,0.3-0.6,0.6-0.7,1c-0.1,0.4,0,0.5,0.4,0.4c0.2,0,0.4-0.1,0.5,0.1
	c0.1,0.2-0.1,0.3-0.2,0.4c-0.5,0.5-0.6,1.1-0.3,1.8c0.2,0.4,0.4,0.5,0.8,0.5c0.4,0,0.7-0.1,1.1-0.2c0.9-0.2,1.7-0.7,2.7-0.6
	c1,0.1,1.9-0.1,2.7-0.8c0.3-0.3,0.6-0.2,0.8,0.1c0.5,0.6,1.1,1,1.8,1.3c0.6,0.2,1.2,0.3,2,0.1c-0.5-0.3-0.9-0.5-1.3-0.8
	c-0.4-0.3-0.9-0.6-1-1.1c-0.2-0.8-0.6-1.5-1.1-2.2c-0.1-0.1-0.3-0.3-0.1-0.5c0.2-0.2,0.4,0,0.5,0.1c0.5,0.5,0.9,1,1.3,1.6
	c0.4,0.7,1,1.2,1.8,1.5c0.4,0.1,0.7,0.1,1.2,0c-0.4-0.3-0.7-0.5-1.1-0.7c-0.4-0.3-0.7-0.5-0.9-1c-0.3-0.8-0.8-1.5-1.5-2
	c-0.2-0.2-0.3-0.3-0.3-0.6c0-0.6-0.2-1.1-0.4-1.6c-0.5-1.3-0.8-2.7-1-4c-0.1-0.8-0.3-1.6-0.7-2.3c-0.9-1.5-2.2-2.8-3.3-4.1
	c-1-1.1-2.2-1.9-3.3-2.8c-0.6-0.5-1.1-1-1.8-1.3c-1.6-0.7-3-0.8-4.5,0.3c-0.9,0.7-2,1.1-3.1,1.4c-1.2,0.2-2.3,0.7-3,1.7
	c-0.4,0.6-0.9,0.8-1.5,0.8c-1.4,0-2.7,0.6-3.6,1.6c-0.8,1-1.9,1.3-3.1,1.4c-1.5,0-2.7,0.5-3.8,1.6c-1.3,1.2-2.8,2.1-4.7,2.3
	c-1.6,0.1-2.8-0.9-2.8-2.3c0-0.8,0.3-1.5,0.9-2.2c0.7-0.8,1.6-1.6,2.5-2.2c1.1-0.9,1.2-2.4,0.1-3.2c-0.4-0.4-0.9-0.5-1.5-0.6
	c-1.3-0.2-2.5-0.6-3.5-1.5c-0.2-0.2-0.3-0.2-0.3,0.1c-0.2,1.8,0.4,3.2,2.4,3.5c0.3,0,0.6,0,1,0.1c0.4,0,0.7,0.2,0.8,0.6
	c0.1,0.3-0.1,0.6-0.3,0.8c-0.2,0.2-0.4,0.5-0.7,0.6c-1.5,0.7-2.2,2-2.5,3.5c-0.4,2.2,0.9,3.8,3,4.1c0.9,0.1,1.8,0.1,2.7-0.1
	c0.3,0,0.4,0,0.4,0.3c0,0.3,0,0.6,0,0.9c0.1,0.9,0.3,1.7,0.7,2.5c0.3,0.7,0.2,1-0.4,1.5c-0.7,0.4-1.4,0.8-2.2,0.6
	c-0.3-0.1-0.6,0.1-0.7,0.5c-0.2,0.5-0.4,1.1-0.7,1.6c-0.3,0.5-0.7,1-1.3,1.2c-0.4,0.2-0.7,0.4-0.9,0.8c-0.1,0.2-0.3,0.4-0.5,0.5
	c-0.7,0.3-1.1,1-1,1.7c0,0.2,0.1,0.3,0.2,0.3c0.4,0,0.8,0.1,1.2,0.2c0.5,0,0.8-0.1,1.1-0.5c0.2-0.4,0.5-0.8,0.9-1.1
	c0.2-0.2,0.5-0.4,0.8-0.3c0.8,0.2,1.6,0,2.2-0.6c0.3-0.3,0.6-0.5,1-0.7c0.9-0.5,1.8-0.4,2.8-0.2c0.8,0.1,1.6,0.1,2.4-0.4
	c0.4-0.3,0.9-0.4,1.3-0.6c0.3-0.1,0.5-0.2,0.6-0.5c0.2-0.4,0.3-0.9,0.5-1.3c0-0.1,0.1-0.2-0.1-0.2c-0.3,0-0.6-0.1-0.9,0.2
	c-1.1,1.6-2.7,2.1-4.6,1.8c-1.1-0.2-2.2,0-3.2,0.6c-0.6,0.3-1,0.7-1.5,1.2c-0.1,0.1-0.3,0.3-0.5,0.1c-0.1-0.1,0.1-0.3,0.2-0.4
	c1.2-1.4,2.7-2.2,4.6-2.1c1.7,0.1,3.2-0.6,4.3-1.8c0.6-0.6,1-1.3,0.9-2.3c-0.1-0.8,0-1.5,0.3-2.2c0.1-0.2,0.1-0.4,0.3-0.4
	c0.3,0,0.1,0.3,0.2,0.5c0,0.2,0,0.3-0.1,0.5c-0.1,0.7-0.1,1.4,0,2.1c0.1,0.6,0.4,1,1,1.1c0.5,0.1,1,0.1,1.4,0c1-0.2,2-0.2,3,0
	c0.9,0.2,1.8,0.2,2.7,0.2c0.4,0,0.5-0.1,0.3-0.5c-0.1-0.2-0.2-0.5-0.2-0.8c0-0.2,0-0.5,0.3-0.6C49,36.5,49,36.8,49,37
	c0.5,1.2,1.3,2.1,2.5,2.6c0.9,0.4,1.3,1.2,1.4,2.2c0,0.2,0,0.4-0.2,0.5c-0.7,0.4-1.4,0.7-2.2,0.9c-0.5,0.1-0.8,0-1-0.5
	c-0.3-0.5-0.6-1.1-1-1.5c-0.2-0.3-0.5-0.5-0.9-0.4c-0.5,0-1,0.1-1.5,0.1c-0.4,0-0.5,0.3-0.3,0.6c0.2,0.4,0.5,0.7,0.7,1.1
	c0.2,0.3,0.4,0.5,0.8,0.4c0.3-0.1,0.6,0.1,0.8,0.4c0.1,0.2,0.2,0.4,0.3,0.6c0.4,0.8,1.2,1.3,2,1c1.1-0.4,2.2-0.8,3.2-1.3
	c0.5-0.3,1-0.4,1.5-0.3c0.4,0.1,0.7-0.1,1-0.4c0.3-0.4,0.6-0.9,0.8-1.3c0.3-0.5,0.3-1,0-1.5c-0.4-0.6-0.7-1.3-1-1.9
	c-0.1-0.2-0.2-0.4-0.4-0.6c-0.3-0.3-0.6-0.3-0.9-0.1c-0.2,0.1,0,0.4,0.1,0.6c0.2,0.7,0.6,1.3,1,1.9c0.4,0.8,0.1,2.1-0.7,2.6
	c-0.1,0.1-0.2,0.2-0.4,0.1c-0.1-0.1,0-0.2,0-0.4c0.1-0.2,0.2-0.4,0.2-0.7c0.1-0.4,0.2-0.8,0-1.2c-0.5-0.7-0.9-1.5-1.3-2.3
	c-0.5-0.9-0.5-0.9,0.5-1.2c0.9-0.2,1.5-0.7,1.8-1.6C56.2,34.5,56.4,33.8,56.5,33z M23.6,45.6c0.3,0.1,0.4-0.1,0.5-0.4
	c0.1-0.4,0.2-0.8,0.4-1.2c0.1-0.4-0.1-0.9-0.6-1c-0.3-0.1-0.6,0.1-0.7,0.6c-0.1,0.4-0.1,0.7-0.2,1.1C22.7,45.4,22.9,45.6,23.6,45.6z
	 M121.7,45.6c0.7,0,0.9-0.3,0.6-0.9c-0.2-0.4-0.2-0.7-0.3-1.1c-0.1-0.5-0.3-0.7-0.7-0.6c-0.4,0.1-0.7,0.6-0.5,1
	c0.1,0.4,0.3,0.8,0.4,1.3C121.3,45.6,121.4,45.7,121.7,45.6z M120.1,42.9c0.3,0,0.6-0.2,0.7-0.5c0.1-0.3-0.2-0.4-0.4-0.5
	c-0.3-0.2-0.5-0.4-0.7-0.5c-0.2-0.1-0.4-0.2-0.6-0.3c-0.2,0-0.3,0-0.4,0.2c-0.1,0.1,0,0.3,0.1,0.4c0.2,0.4,0.5,0.7,0.9,1
	C119.7,42.8,119.9,42.9,120.1,42.9z M26.2,41.1c-0.2,0-0.4,0.1-0.6,0.2c-0.3,0.2-0.6,0.4-0.9,0.6c-0.5,0.3-0.4,0.6,0,0.9
	c0.3,0.2,0.6,0.2,0.9-0.1c0.4-0.3,0.7-0.7,0.9-1.1C26.8,41.3,26.6,41.1,26.2,41.1z"/>
<path class="st2" d="M76.3,71.6c0-4.3,0-8.6,0-12.8c0-0.6,0-0.6,0.6-0.6c3.1,0,6.2,0,9.3,0c2,0,3.8,0.6,5.3,2c1.7,1.5,2.2,3.5,2,5.7
	c-0.2,1.7-0.9,3.1-2.1,4.3c-0.2,0.2-0.1,0.3,0.1,0.4c0.9,0.4,1.7,0.8,2.4,1.5c0.9,0.9,1.4,2,1.7,3.2c0.3,1.8,0.4,3.5-0.3,5.2
	c-0.7,1.7-1.9,2.8-3.5,3.6c-1.4,0.7-3,1-4.5,1c-3.4,0-6.9,0-10.3,0c-0.6,0-0.6,0-0.6-0.6C76.3,80.2,76.3,75.9,76.3,71.6
	C76.3,71.6,76.3,71.6,76.3,71.6z M81.8,71.6C81.8,71.6,81.8,71.6,81.8,71.6c0,2.7,0,5.5,0,8.2c0,0.4,0.1,0.6,0.6,0.5
	c1.3,0,2.5,0,3.8,0c0.8,0,1.5-0.2,2.1-0.5c1.7-0.8,2.5-2.8,1.7-4.5c-0.5-1.3-1.6-1.9-2.9-2c-1-0.1-2.1,0-3.1,0
	c-0.3,0-0.5-0.1-0.5-0.4c0-1.3,0-2.6,0-3.9c0-0.3,0.1-0.4,0.4-0.4c0.5,0,1,0,1.5,0c0.5,0,1-0.1,1.5-0.4c1-0.7,1.1-1.7,1.1-2.8
	c0-0.9-0.4-1.5-1.1-2c-0.5-0.3-1.2-0.5-1.8-0.5c-0.9,0-1.8,0-2.7,0c-0.5,0-0.6,0.2-0.6,0.6C81.8,66.2,81.8,68.9,81.8,71.6z"/>
<path class="st3" d="M10.6,71.4c0-4.3,0-8.7,0-13c0-0.7,0-0.7,0.7-0.7c2.4,0,4.8,0,7.2,0c1.8,0,3.6,0.3,5.3,1c2.5,1,4,2.9,4.5,5.6
	c0.3,1.6,0.3,3.2-0.2,4.8c-0.6,2.2-2.1,3.6-4.2,4.4c-0.4,0.2-0.8,0.3-1.3,0.4c-0.4,0.1-0.5,0.1-0.2,0.5c0.9,1.3,1.7,2.5,2.6,3.8
	c1.5,2.2,3,4.4,4.6,6.6c0.1,0.1,0.2,0.2,0.1,0.3c-0.1,0.1-0.2,0.1-0.3,0.1c-1.9,0-3.7,0-5.6,0c-0.3,0-0.5-0.1-0.6-0.4
	c-1.4-2.3-2.9-4.5-4.3-6.8c0,0,0-0.1,0-0.1c-0.9-1-1.1-2.2-1-3.6c0.1-1.2,0-2.5,0-3.7c0-0.4,0.1-0.6,0.5-0.6c0.8,0,1.6,0,2.3-0.3
	c0.8-0.3,1.5-0.9,1.8-1.7c0.5-1.2,0.4-3.1-0.8-4.1c-0.8-0.6-1.7-0.9-2.6-0.9c-0.8,0-1.6,0-2.4,0c-0.4,0-0.5,0.1-0.5,0.5
	c0,2.3,0,4.6,0,6.9c0,4.8,0,9.5,0,14.3c0,0.6,0,0.6-0.6,0.6c-1.4,0-2.9,0-4.3,0c-0.6,0-0.6,0-0.6-0.6C10.6,80.1,10.6,75.7,10.6,71.4
	z"/>
<path class="st3" d="M67.6,71.1c0,4.5,0,9,0,13.5c0,0.6,0,0.6-0.6,0.6c-1.3,0-2.7,0-4,0c-0.6,0-0.6,0-0.6-0.6c0-0.3,0-0.6,0-0.9
	c0-0.1,0.1-0.3-0.1-0.4c-0.2-0.1-0.2,0.1-0.3,0.2c-1.8,1.5-3.8,2.2-6.1,1.9c-3.3-0.4-5.4-2.3-6.4-5.5c-0.7-2.2-0.7-4.5,0-6.7
	c0.9-2.7,2.8-4.3,5.4-5c2.2-0.6,4.3-0.1,6.3,1c0.2,0.1,0.5,0.3,0.7,0.4c0.1,0.1,0.2,0.2,0.3,0.1c0.1-0.1,0.1-0.2,0.1-0.4
	c0-3.8,0-7.5,0-11.3c0-0.9,0-0.9,0.9-0.9c1.3,0,2.6,0,3.9,0c0.4,0,0.6,0.1,0.6,0.6C67.6,62.1,67.6,66.6,67.6,71.1
	C67.6,71.1,67.6,71.1,67.6,71.1z M62.5,76.5c0-1.6-0.7-2.9-2.2-3.7c-2.3-1.2-4.7,0.1-5.3,1.9c-0.5,1.3-0.5,2.7,0.1,4
	c0.4,1,1.1,1.6,2.1,1.9C59.4,81.3,62.6,80,62.5,76.5z"/>
<path class="st2" d="M41.1,77.9c-1.8,0-3.6,0-5.4,0c-0.6,0-0.7,0.1-0.6,0.7c0.3,1.5,1.5,2.6,3,2.9c1.6,0.3,2.9-0.3,3.9-1.6
	c0.3-0.3,0.4-0.5,0.8-0.2c1.1,0.6,2.2,1.1,3.3,1.7c0.3,0.1,0.4,0.3,0.1,0.6c-2.2,3-5.1,4.1-8.7,3.7c-1.6-0.2-3.1-0.5-4.5-1.4
	c-1.8-1.2-2.8-2.9-3.3-4.9c-0.7-3.1-0.2-5.9,1.7-8.4c1.2-1.6,2.8-2.4,4.7-2.8c2.1-0.4,4.2-0.3,6.2,0.5c2,0.8,3.2,2.4,4,4.4
	c0.5,1.4,0.6,2.9,0.6,4.5c0,0.4-0.1,0.5-0.5,0.5C44.8,77.9,42.9,77.9,41.1,77.9z M38.5,74.7C38.5,74.7,38.5,74.7,38.5,74.7
	c1,0,1.9,0,2.9,0c0.3,0,0.4-0.1,0.3-0.4c-0.2-1.1-0.7-2-1.7-2.4c-2-0.8-4-0.1-4.7,2.3c-0.1,0.3,0,0.5,0.4,0.5
	C36.6,74.7,37.5,74.7,38.5,74.7z"/>
<path class="st2" d="M114.1,74.4c0,1.5,0,2.9,0,4.4c0,3.8-2.3,6.5-6.2,7.1c-2,0.3-4,0.2-5.9-0.5c-2.7-0.9-4.3-3.1-4.5-5.9
	c-0.2-1.8,0-3.7-0.1-5.5c0-1.6,0-3.2,0-4.8c0-0.4,0.1-0.5,0.5-0.5c1.5,0,2.9,0,4.4,0c0.4,0,0.4,0.1,0.4,0.5c0,2.9,0,5.8,0,8.7
	c0,0.9,0.3,1.7,0.9,2.4c0.8,0.9,1.8,1.1,3,0.9c1.1-0.2,1.7-0.9,2-2c0.1-0.4,0.2-0.8,0.2-1.3c0-2.9,0-5.7,0-8.6
	c0-0.4,0.1-0.6,0.6-0.6c1.4,0,2.8,0,4.3,0c0.4,0,0.5,0.1,0.5,0.5C114.1,71,114.1,72.7,114.1,74.4z"/>
<path class="st2" d="M117.1,71.1c0-4.5,0-9,0-13.5c0-0.4,0.1-0.5,0.5-0.5c1.4,0,2.8,0,4.2,0c0.4,0,0.6,0.1,0.6,0.5
	c0,2.8,0,5.6,0,8.4c0,6.2,0,12.4,0,18.6c0,0.4-0.1,0.6-0.5,0.5c-1.4,0-2.8,0-4.2,0c-0.6,0-0.6,0-0.6-0.6
	C117.1,80.1,117.1,75.6,117.1,71.1C117.1,71.1,117.1,71.1,117.1,71.1z"/>
<path class="st3" d="M131.2,71.1c0,4.5,0,9,0,13.5c0,0.4-0.1,0.5-0.5,0.5c-1.4,0-2.8,0-4.2,0c-0.4,0-0.5-0.1-0.5-0.5
	c0-8.8,0-17.5,0-26.3c0-0.3,0-0.6,0-0.9c0-0.2,0.1-0.3,0.4-0.3c1.5,0,3,0,4.5,0c0.2,0,0.3,0.1,0.3,0.3c0,0.3,0,0.5,0,0.8
	C131.2,62.5,131.2,66.8,131.2,71.1C131.2,71.1,131.2,71.1,131.2,71.1z"/>
<path class="st4" d="M133.7,60.1c0-1.8,1.4-3.3,3.3-3.4c1.7,0,3.2,1.5,3.3,3.2c0,1.9-1.4,3.4-3.3,3.4
	C135.2,63.3,133.7,61.9,133.7,60.1z M134.3,60c0,1.6,1.2,2.8,2.8,2.8c1.5,0,2.7-1.2,2.7-2.7c0-1.5-1.2-2.8-2.7-2.8
	C135.4,57.3,134.2,58.4,134.3,60z"/>
<path class="st5" d="M88.7,33.1c-0.4,1-0.3,1.9,0.1,2.8c0.1,0.3,0.3,0.5,0.4,0.8c0.1,0.2,0.1,0.3-0.1,0.3c-0.4,0.1-0.9,0.2-1.3,0
	c-0.7-0.2-1.4-0.2-2.1-0.4c-0.1,0-0.2-0.1-0.3,0c-0.1,0.1,0,0.2,0.1,0.3c0,0,0,0,0,0.1c0.3,0.9,0.8,1.7,1.5,2.3
	c0.1,0.1,0.2,0.3,0.2,0.4c0.1,0.5,0,0.6-0.4,0.5c-0.2,0-0.3-0.1-0.4,0.1c-0.1,0.2,0.1,0.3,0.2,0.4c0.5,0.5,0.6,1.2,0.3,1.8
	c-0.1,0.4-0.4,0.5-0.8,0.5c-0.8-0.1-1.5-0.3-2.2-0.6c-0.7-0.2-1.4-0.3-2.1-0.2c-0.7,0.1-1.4-0.2-1.9-0.6c-0.6-0.5-0.7-0.5-1.2,0.1
	c-0.9,1-2,1.5-3.4,1.3c-0.1,0-0.1,0-0.2-0.1c0.4-0.2,0.8-0.4,1.1-0.7c0.6-0.4,1.1-0.9,1.3-1.6c0.2-0.6,0.5-1.2,0.9-1.7
	c0.1-0.2,0.3-0.4,0.1-0.5c-0.2-0.2-0.4,0-0.6,0.2c-0.5,0.5-0.9,1.1-1.3,1.7c-0.5,0.9-1.3,1.5-2.4,1.4c-0.1,0-0.3,0-0.5-0.1
	c0.1-0.1,0.3-0.2,0.4-0.2c0.7-0.4,1.4-0.9,1.7-1.8c0.3-0.6,0.7-1.2,1.2-1.6c0.2-0.2,0.3-0.3,0.3-0.6c0.1-0.7,0.3-1.3,0.5-1.9
	c0.4-1.1,0.7-2.2,0.8-3.3c0-1.4,0.5-2.5,1.3-3.5c1.5-2,3.2-3.9,5.2-5.4c0.5-0.3,0.9-0.7,1.3-1.1c1-0.9,2.2-1.4,3.5-1.4
	c0.7,0,1.3,0.2,1.9,0.6c0.8,0.5,1.5,1,2.4,1.3c0.3,0.1,0.6,0.2,1,0.3c1.4,0.3,2.6,0.8,3.5,2.1c0.3,0.4,0.8,0.5,1.2,0.5
	c1.6,0,2.9,0.7,3.9,1.9c0.7,0.8,1.6,1.1,2.6,1.1c1.6,0,3,0.5,4.2,1.7c1.3,1.2,2.8,2.1,4.6,2.2c0.6,0,1.1-0.1,1.6-0.3
	c0.9-0.5,1.3-1.3,1.2-2.3c-0.1-0.8-0.4-1.4-1-2c-0.7-0.7-1.4-1.4-2.2-2c-0.7-0.6-1.2-1.3-0.9-2.2c0.3-1,0.9-1.6,2-1.7
	c1.4-0.2,2.6-0.6,3.7-1.5c0.2-0.2,0.3-0.1,0.3,0.1c0.2,1.8-0.5,3.2-2.4,3.5c-0.3,0-0.6,0-0.9,0.1c-0.4,0-0.7,0.2-0.8,0.6
	c-0.1,0.3,0.1,0.6,0.3,0.8c0.2,0.3,0.5,0.5,0.8,0.6c1.4,0.7,2.1,1.9,2.4,3.3c0.5,2.5-1,4.2-3.6,4.3c-0.7,0-1.4,0-2.1-0.1
	c-0.3-0.1-0.4,0-0.4,0.4c0,1.2-0.2,2.3-0.8,3.3c-0.4,0.7-0.2,1.1,0.5,1.5c0.7,0.4,1.3,0.8,2.2,0.6c0.4-0.1,0.6,0.1,0.8,0.5
	c0.2,0.6,0.5,1.2,0.8,1.7c0.3,0.5,0.7,0.9,1.3,1.1c0.4,0.1,0.6,0.4,0.8,0.7c0.1,0.3,0.4,0.5,0.7,0.6c0.5,0.2,1,1.2,0.9,1.8
	c0,0.2-0.1,0.2-0.3,0.2c-0.3,0-0.7,0.1-1,0.1c-0.5,0.1-1-0.1-1.3-0.6c-0.2-0.3-0.4-0.5-0.6-0.8c-0.3-0.4-0.7-0.6-1.3-0.5
	c-0.8,0.2-1.4-0.1-2-0.6c-0.9-0.9-2-1.3-3.3-1c-1.1,0.2-2.1,0.2-3.1-0.5c-0.1,0-0.1-0.1-0.2-0.1c-1.2-0.2-1.6-1.2-2-2.2
	c-0.1-0.2,0-0.3,0.2-0.3c0.3,0,0.6,0,0.9,0.4c1.1,1.5,2.7,2,4.5,1.7c1.8-0.3,3.2,0.3,4.5,1.6c0.2,0.2,0.4,0.6,0.7,0.4
	c0.2-0.2-0.2-0.4-0.3-0.6c-1.2-1.3-2.7-1.9-4.6-1.9c-2.3,0-3.9-1-5-3c-0.1-0.2-0.1-0.4-0.1-0.6c0-0.6,0-1.2-0.1-1.8
	c0-0.3-0.1-0.6-0.2-0.8c-0.1-0.2-0.1-0.5-0.4-0.5c-0.2,0.1-0.1,0.4-0.1,0.5c0.1,0.8,0.2,1.5,0.1,2.3c-0.2,1-0.7,1.4-1.7,1.5
	c-0.4,0-0.7-0.1-1.1-0.2c-1.3-0.3-2.5,0-3.8,0.2c-0.6,0.1-1.1,0-1.7,0.1c-0.4,0-0.4-0.2-0.3-0.4c0.1-0.3,0.2-0.6,0.2-1
	c0-0.2-0.1-0.4-0.3-0.4c-0.2,0-0.2,0.2-0.3,0.3c-0.5,1.2-1.3,2.1-2.5,2.7c-1,0.4-1.3,1.3-1.4,2.3c0,0.2,0.1,0.3,0.2,0.4
	c0.7,0.3,1.4,0.7,2.1,0.9c0.6,0.2,0.8,0,1.1-0.5c0.3-0.6,0.6-1.2,1.1-1.6c0.2-0.2,0.5-0.3,0.8-0.3c0.5,0,0.9,0.1,1.4,0.1
	c0.4,0,0.5,0.3,0.3,0.6c-0.3,0.4-0.6,0.8-0.8,1.3c-0.1,0.2-0.3,0.3-0.5,0.3c-0.6,0-0.8,0.1-1.1,0.7c-0.1,0.3-0.3,0.6-0.6,0.9
	c-0.5,0.5-1,0.5-1.6,0.3c-1.2-0.4-2.4-0.9-3.5-1.5c-0.3-0.2-0.7-0.2-1-0.1c-0.5,0.1-0.9-0.1-1.2-0.6c-0.2-0.4-0.5-0.7-0.7-1
	c-0.4-0.6-0.4-1.2,0.1-1.8c0.3-0.4,0.5-0.9,0.7-1.4c0.1-0.3,0.2-0.5,0.4-0.8c0.2-0.4,0.6-0.3,1-0.3c0.2,0,0.1,0.2,0.1,0.4
	c-0.2,0.6-0.5,1.1-0.8,1.7c-0.2,0.3-0.3,0.5-0.4,0.8c-0.2,0.4-0.2,0.8,0.1,1.1c0.3,0.3,0.3,0.8,0.7,1.1c0.1,0.1,0.2,0.2,0.4,0.1
	c0.1-0.1,0-0.2-0.1-0.4c-0.1-0.3-0.2-0.5-0.3-0.8c-0.1-0.5-0.1-0.9,0.3-1.3c0.6-0.8,0.9-1.7,1.4-2.5c0.2-0.2,0-0.4-0.2-0.5
	c-0.3-0.1-0.5-0.1-0.8-0.2c-0.8-0.2-1.3-0.7-1.6-1.5c-0.2-0.7-0.4-1.3-0.5-2C88.8,33.3,88.8,33.1,88.7,33.1z M79.6,35.2
	c0,0.3,0,0.7,0.2,0.9c0.1,0.1,0.2,0.3,0.3,0.2c0.1,0,0.1-0.2,0.1-0.4c0-0.4,0-0.9,0.3-1.2c0.3-0.3,0.6-0.6,0.8-0.9
	c0.2-0.3,0.4-0.2,0.5,0.1c0.1,0.3,0.3,0.5,0.6,0.7c0.1,0.1,0.2,0.1,0.3,0c0.1-0.1,0-0.2,0-0.2c-0.3-0.6-0.6-1.2-0.9-1.8
	c-0.2-0.4-0.6-0.4-0.9,0c-0.3,0.4-0.6,0.9-1,1.3C79.7,34.3,79.6,34.8,79.6,35.2z M88.5,29.4c0.1-0.9,0.3-1.7,0.7-2.4
	c0.1-0.2,0.2-0.3,0.3-0.5c0.1-0.3,0-0.6-0.3-0.8c-0.3-0.2-0.4,0.2-0.5,0.4c-0.5,0.8-0.5,1.8-0.4,2.7C88.3,29,88.3,29.2,88.5,29.4z
	 M82.7,40.7c0.4,0,0.5-0.1,0.4-0.5c-0.2-0.4-0.5-0.6-0.8-0.8c-0.2-0.1-0.4-0.1-0.5,0c-0.2,0.2-0.2,0.4-0.1,0.6
	C81.6,40.5,81.9,40.7,82.7,40.7z"/>
<path class="st5" d="M56.5,33c-0.1,0.8-0.4,1.6-0.6,2.3c-0.3,0.9-0.9,1.4-1.8,1.6c-1.1,0.2-1,0.2-0.5,1.2c0.4,0.8,0.8,1.5,1.3,2.3
	c0.2,0.4,0.1,0.8,0,1.2c-0.1,0.2-0.2,0.4-0.2,0.7c0,0.1-0.2,0.3,0,0.4c0.1,0.1,0.3,0,0.4-0.1c0.8-0.5,1.1-1.8,0.7-2.6
	c-0.3-0.6-0.7-1.2-1-1.9c-0.1-0.2-0.3-0.4-0.1-0.6c0.3-0.1,0.6-0.2,0.9,0.1c0.2,0.2,0.3,0.4,0.4,0.6c0.3,0.7,0.5,1.3,1,1.9
	c0.3,0.5,0.3,1,0,1.5c-0.3,0.4-0.6,0.9-0.8,1.3c-0.2,0.4-0.6,0.5-1,0.4c-0.6-0.1-1,0.1-1.5,0.3c-1,0.5-2.1,0.9-3.2,1.3
	c-0.8,0.3-1.6-0.2-2-1c-0.1-0.2-0.2-0.4-0.3-0.6c-0.2-0.3-0.4-0.5-0.8-0.4c-0.4,0.1-0.6-0.1-0.8-0.4c-0.2-0.4-0.5-0.7-0.7-1.1
	c-0.2-0.3-0.1-0.6,0.3-0.6c0.5-0.1,1-0.1,1.5-0.1c0.4,0,0.6,0.2,0.9,0.4c0.4,0.4,0.7,1,1,1.5c0.3,0.5,0.5,0.6,1,0.5
	c0.8-0.2,1.5-0.5,2.2-0.9c0.2-0.1,0.3-0.3,0.2-0.5c-0.1-1-0.5-1.8-1.4-2.2c-1.2-0.5-2-1.4-2.5-2.6c-0.1-0.2-0.1-0.5-0.4-0.4
	c-0.2,0.1-0.3,0.3-0.3,0.6c0,0.3,0,0.5,0.2,0.8c0.2,0.4,0,0.5-0.3,0.5c-0.9,0-1.8,0-2.7-0.2c-1-0.2-2-0.2-3,0c-0.5,0.1-1,0.2-1.4,0
	c-0.6-0.2-0.9-0.5-1-1.1c-0.1-0.7-0.1-1.4,0-2.1c0-0.2,0.1-0.3,0.1-0.5c0-0.2,0.1-0.4-0.2-0.5c-0.2,0-0.3,0.2-0.3,0.4
	c-0.2,0.7-0.4,1.5-0.3,2.2c0.1,0.9-0.3,1.6-0.9,2.3c-1.2,1.3-2.6,1.9-4.3,1.8c-1.9-0.1-3.4,0.7-4.6,2.1c-0.1,0.1-0.3,0.3-0.2,0.4
	c0.1,0.2,0.3,0,0.5-0.1c0.4-0.5,0.9-0.9,1.5-1.2c1-0.6,2.1-0.8,3.2-0.6c1.9,0.3,3.5-0.2,4.6-1.8c0.2-0.3,0.6-0.2,0.9-0.2
	c0.2,0,0.1,0.1,0.1,0.2c-0.2,0.4-0.4,0.9-0.5,1.3c-0.1,0.3-0.3,0.4-0.6,0.5c-0.4,0.2-0.9,0.4-1.3,0.6c-0.7,0.5-1.5,0.5-2.4,0.4
	c-1-0.2-1.9-0.2-2.8,0.2c-0.4,0.2-0.7,0.4-1,0.7c-0.6,0.6-1.4,0.8-2.2,0.6c-0.4-0.1-0.6,0-0.8,0.3c-0.4,0.3-0.6,0.7-0.9,1.1
	c-0.3,0.4-0.6,0.6-1.1,0.5c-0.4,0-0.8-0.2-1.2-0.2c-0.2,0-0.2-0.1-0.2-0.3c-0.1-0.7,0.3-1.4,1-1.7c0.2-0.1,0.4-0.3,0.5-0.5
	c0.2-0.4,0.5-0.6,0.9-0.8c0.6-0.2,1-0.7,1.3-1.2c0.3-0.5,0.6-1,0.7-1.6c0.1-0.4,0.4-0.5,0.7-0.5c0.9,0.2,1.5-0.2,2.2-0.6
	c0.6-0.4,0.8-0.8,0.4-1.5c-0.4-0.8-0.6-1.6-0.7-2.5c0-0.3-0.1-0.6,0-0.9c0-0.3-0.1-0.4-0.4-0.3c-0.9,0.1-1.8,0.2-2.7,0.1
	c-2.2-0.3-3.4-2-3-4.1c0.3-1.5,1-2.8,2.5-3.5c0.3-0.1,0.5-0.4,0.7-0.6c0.2-0.2,0.4-0.5,0.3-0.8c-0.1-0.4-0.5-0.5-0.8-0.6
	c-0.3,0-0.6,0-1-0.1c-1.9-0.3-2.6-1.7-2.4-3.5c0-0.3,0.1-0.3,0.3-0.1c1,0.9,2.2,1.3,3.5,1.5c0.5,0.1,1,0.2,1.5,0.6
	c1,0.9,1,2.4-0.1,3.2c-0.9,0.7-1.7,1.4-2.5,2.2c-0.5,0.6-0.8,1.3-0.9,2.2c-0.1,1.4,1.2,2.5,2.8,2.3c1.9-0.2,3.4-1,4.7-2.3
	c1.1-1,2.4-1.5,3.8-1.6c1.2,0,2.3-0.4,3.1-1.4c0.9-1.1,2.1-1.6,3.6-1.6c0.6,0,1.1-0.2,1.5-0.8c0.7-1,1.8-1.5,3-1.7
	c1.2-0.2,2.2-0.7,3.1-1.4c1.5-1.1,2.9-1,4.5-0.3c0.7,0.3,1.3,0.8,1.8,1.3c1.1,0.9,2.3,1.7,3.3,2.8c1.1,1.3,2.4,2.5,3.3,4.1
	c0.4,0.7,0.7,1.5,0.7,2.3c0.1,1.4,0.4,2.7,1,4c0.2,0.5,0.4,1,0.4,1.6c0,0.2,0.1,0.4,0.3,0.6c0.7,0.6,1.1,1.2,1.5,2
	c0.2,0.4,0.5,0.7,0.9,1c0.3,0.2,0.6,0.4,1.1,0.7c-0.4,0.1-0.8,0.1-1.2,0c-0.8-0.2-1.4-0.7-1.8-1.5c-0.3-0.6-0.8-1.1-1.3-1.6
	c-0.1-0.1-0.3-0.3-0.5-0.1c-0.2,0.2,0,0.4,0.1,0.5c0.5,0.7,0.9,1.4,1.1,2.2c0.1,0.5,0.6,0.8,1,1.1c0.4,0.3,0.8,0.5,1.3,0.8
	c-0.7,0.2-1.3,0.1-2-0.1c-0.7-0.3-1.3-0.7-1.8-1.3c-0.3-0.3-0.6-0.4-0.8-0.1C64.9,42,64,42.2,63,42.1c-1-0.1-1.8,0.4-2.7,0.6
	c-0.4,0.1-0.7,0.2-1.1,0.2c-0.4,0.1-0.6-0.1-0.8-0.5c-0.3-0.7-0.2-1.3,0.3-1.8c0.1-0.1,0.3-0.2,0.2-0.4c-0.1-0.2-0.3-0.1-0.5-0.1
	c-0.4,0.1-0.5,0-0.4-0.4c0.1-0.4,0.4-0.8,0.7-1c0.3-0.3,0.6-0.6,0.6-1c0.1-0.3,0.3-0.6,0.4-0.9c0-0.1,0.1-0.2,0.1-0.3
	c0,0-0.2,0-0.2,0c-0.6,0.1-1.3,0.2-1.9,0.4c-0.5,0.1-0.9,0.1-1.4,0c-0.3-0.1-0.4-0.2-0.2-0.4c0.6-0.9,0.8-1.8,0.7-2.9
	C56.7,33.4,56.7,33.2,56.5,33z M65.7,35.2c0-0.4,0-0.8-0.3-1.1c-0.4-0.5-0.7-0.9-1.1-1.4c-0.3-0.4-0.7-0.4-0.9,0
	c-0.3,0.5-0.6,1.1-0.8,1.7c0,0.1-0.1,0.2,0,0.3c0.1,0.1,0.2,0,0.3-0.1c0.3-0.2,0.4-0.5,0.6-0.7c0.1-0.2,0.2-0.2,0.4-0.1
	c0.6,0.7,1.4,1.2,1.2,2.3c0,0.1,0,0.2,0.1,0.2c0.1,0,0.2-0.1,0.3-0.1C65.7,36,65.7,35.6,65.7,35.2z M56.8,29.4
	c0.3-1.2,0.5-2.3-0.2-3.4c-0.1-0.2-0.2-0.4-0.5-0.3c-0.2,0.1-0.3,0.3-0.3,0.5c-0.1,0.2,0,0.4,0.2,0.6c0.3,0.4,0.5,0.9,0.6,1.4
	C56.7,28.6,56.7,29,56.8,29.4z M62.7,40.7c0.8,0,1.2-0.4,1.2-1c0-0.3-0.2-0.4-0.5-0.4c-0.5,0.1-0.9,0.4-1.1,0.8
	C62.1,40.6,62.2,40.7,62.7,40.7z"/>
<path class="st6" d="M23.6,45.6c-0.8,0-0.9-0.3-0.6-0.9c0.2-0.3,0.2-0.7,0.2-1.1c0.1-0.5,0.3-0.7,0.7-0.6c0.4,0.1,0.7,0.6,0.6,1
	c-0.1,0.4-0.3,0.8-0.4,1.2C24,45.6,23.9,45.7,23.6,45.6z"/>
<path class="st6" d="M121.7,45.6c-0.3,0.1-0.4-0.1-0.5-0.4c-0.1-0.4-0.2-0.9-0.4-1.3c-0.1-0.4,0.1-0.8,0.5-1
	c0.3-0.1,0.6,0.1,0.7,0.6c0.1,0.4,0.1,0.8,0.3,1.1C122.6,45.4,122.4,45.6,121.7,45.6z"/>
<path class="st6" d="M120.1,42.9c-0.2,0-0.4-0.1-0.5-0.2c-0.3-0.3-0.6-0.6-0.9-1c-0.1-0.1-0.2-0.3-0.1-0.4c0.1-0.2,0.3-0.2,0.4-0.2
	c0.2,0,0.4,0.1,0.6,0.3c0.2,0.2,0.5,0.4,0.7,0.5c0.2,0.1,0.5,0.2,0.4,0.5C120.7,42.7,120.4,42.9,120.1,42.9z"/>
<path class="st6" d="M26.2,41.1c0.4,0,0.6,0.2,0.4,0.6c-0.2,0.4-0.6,0.8-0.9,1.1c-0.3,0.2-0.6,0.2-0.9,0.1c-0.5-0.3-0.5-0.6,0-0.9
	c0.3-0.2,0.6-0.4,0.9-0.6C25.8,41.2,26,41.1,26.2,41.1z"/>
<path class="st7" d="M79.6,35.2c0-0.5,0.1-0.9,0.5-1.3c0.4-0.4,0.7-0.8,1-1.3c0.3-0.4,0.6-0.4,0.9,0c0.3,0.6,0.6,1.2,0.9,1.8
	c0,0.1,0.1,0.2,0,0.2c-0.1,0.1-0.2,0-0.3,0c-0.3-0.2-0.4-0.4-0.6-0.7c-0.1-0.3-0.3-0.3-0.5-0.1c-0.3,0.3-0.5,0.6-0.8,0.9
	c-0.3,0.3-0.3,0.8-0.3,1.2c0,0.1,0,0.3-0.1,0.4c-0.2,0-0.3-0.1-0.3-0.2C79.6,35.9,79.6,35.6,79.6,35.2z"/>
<path class="st7" d="M88.5,29.4c-0.2-0.2-0.2-0.4-0.2-0.6c-0.1-0.9-0.1-1.9,0.4-2.7c0.1-0.2,0.2-0.5,0.5-0.4
	c0.3,0.1,0.4,0.5,0.3,0.8c-0.1,0.2-0.2,0.3-0.3,0.5C88.8,27.7,88.6,28.5,88.5,29.4z"/>
<path class="st7" d="M82.7,40.7c-0.8,0-1.1-0.2-1.2-0.7c0-0.2,0-0.4,0.1-0.6c0.2-0.1,0.4-0.1,0.5,0c0.4,0.2,0.7,0.4,0.8,0.8
	C83.2,40.6,83.1,40.7,82.7,40.7z"/>
<path class="st7" d="M65.7,35.2c0,0.4,0,0.8-0.3,1.1c-0.1,0.1-0.1,0.2-0.3,0.1c-0.1,0-0.1-0.1-0.1-0.2c0.2-1.1-0.6-1.6-1.2-2.3
	c-0.2-0.2-0.3-0.1-0.4,0.1c-0.2,0.3-0.3,0.5-0.6,0.7c-0.1,0.1-0.2,0.2-0.3,0.1c-0.1-0.1,0-0.2,0-0.3c0.3-0.6,0.5-1.1,0.8-1.7
	c0.2-0.4,0.6-0.4,0.9,0c0.4,0.5,0.7,1,1.1,1.4C65.7,34.4,65.7,34.8,65.7,35.2z"/>
<path class="st7" d="M56.8,29.4c-0.1-0.4-0.1-0.8-0.2-1.2c-0.1-0.5-0.3-1-0.6-1.4c-0.1-0.2-0.2-0.4-0.2-0.6c0.1-0.2,0.1-0.4,0.3-0.5
	c0.3-0.1,0.4,0.2,0.5,0.3C57.2,27.1,57.1,28.2,56.8,29.4z"/>
<path class="st7" d="M62.7,40.7c-0.4,0-0.5-0.1-0.4-0.5c0.2-0.5,0.6-0.7,1.1-0.8c0.3-0.1,0.4,0.1,0.5,0.4
	C63.9,40.3,63.5,40.7,62.7,40.7z"/>
<path class="st4" d="M136.4,61.2c0,0.2,0,0.4,0,0.6c0,0.2-0.1,0.3-0.3,0.3c-0.2,0-0.3-0.1-0.3-0.3c0-1.1,0-2.3,0-3.4
	c0-0.2,0.1-0.3,0.3-0.3c0.4,0,0.8,0,1.2,0c0.4,0.1,0.7,0.3,0.9,0.8c0.1,0.4,0,0.8-0.4,1.1c-0.1,0.1-0.2,0.2-0.1,0.4
	c0.2,0.4,0.4,0.9,0.6,1.3c0.1,0.1,0.2,0.3,0,0.4c-0.2,0.1-0.4,0.1-0.5-0.2c-0.2-0.3-0.3-0.7-0.5-1c-0.1-0.1-0.1-0.3-0.2-0.4
	c-0.1-0.2-0.3-0.2-0.5-0.2c-0.2,0-0.2,0.2-0.2,0.4C136.4,60.8,136.4,61,136.4,61.2z M136.4,59.1c0,0.3-0.1,0.7,0.4,0.6
	c0.5,0,0.8-0.2,0.8-0.6c0-0.3-0.3-0.5-0.7-0.6C136.4,58.6,136.3,58.8,136.4,59.1z"/>
</svg>
