<?xml version="1.0" encoding="utf-8"?>
<!-- Generator: Adobe Illustrator 23.1.0, SVG Export Plug-In . SVG Version: 6.00 Build 0)  -->
<svg version="1.1" id="Слой_1" xmlns="http://www.w3.org/2000/svg" xmlns:xlink="http://www.w3.org/1999/xlink" x="0px" y="0px"
	 viewBox="0 0 150 100" style="enable-background:new 0 0 150 100;" xml:space="preserve">
<style type="text/css">
	.st0{fill:#2C2D2C;}
	.st1{fill:#CF1A32;}
</style>
<g>
	<path class="st0" d="M6.9,80.2c0,0.2,0,0.5,0,0.7c0,4,0,8,0,12c0,0.6-0.1,0.7-0.7,0.7c-1.6,0-3.1,0-4.7,0C1.1,93.5,1,93.4,1,93
		c0-9.7,0-19.4,0-29.1c0-0.5,0.1-0.6,0.6-0.6c4.6,0,9.2,0,13.9,0.1c2,0,4,0.5,5.8,1.4c3.2,1.7,4.4,4.5,4.4,7.9
		c0,4.8-3.4,8.3-8.3,8.4c-0.6,0-1.2,0-2,0c3.7,4.2,7.4,8.3,11.1,12.3c-0.1,0.3-0.4,0.1-0.5,0.1c-2.1,0-4.2,0-6.3,0
		c-0.4,0-0.7-0.1-1-0.4c-3.8-4.2-7.6-8.4-11.3-12.7C7.2,80.4,7.1,80.2,6.9,80.2z M11.6,76.8C11.6,76.8,11.6,76.8,11.6,76.8
		c0.7,0,1.5,0.1,2.2,0c1.3,0,2.6-0.1,3.8-0.4c1.4-0.4,2.3-1.4,2.5-2.9c0.2-1.5,0-2.9-1.3-3.8c-1.1-0.9-2.4-1.2-3.8-1.2
		c-2.5-0.1-5,0-7.5-0.1c-0.5,0-0.6,0.2-0.6,0.6c0,2.4,0,4.8,0,7.2c0,0.5,0.2,0.6,0.6,0.6C8.9,76.8,10.2,76.8,11.6,76.8z"/>
	<path class="st0" d="M82.5,70.9c3.6-2.4,9.5-1.9,12.7,1c2,1.8,2.9,4,3.1,6.6c0.1,2.5,0.2,5-0.1,7.4c-0.4,4.4-3.6,7.6-8,8.3
		c-3,0.5-5.8,0.4-8.5-1.1c-0.1,0-0.1-0.1-0.2-0.1c-0.9-1-1.8-0.6-2.8,0c-0.4,0.3-0.9,0.6-1.5,0.7c-0.5,0-0.7-0.1-0.7-0.7
		c0-4.2,0-8.4,0-12.6c0-5.4,0-10.9,0-16.3c0-0.6,0.1-0.7,0.7-0.7c1.5,0,3,0,4.5,0c0.5,0,0.6,0.1,0.6,0.6
		C82.5,66.3,82.5,68.6,82.5,70.9z M92.5,82.4c0-1.3,0-2.3,0-3.3c-0.1-2-0.9-3.4-2.8-4.1c-0.8-0.3-1.7-0.4-2.6-0.4
		c-2.6,0.2-4.3,1.6-4.5,3.9c-0.2,2.3-0.1,4.6,0,6.9c0,1.2,0.6,2.2,1.6,2.9c1.1,0.9,2.4,1.1,3.8,1c2.1-0.1,4.1-1.2,4.5-3.6
		C92.6,84.5,92.4,83.2,92.5,82.4z"/>
	<path class="st0" d="M149,93.8c-2.5,0-4.8,0-7.1,0c-0.4,0-0.5-0.2-0.7-0.4c-3-3.3-5.9-6.6-8.9-9.9c-0.1-0.1-0.2-0.2-0.4-0.4
		c0,0.8,0,1.5,0,2.1c0,2.6,0,5.2,0,7.8c0,0.7-0.2,0.9-0.9,0.8c-1.4-0.1-2.9,0-4.3,0c-0.6,0-0.7-0.2-0.7-0.8c0-7.7,0-15.4,0.1-23.1
		c0-1.9,0-3.9,0-5.8c0-0.5,0.1-0.6,0.6-0.6c1.5,0,3.1,0,4.6,0c0.5,0,0.6,0.1,0.6,0.6c0,5,0,10,0,15c0,0.2,0,0.4,0,0.6
		c0.3,0.1,0.3-0.2,0.4-0.3c2.8-3.2,5.6-6.3,8.4-9.5c0.3-0.3,0.6-0.5,1.1-0.5c2.2,0,4.3,0,6.7,0c-1.2,1.3-2.2,2.5-3.2,3.7
		c-2.3,2.6-4.7,5.3-7,7.9c-0.3,0.4-0.3,0.6,0,0.9C141.8,85.8,145.4,89.8,149,93.8z"/>
	<path class="st0" d="M41,83.4c-2.4,0-4.9,0-7.3,0c-0.6,0-0.7,0.2-0.7,0.7c0,0.8,0.1,1.7,0.4,2.4c0.4,0.9,1,1.7,1.9,2.1
		c2,0.8,4,0.9,6.1,0.2c0.9-0.3,1.7-0.9,1.9-2c0.1-0.4,0.3-0.4,0.6-0.4c1.4,0,2.8,0,4.2,0c0.5,0,0.7,0.2,0.6,0.6
		c-0.4,2.7-1.7,4.9-4.2,5.9c-4.2,1.8-8.5,1.8-12.5-0.4c-3-1.6-4.5-4.2-4.7-7.6c-0.1-2.4-0.1-4.8,0-7.1c0.3-3.7,2.1-6.5,5.7-7.9
		c3.5-1.3,7-1.4,10.5,0.2c3.4,1.5,5.1,4.3,5.4,7.9c0.1,1.6,0,3.1,0,4.7c0,0.4-0.2,0.5-0.5,0.5C45.9,83.5,43.5,83.5,41,83.4
		C41,83.5,41,83.5,41,83.4z M38.1,79.2C38.1,79.2,38.1,79.2,38.1,79.2c1.5,0,3,0,4.6,0c0.3,0,0.5,0.1,0.5-0.4
		c-0.1-1.7-0.5-3.1-2.1-4c-1.3-0.7-2.6-0.8-4-0.6c-2.6,0.3-4,1.9-4.1,4.3c0,0.5,0.2,0.6,0.6,0.6C35.2,79.1,36.7,79.2,38.1,79.2z"/>
	<path class="st0" d="M65.6,83.5c-2.4,0-4.9,0-7.3,0c-0.5,0-0.7,0.1-0.7,0.6c0,0.7,0.1,1.4,0.3,2.1c0.4,1.4,1.3,2.3,2.6,2.7
		c1.9,0.6,3.8,0.6,5.7,0c0.9-0.3,1.5-0.9,1.8-1.8c0.1-0.4,0.3-0.5,0.6-0.5c1.3,0,2.7,0,4,0c0.9,0,0.9,0,0.7,0.9
		c-0.6,3.1-2.3,5.2-5.3,6.1c-3.9,1.2-7.7,1.2-11.4-0.8c-2.9-1.6-4.5-4.2-4.7-7.6c-0.1-2.2-0.1-4.5,0-6.7c0.2-4.8,3.4-8.4,8.2-9
		c2.6-0.4,5.2-0.3,7.7,0.7c3.7,1.5,5.5,4.4,5.7,8.3c0.1,1.5,0,3,0,4.4c0,0.5-0.2,0.6-0.6,0.6C70.5,83.5,68,83.5,65.6,83.5
		C65.6,83.5,65.6,83.5,65.6,83.5z M62.7,79.2C62.7,79.2,62.7,79.2,62.7,79.2c1.5,0,3,0,4.6,0c0.4,0,0.5-0.1,0.5-0.5
		c0-2.2-1.1-3.6-3.2-4.2c-0.8-0.2-1.7-0.3-2.5-0.3c-2.8,0.2-4.4,1.9-4.4,4.4c0,0.4,0.1,0.5,0.5,0.5C59.7,79.2,61.2,79.2,62.7,79.2z"
		/>
	<path class="st0" d="M101.4,81.9c0-1.7-0.2-3.4,0.2-5.1c0.7-3.2,2.6-5.5,5.8-6.6c3.3-1.2,6.7-1.2,10,0.1c3.3,1.3,5.1,3.8,5.5,7.3
		c0.3,2.8,0.3,5.7,0,8.5c-0.4,4-2.7,6.6-6.5,7.7c-3.5,1-7,0.9-10.3-0.8c-3-1.6-4.4-4.2-4.6-7.6C101.3,84.3,101.4,83.1,101.4,81.9z
		 M117.1,81.9C117.1,81.9,117.1,81.9,117.1,81.9c0-1.1,0-2.2,0-3.4c-0.1-1.5-0.8-2.7-2.1-3.4c-1-0.5-2.1-0.7-3.2-0.6
		c-2.7,0.1-4.4,1.6-4.6,4.1c-0.1,2.3-0.2,4.6,0,6.8c0.1,1.5,1,2.6,2.4,3.3c1.1,0.5,2.2,0.6,3.4,0.4c2.3-0.2,4-1.9,4.1-4.2
		C117.1,84,117.1,83,117.1,81.9z"/>
</g>
<g>
	<path class="st1" d="M77.7,0.9c0.9-0.3,1.3,0.4,1.8,1.2c9.8,17,19.6,34.1,29.3,51.1c0.2,0.4,0.7,0.7,0.5,1.1
		c-0.3,0.7-0.7,1.4-1.2,2c-0.3,0.3-0.6-0.1-0.8-0.3c-4.2-2.8-8.4-5.6-12.5-8.4c-0.6-0.4-1.3-0.9-1.9-1.3c-3.2-1.7-5.4-4.3-7-7.5
		c-2.5-4.7-5.3-9.3-8-14c-0.3-0.5-0.4-1-0.5-1.6c-0.4-7-0.8-14-1.2-20.9C76.1,0.9,76,0.9,77.7,0.9z"/>
	<path class="st1" d="M74.9,60.5c-9.9,0-19.8,0-29.7,0c-0.8,0-2.1-1.2-2.2-2c0-0.4,0.3-0.4,0.5-0.5c6.6-3.3,13.3-6.6,19.9-9.9
		c0.4-0.2,0.7-0.2,1.1-0.2c6.9,0,13.8,0,20.7,0c0.5,0,1,0.1,1.4,0.3c6.4,3.3,12.9,6.6,19.4,9.8c0.7,0.3,0.8,0.6,0.4,1.3
		c-0.5,1-1.1,1.4-2.3,1.3c-9.7-0.1-19.5,0-29.2,0C74.9,60.6,74.9,60.5,74.9,60.5z"/>
	<path class="st1" d="M73.7,1.8c-0.4,7-0.9,13.9-1.3,20.8c-0.1,1-0.3,2-0.9,2.9c-3.3,5.6-6.6,11.3-9.8,16.9
		c-0.4,0.7-0.9,1.2-1.5,1.6c-5.8,3.9-11.7,7.8-17.5,11.7c-0.7,0.5-1,0.6-1.6-0.3c-0.6-1-0.6-1.7,0-2.6c9.9-17,19.8-34.1,29.7-51.1
		C71.2,1,73,0.5,73.6,0.9C73.9,1.2,73.6,1.6,73.7,1.8z"/>
</g>
</svg>
