<?xml version="1.0" encoding="utf-8"?>
<!-- Generator: Adobe Illustrator 23.1.0, SVG Export Plug-In . SVG Version: 6.00 Build 0)  -->
<svg version="1.1" id="Слой_1" xmlns="http://www.w3.org/2000/svg" xmlns:xlink="http://www.w3.org/1999/xlink" x="0px" y="0px"
	 viewBox="0 0 150 100" style="enable-background:new 0 0 150 100;" xml:space="preserve">
<style type="text/css">
	.st0{fill:#060601;}
	.st1{fill:#909090;}
	.st2{fill:#333026;}
	.st3{fill:#F8DE1E;}
	.st4{fill:#9F8F14;}
</style>
<path class="st0" d="M148.1,50.6c0,2.2,0,4.4,0,6.6c0,2.7,0,5.3,0,8c0,0-0.1,0-0.1,0c-0.2,0-0.4,0-0.5,0c-8.1,0-16.1,0-24.2,0
	c-0.1,0-0.2,0-0.3,0c-0.1,0-0.3,0-0.3,0.2c-0.1,0-0.1,0.1-0.2,0.1c-0.4,0.7-0.8,1.4-1.1,2.1c-0.4,0.7-0.7,1.4-1.1,2.1
	c-0.4,0.7-0.8,1.5-1.2,2.2c-0.2,0.3-0.3,0.4-0.7,0.4c-20.4,0-40.8,0-61.1,0c-0.3,0-0.5-0.1-0.7-0.3c-2.1-2.1-4.2-4.2-6.3-6.4
	c-0.3-0.3-0.6-0.4-1-0.4c-7.2,0-14.5,0-21.7,0c-0.1,0-0.2,0-0.3,0c-0.3,0-0.4,0.2-0.4,0.4c0,0.4,0,0.7,0,1.1c0,0.4-0.1,0.5-0.5,0.5
	c-3.7,0-7.4,0-11.2,0c-0.3,0-0.5-0.1-0.7-0.3c-1.6-1.7-3.3-3.3-5-5c-0.2-0.2-0.3-0.4-0.3-0.7c0-2.5,0-4.9,0-7.4c0-0.6,0-0.6-0.6-0.6
	c-0.5,0-1.1,0-1.6,0c-0.2,0-0.3,0-0.4-0.2c-1.7-1.7-3.5-3.4-5.2-5.2c-0.2-0.2-0.6-0.4-0.6-0.8c0.2-0.1,0.1-0.3,0.1-0.4
	c0-0.6,0-1.2,0-1.8c0-4.3,0-8.6,0-12.9c0.1,0,0.3,0,0.4,0c36.7,0,73.4,0,110.1,0c0.3,0,0.5,0.1,0.8,0.3c1.3,1.3,2.6,2.6,3.9,3.9
	c0.9,0.9,1.8,1.8,2.7,2.8c0,0,0,0.1,0,0.1c0,0,0.1,0,0.1-0.1c0.2,0,0.4,0,0.6,0c5.4,0,10.8,0,16.2,0c0.4,0,0.7-0.1,0.8-0.5
	c0.2,0,0.3-0.1,0.2-0.3c0,0,0,0,0,0c0.2,0,0.3-0.1,0.2-0.3c0,0,0,0,0.1-0.1c0.2,0,0.3,0,0.2-0.2l0,0c0.1,0,0.2-0.1,0.3-0.1
	c0.5-0.3,1-0.7,1.7-0.6c0.4,0,0.7,0,1.1,0c0.8,0,1.4,0.3,1.9,0.8c0.3,0.2,0.5,0.5,0.8,0.8c1,0.9,1.9,1.9,2.8,2.8
	c0.9,0.8,1.7,1.7,2.6,2.6c0.4,0.4,0.8,0.9,1.1,1.4c0.2,0.4,0.3,0.8,0.4,1.3c0,0.8,0,1.5-0.3,2.2c-0.3,0.5-0.7,1-1.1,1.3
	c-0.1,0.1-0.2,0.2-0.1,0.3C148,50.5,148.1,50.6,148.1,50.6z M137.1,38.6c-0.1,0-0.2,0.1-0.1,0.2c-0.1,0.1-0.1,0.2-0.2,0.3
	c-0.1,0-0.2,0.1-0.1,0.2c0,0.1-0.1,0.2-0.1,0.2c-0.1,0-0.2,0.1-0.1,0.2l0,0c-0.1,0-0.3,0-0.4,0c-5.8,0-11.5,0-17.3,0
	c-0.1,0-0.3,0-0.4,0c-0.2-0.1-0.4-0.3-0.5-0.4c-2-2-4-4-6-6c-0.3-0.4-0.7-0.5-1.2-0.5c-36.3,0-72.6,0-108.9,0c-0.1,0-0.3,0-0.4,0
	c-0.3,0-0.4,0.1-0.4,0.4c0,4.5,0,9,0,13.5c0,0.2,0,0.3,0.1,0.4c0.6,0.7,1.3,1.4,1.9,2.1c1.1,1.2,2.3,2.3,3.4,3.5
	c0.2,0.2,0.4,0.3,0.7,0.3c0.6,0,1.2,0,1.7,0c0.6,0,0.6,0,0.6,0.6c0,2.5,0,5,0,7.5c0,0.4,0.1,0.6,0.4,0.9c1.5,1.5,3,3,4.5,4.5
	c0.2,0.2,0.3,0.2,0.5,0.2c3.6,0,7.2,0,10.8,0c0.1,0,0.2,0,0.2,0c0.3,0,0.3-0.1,0.3-0.3c0-0.5,0-1,0-1.5c0.1-0.1,0.2-0.1,0.4-0.1
	c7.7,0,15.4,0,23.1,0c0.2,0,0.3,0,0.4,0.1c0,0.2,0.1,0.3,0.2,0.2l0,0c0,0.2,0.1,0.3,0.2,0.2c0,0,0,0,0.1,0.1c0,0.1,0,0.2,0.2,0.2
	c0,0,0,0,0.1,0.1c0,0.2,0,0.3,0.2,0.2l0,0c0,0.2,0.1,0.3,0.2,0.2c0,0,0,0,0.1,0.1c0,0.2,0.1,0.3,0.2,0.2l0,0c0,0.2,0.1,0.3,0.2,0.2
	c0,0,0,0,0.1,0.1c0,0.2,0.1,0.3,0.2,0.2l0,0c0,0.2,0.1,0.3,0.2,0.2c0,0,0,0,0.1,0.1c0,0.1,0,0.2,0.2,0.2c0,0,0,0,0.1,0.1
	c0,0.2,0,0.3,0.2,0.2l0,0c0,0.2,0.1,0.3,0.2,0.2c0,0,0,0,0.1,0.1c0,0.2,0.1,0.3,0.2,0.2c0.5,0.5,0.9,1,1.4,1.4c0.7,0.7,1.3,1.3,2,2
	c0.1,0.4,0.4,0.3,0.6,0.3c20.1,0,40.2,0,60.3,0c0.1,0,0.3,0,0.4,0c0.2,0,0.4,0,0.3-0.3c0-0.1,0-0.1,0.1-0.2c0.2,0,0.3-0.1,0.2-0.3
	c0-0.1,0-0.1,0-0.2c0.4-0.2,0.4-0.5,0.5-0.8c0,0,0-0.1,0-0.1c0.3-0.2,0.5-0.5,0.5-0.9c0,0,0-0.1,0-0.1c0.2,0,0.3-0.1,0.2-0.3
	c0-0.1,0-0.1,0-0.2c0.2,0,0.3-0.1,0.3-0.4c0,0,0-0.1,0-0.1c0.4-0.3,0.6-0.8,0.7-1.3c0,0,0-0.1,0-0.1c0.3-0.1,0.3-0.3,0.3-0.5
	c0,0,0,0,0,0c0.2,0,0.3-0.1,0.2-0.3c0-0.1,0-0.2,0.1-0.2c0.3-0.2,0.4-0.5,0.5-0.8c0.1,0,0.2,0,0.3,0c4.5,0,9,0,13.5,0
	c3.7,0,7.4,0,11.1,0c0.1,0.1,0.1,0,0.2,0c0-0.1,0-0.1,0-0.2c0-0.2,0-0.4,0-0.6c0-4.5,0-9,0-13.5c0-0.1,0-0.3,0.1-0.4
	c0.2,0,0.4,0,0.4-0.3c0,0,0,0,0,0c0.2,0,0.3,0,0.2-0.2l0,0c0.1,0,0.2,0,0.2-0.2c0,0,0.1-0.1,0.1-0.1c0.2-0.1,0.4-0.2,0.3-0.4
	c0.1-0.2,0.2-0.4,0.3-0.6c0.4-0.2,0.3-0.5,0.2-0.8c0-0.1,0-0.3,0-0.4c0.2-0.4,0.1-0.8-0.2-0.9c0-0.3-0.3-0.5-0.4-0.8
	c0-0.1,0-0.1-0.1-0.1l0,0c0-0.2,0-0.4-0.3-0.4c0,0,0,0-0.1-0.1c-0.1-0.4-0.4-0.5-0.6-0.7c-0.2-0.2-0.3-0.5-0.7-0.5c0,0,0,0-0.1-0.1
	c-0.5-0.7-1.1-1.3-1.8-1.8c0,0,0,0-0.1-0.1c0-0.3-0.3-0.5-0.5-0.7c-0.2-0.2-0.4-0.5-0.7-0.6c0,0,0,0-0.1-0.1c0-0.3-0.2-0.4-0.5-0.5
	c0,0,0,0-0.1-0.1c0-0.3-0.3-0.5-0.5-0.6c-0.2-0.2-0.4-0.6-0.7-0.6c0,0,0,0-0.1-0.1c0-0.1,0-0.3-0.2-0.2c-0.1,0-0.1-0.1-0.2-0.1
	c0-0.2-0.1-0.4-0.3-0.2c-0.1,0-0.2,0-0.2-0.1c0-0.2-0.1-0.3-0.3-0.2c-0.2,0-0.4-0.1-0.7,0.1c-0.1,0-0.2,0-0.3,0
	c-0.3-0.1-0.5,0-0.8,0c-0.2-0.1-0.3,0-0.3,0.2c0,0-0.1,0-0.1,0c-0.2-0.1-0.4,0-0.4,0.3c0,0-0.1,0-0.1,0c-0.2,0-0.3,0.1-0.3,0.3
	c0,0,0,0.1-0.1,0.1C137.1,38.4,137,38.5,137.1,38.6L137.1,38.6z"/>
<path class="st1" d="M136.5,38.4C136.5,38.4,136.5,38.4,136.5,38.4c-0.1,0.1-0.2,0.2-0.2,0.3c-0.2,0.3-0.4,0.5-0.8,0.5
	c-5.4,0-10.8,0-16.2,0c-0.2,0-0.4,0-0.6,0c0-0.1-0.1-0.1-0.1-0.1c-0.9-0.9-1.8-1.8-2.7-2.8c-1.3-1.3-2.6-2.6-3.9-3.9
	c-0.2-0.2-0.4-0.3-0.8-0.3c-36.7,0-73.4,0-110.1,0c-0.1,0-0.3,0-0.4,0c-0.2,0.1-0.2,0.3-0.2,0.4c0,4.8,0,9.6,0,14.3
	c0,0.1,0,0.3,0.1,0.4c0,0.4,0.4,0.5,0.6,0.8c1.7,1.7,3.5,3.5,5.2,5.2c0.1,0.1,0.3,0.2,0.4,0.2c0.5,0,1.1,0,1.6,0
	c0.6,0,0.6,0,0.6,0.6c0,2.5,0,4.9,0,7.4c0,0.3,0.1,0.5,0.3,0.7c1.7,1.6,3.3,3.3,5,5c0.2,0.2,0.4,0.3,0.7,0.3c3.7,0,7.4,0,11.2,0
	c0.4,0,0.5-0.1,0.5-0.5c0-0.4,0-0.7,0-1.1c0-0.3,0.1-0.5,0.4-0.4c0.1,0,0.2,0,0.3,0c7.2,0,14.5,0,21.7,0c0.4,0,0.7,0.1,1,0.4
	c2.1,2.1,4.2,4.2,6.3,6.4c0.2,0.2,0.4,0.3,0.7,0.3c20.4,0,40.8,0,61.1,0c0.4,0,0.5-0.2,0.7-0.4c0.4-0.8,0.8-1.5,1.2-2.2
	c0.4-0.7,0.8-1.4,1.1-2.1c0.4-0.7,0.7-1.4,1.1-2.1c0-0.1,0.1-0.1,0.2-0.1c0.2-0.1,0.5-0.1,0.7-0.1c8,0,16.1,0,24.1,0
	c0.2,0,0.4,0.1,0.5-0.1c0,0,0.1,0,0.1,0c0.1,0.3,0.1,0.4-0.2,0.4c-0.1,0-0.2,0-0.3,0c-8,0-16,0-23.9,0c-0.9,0-0.9,0-1.3,0.8
	c-0.4,0.7-0.8,1.5-1.2,2.2c-0.2,0.4-0.5,0.9-0.7,1.3c-0.2,0.5-0.6,1.1-0.9,1.6c-0.1,0.2-0.3,0.5-0.4,0.7c-0.2,0.4-0.4,0.5-0.8,0.5
	c-11,0-22,0-33,0c-9.2,0-18.4,0-27.7,0c-0.6,0-1.1-0.2-1.5-0.6c-1.2-1.2-2.5-2.4-3.6-3.7c-0.8-0.8-1.6-1.6-2.4-2.5
	c-0.3-0.3-0.5-0.4-0.9-0.4c-5.7,0-11.4,0-17.1,0c-1.6,0-3.2,0-4.8,0c-0.3,0-0.5,0.1-0.4,0.4c0,0.3,0,0.7,0,1c0,0.3-0.1,0.4-0.4,0.4
	c-0.1,0-0.2,0-0.3,0c-3.6,0-7.3,0-10.9,0c-0.7,0-1.1-0.2-1.6-0.6c-1.5-1.6-3.1-3.1-4.7-4.7c-0.2-0.2-0.3-0.4-0.3-0.8
	c0-2.4,0-4.8,0-7.2c0-0.5,0-0.5-0.5-0.5c-0.4,0-0.8,0-1.3,0c-0.3,0-0.5-0.1-0.7-0.3c-1.3-1.3-2.5-2.5-3.8-3.8c-0.7-0.7-1.3-1.3-2-2
	c-0.2-0.2-0.2-0.3-0.2-0.6c0-4.9,0-9.8,0-14.7c0-0.3,0.1-0.4,0.4-0.4c0.2,0,0.4,0,0.5,0c36.5,0,73,0,109.5,0c1.2,0,1.2,0,2.1,0.9
	c1,1,2.1,2.1,3.1,3.1c0.9,0.9,1.8,1.8,2.8,2.7c0.2,0.2,0.4,0.2,0.6,0.2c2.4,0,4.8,0,7.2,0c2.9,0,5.8,0,8.7,0c0.6,0,1-0.2,1.4-0.7
	c0.4-0.5,0.9-0.9,1.5-1.2c0.1,0,0.2,0,0.2,0c-0.1,0.1-0.3,0.2-0.4,0.3c-0.3,0.1-0.5,0.3-0.6,0.5c0,0,0,0,0,0c-0.1,0-0.2,0.1-0.2,0.2
	c0,0,0,0-0.1,0.1C136.6,38.2,136.5,38.3,136.5,38.4z"/>
<path class="st2" d="M137,37.9c0.1-0.3,0.4-0.4,0.6-0.5c0.1-0.1,0.3-0.1,0.4-0.3c0,0,0.1,0,0.1,0c0.3,0.1,0.5-0.1,0.8-0.2
	c1.1-0.1,2.2,0.1,3,0.9c0.7,0.6,1.4,1.4,2.1,2.1c0.1,0.1,0.2,0.4,0.5,0.4c0.3,0.3,0.7,0.7,1,1c0,0.3,0.2,0.3,0.3,0.4
	c0.2,0.2,0.4,0.6,0.8,0.6c0.8,0.8,1.6,1.5,2.3,2.3c0.1,0.5,0.4,0.8,0.6,1.3c0,0.1,0,0.1,0,0.2c0,0.1,0,0.2,0,0.2
	c0.3,1.1,0,2-0.5,2.9c0,0,0,0.1-0.1,0.1c-0.4,0.4-0.8,0.8-1.1,1.1c0-0.1,0-0.2,0.1-0.3c0.5-0.4,0.9-0.8,1.1-1.3
	c0.3-0.7,0.4-1.4,0.3-2.2c0-0.5-0.2-0.9-0.4-1.3c-0.3-0.5-0.7-1-1.1-1.4c-0.9-0.8-1.7-1.8-2.6-2.6c-1-0.9-1.8-1.9-2.8-2.8
	c-0.3-0.2-0.5-0.6-0.8-0.8c-0.6-0.5-1.2-0.8-1.9-0.8c-0.4,0-0.7,0-1.1,0c-0.7,0-1.2,0.3-1.7,0.6C137.2,37.8,137.1,37.9,137,37.9z"/>
<path class="st1" d="M144.7,40.2c-0.3,0-0.4-0.2-0.5-0.4c-0.7-0.7-1.4-1.5-2.1-2.1c-0.9-0.7-1.9-1-3-0.9c-0.3,0-0.5,0.2-0.8,0.2
	c0.1-0.3,0.3-0.3,0.6-0.3c0.5,0,1-0.1,1.5,0c0.9,0.2,1.8,0.5,2.4,1.3c0.5,0.6,1.2,1.2,1.8,1.8C144.5,40,144.7,40,144.7,40.2z"/>
<path class="st1" d="M149.2,49.2c0.4-0.9,0.8-1.9,0.5-2.9c0-0.1,0-0.1,0-0.2c0.2,0.1,0.3,0.3,0.3,0.4c0,0.4,0.1,0.8,0,1.2
	c-0.1,0.5-0.3,1-0.6,1.5C149.3,49.3,149.3,49.3,149.2,49.2z"/>
<path class="st1" d="M148,50.5c0.4-0.4,0.8-0.8,1.1-1.1c0.1,0.2,0,0.3-0.1,0.4c-0.3,0.3-0.6,0.6-1,0.9C148.1,50.6,148,50.5,148,50.5
	z"/>
<path class="st1" d="M146.7,42.3c-0.4-0.1-0.5-0.4-0.8-0.6c-0.1-0.1-0.4-0.2-0.3-0.4C146.1,41.5,146.5,41.9,146.7,42.3z"/>
<path class="st1" d="M149.7,45.9c-0.2-0.4-0.5-0.8-0.6-1.3c0.4,0.2,0.4,0.6,0.6,1C149.8,45.7,149.8,45.8,149.7,45.9z"/>
<path class="st3" d="M142.1,39.4c-0.1-0.1-0.1-0.2-0.3-0.3c-0.2-0.2-0.5-0.3-0.8-0.5c-0.3-0.1-0.6-0.2-0.9-0.3
	c-0.5-0.1-1.1-0.2-1.5,0c-0.2,0.1-0.4,0.4-0.7,0.5c-0.1,0.1-0.3,0.1-0.4,0.2c-0.1,0.1-0.2,0.2-0.3,0.4c-0.3,0.5-0.5,1.1-0.6,1.8
	c0,0.3,0,0.6,0.1,0.8c0.1,0.2,0.3,0.4,0.4,0.6c0,0,0,0,0,0c0.1,0.1,0.1,0.1,0.2,0.2c0.2,0.2,0.5,0.3,0.7,0.4
	c0.3,0.1,0.5,0.2,0.8,0.2c0.3,0.1,0.6,0.3,0.9,0.3c0.3,0,0.6,0,0.8-0.1c0.5-0.2,1-0.6,1.3-1.1c0.3-0.5,0.6-1.1,0.6-1.8
	c0-0.3-0.1-0.6-0.2-0.9C142.2,39.7,142.1,39.5,142.1,39.4z M139.5,43.4c-1.3,0-2.5-1.2-2.5-2.6c0-1.4,1.2-2.6,2.6-2.6
	c1.2,0,2.7,1.1,2.5,2.6C142.2,42.4,140.8,43.5,139.5,43.4z"/>
<path class="st4" d="M139.4,37.6c-0.1,0.2-0.2,0.3-0.4,0.3c-0.9,0-1.5,0.6-2,1.2c-0.1,0.2-0.2,0.3-0.3,0.5c-0.1,0.3-0.3,0.4-0.5,0.4
	c-0.1,0-0.1,0-0.2,0c-5.8,0-11.6,0-17.4,0c-0.2,0-0.4-0.1-0.6-0.2c-1.3-1.3-2.6-2.6-3.9-3.9c-0.9-0.9-1.9-1.8-2.8-2.8
	c-0.1-0.1-0.2-0.2-0.4-0.2c-0.1,0-0.3,0-0.4,0c-36.2,0-72.4,0-108.6,0c-0.1,0-0.2,0-0.3,0c-0.2,0-0.3,0.1-0.3,0.3c0,0.5,0,1,0,1.5
	c0,3.9,0,7.9,0,11.8c0,0.3,0.1,0.5,0.3,0.7c1.6,1.6,3.1,3.2,4.7,4.8c0.3,0.3,0.6,0.5,1,0.5c0.6,0,1.3,0,1.9,0c0.4,0,0.5,0.1,0.5,0.5
	c0,2,0,3.9,0,5.9c0,0.7,0,1.4,0,2.2c0,0.3,0.1,0.4,0.3,0.6c1.4,1.4,2.9,2.9,4.3,4.3c0.4,0.4,0.7,0.5,1.3,0.5c3.2,0,6.5,0,9.7,0
	c0.3,0,0.5-0.1,0.4-0.4c0-0.4,0-0.7,0-1.1c0-0.5,0-0.6,0.6-0.6c2.5,0,4.9,0,7.4,0c5.3,0,10.6,0,15.9,0c0.3,0,0.6,0.1,0.8,0.3
	c1,1,2,1.9,2.9,2.9c1,1.1,2.2,2.2,3.2,3.3c0.4,0.4,0.7,0.6,1.3,0.6c20,0,39.9,0,59.9,0c0.6,0,0.8-0.1,1-0.7c0.3-0.8,0.8-1.5,1.2-2.2
	c0.3-0.6,0.6-1.2,0.9-1.7c0.2-0.4,0.4-0.8,0.7-1.2c0.2-0.2,0.2-0.5,0.4-0.8c0.2-0.3,0.4-0.5,0.8-0.5c8,0,16,0,24,0
	c0.5,0,0.5,0,0.5-0.5c0-4.5,0-9,0-13.4c0-0.4,0.1-0.6,0.5-0.9c0.7-0.5,1.1-1.1,1.2-2c0-0.4,0-0.8,0-1.3c-0.1-0.5-0.3-0.9-0.7-1.3
	c-1-1-2-2-3-3c-0.8-0.8-1.7-1.7-2.5-2.5c-0.4-0.4-0.7-0.8-1.2-1.1c-0.4-0.2-0.7-0.5-1.2-0.5c-0.2,0-0.3-0.1-0.4-0.3
	c0.2-0.1,0.4,0,0.7-0.1c0.1,0.1,0.2,0.2,0.3,0.2c0.1,0.1,0.2,0.1,0.2,0.1c0.1,0.1,0.2,0.2,0.3,0.2c0.1,0,0.1,0.1,0.2,0.1
	c0,0.1,0.1,0.2,0.2,0.2c0,0,0,0,0.1,0.1c0.3,0.5,0.8,0.9,1.2,1.2c0,0,0,0,0.1,0.1c0.1,0.2,0.2,0.4,0.5,0.5c0,0,0,0,0.1,0.1
	c0.3,0.5,0.8,0.9,1.2,1.2c0,0,0,0,0.1,0.1c0.2,0.4,0.5,0.6,0.8,0.9c0.3,0.3,0.6,0.7,1,0.9c0,0,0,0,0.1,0.1c0.3,0.5,0.8,0.9,1.2,1.2
	c0,0,0,0,0.1,0.1c0.1,0.2,0.2,0.3,0.3,0.4c0,0,0,0,0,0c0,0,0.1,0.1,0.1,0.1c0.1,0.3,0.4,0.5,0.4,0.8c0.1,0.3,0.1,0.6,0.2,0.9
	c0,0.1,0,0.3,0,0.4c-0.1,0.3-0.1,0.5-0.2,0.8c-0.1,0.2-0.2,0.4-0.3,0.6c-0.1,0.1-0.3,0.2-0.3,0.4c0,0-0.1,0.1-0.1,0.1
	c-0.1,0-0.2,0.1-0.2,0.2c0,0,0,0,0,0c-0.1,0-0.2,0.1-0.2,0.2c0,0,0,0,0,0c-0.2,0-0.3,0.1-0.4,0.3c-0.1,0.1-0.1,0.3-0.1,0.4
	c0,4.5,0,9,0,13.5c0,0.2,0,0.4,0,0.6c-0.1,0-0.1,0.1-0.2,0.2c-3.7,0-7.4,0-11.1,0c-4.5,0-9,0-13.5,0c-0.1,0-0.2,0-0.3,0
	c-0.3,0.2-0.4,0.5-0.5,0.8c-0.1,0.1-0.1,0.1-0.1,0.2c-0.1,0.1-0.2,0.2-0.2,0.3c0,0,0,0,0,0.1c-0.1,0.1-0.2,0.3-0.3,0.5
	c0,0,0,0.1,0,0.1c-0.4,0.4-0.5,0.8-0.7,1.3c0,0,0,0.1,0,0.1c-0.1,0.1-0.2,0.2-0.3,0.4c0,0.1,0,0.1,0,0.2c-0.1,0.1-0.2,0.2-0.2,0.3
	c0,0,0,0.1,0,0.1c-0.2,0.3-0.4,0.5-0.5,0.9c0,0,0,0.1,0,0.1c-0.3,0.2-0.4,0.5-0.5,0.8c0,0.1,0,0.1,0,0.2c-0.1,0-0.2,0.1-0.2,0.3
	c0,0.1,0,0.1-0.1,0.2c-0.3,0.1-0.5,0.1-0.8,0.1c-20,0-40.1,0-60.1,0c-0.2,0-0.5,0-0.7-0.1c-0.7-0.7-1.3-1.3-2-2
	c-0.5-0.5-1-1-1.4-1.4c0-0.1-0.1-0.2-0.2-0.2c0,0,0,0-0.1-0.1c0-0.1-0.1-0.2-0.2-0.2c0,0,0,0,0,0c0-0.1-0.1-0.2-0.2-0.2
	c0,0,0,0-0.1-0.1c0-0.1-0.1-0.1-0.2-0.2c0,0,0,0-0.1-0.1c0-0.1-0.1-0.2-0.2-0.2c0,0,0,0,0,0c0-0.1-0.1-0.2-0.2-0.2c0,0,0,0-0.1-0.1
	c0-0.1-0.1-0.2-0.2-0.2c0,0,0,0,0,0c0-0.1-0.1-0.2-0.2-0.2c0,0,0,0-0.1-0.1c0-0.1-0.1-0.2-0.2-0.2c0,0,0,0,0,0
	c0-0.1-0.1-0.2-0.2-0.2c0,0,0,0-0.1-0.1c0-0.1-0.1-0.1-0.2-0.2c0,0,0,0-0.1-0.1c0-0.1-0.1-0.2-0.2-0.2c0,0,0,0,0,0
	c0-0.1-0.1-0.2-0.2-0.2c-0.1-0.1-0.3-0.1-0.4-0.1c-7.7,0-15.4,0-23.1,0c-0.1,0-0.3,0-0.4,0.1c-0.3,0-0.2,0.2-0.2,0.4
	c-0.1,0.5,0.1,1-0.1,1.5c-0.1,0-0.2,0-0.2,0c-3.6,0-7.2,0-10.8,0c-0.2,0-0.4-0.1-0.5-0.2c-1.5-1.5-3-3-4.5-4.5
	c-0.3-0.2-0.4-0.5-0.4-0.9c0-2.5,0-5,0-7.5c0-0.6,0-0.6-0.6-0.6c-0.6,0-1.2,0-1.7,0c-0.3,0-0.5-0.1-0.7-0.3
	c-1.1-1.2-2.3-2.3-3.4-3.5c-0.6-0.7-1.3-1.3-1.9-2.1C1,47,1,46.9,1,46.7c0-4.5,0-9,0-13.5c0-0.3,0.1-0.5,0.4-0.4c0.1,0,0.3,0,0.4,0
	c36.3,0,72.6,0,108.9,0c0.5,0,0.8,0.1,1.2,0.5c2,2,4,4,6,6c0.2,0.2,0.3,0.3,0.5,0.4c0.1,0.2,0.3,0.1,0.5,0.1c2.6,0,5.2,0,7.8,0
	c3.1,0,6.2,0,9.4,0c0.1,0,0.3,0.1,0.4-0.1c0,0,0,0,0,0c0.1,0,0.1-0.1,0.1-0.2c0.1-0.1,0.1-0.1,0.1-0.2c0.1,0,0.1-0.1,0.1-0.2
	c0.1-0.1,0.1-0.2,0.2-0.3c0.1,0,0.1-0.1,0.1-0.2c0,0,0,0,0,0c0.1,0,0.2-0.1,0.2-0.2c0,0,0-0.1,0.1-0.1c0.2,0,0.3-0.1,0.3-0.3
	c0,0,0.1,0,0.1,0c0.2-0.1,0.3-0.1,0.4-0.3c0,0,0.1,0,0.1,0c0.1,0,0.3-0.1,0.3-0.2C138.9,37.6,139.2,37.4,139.4,37.6z"/>
<path class="st2" d="M56.9,71.7c0.2,0.1,0.5,0.1,0.7,0.1c20,0,40.1,0,60.1,0c0.3,0,0.5,0,0.8-0.1c0,0.3-0.2,0.3-0.3,0.3
	c-0.1,0-0.3,0-0.4,0c-20.1,0-40.2,0-60.3,0C57.3,72,57,72.1,56.9,71.7z"/>
<path class="st2" d="M148,65.2c-0.1,0.2-0.3,0.1-0.5,0.1c-8,0-16.1,0-24.1,0c-0.2,0-0.5,0-0.7,0.1c0-0.2,0.2-0.2,0.3-0.2
	c0.1,0,0.2,0,0.3,0c8.1,0,16.1,0,24.2,0C147.6,65.2,147.8,65.2,148,65.2z"/>
<path class="st2" d="M136.4,39.6c-0.1,0.2-0.3,0.1-0.4,0.1c-3.1,0-6.2,0-9.4,0c-2.6,0-5.2,0-7.8,0c-0.2,0-0.4,0.1-0.5-0.1
	c0.1,0,0.3,0,0.4,0c5.8,0,11.5,0,17.3,0C136.1,39.6,136.2,39.6,136.4,39.6z"/>
<path class="st2" d="M0.5,47.2c-0.1-0.1-0.1-0.2-0.1-0.4c0-4.8,0-9.6,0-14.3c0-0.1-0.1-0.4,0.2-0.4c0,4.3,0,8.6,0,12.9
	c0,0.6,0,1.2,0,1.8C0.6,47,0.6,47.1,0.5,47.2z"/>
<path class="st2" d="M146.8,43.3c-0.4-0.2-0.7-0.6-1-0.9c-0.3-0.3-0.6-0.5-0.8-0.9C145.7,42,146.3,42.6,146.8,43.3z"/>
<path class="st2" d="M25.8,66.6c0.2-0.5,0.1-1,0.1-1.5c0-0.1-0.1-0.3,0.2-0.4c0,0.5,0,1,0,1.5C26.1,66.5,26.1,66.7,25.8,66.6z"/>
<path class="st2" d="M148.1,44.6c-0.5-0.3-0.9-0.8-1.2-1.2c0.3,0,0.5,0.3,0.7,0.5C147.7,44.1,148,44.3,148.1,44.6z"/>
<path class="st2" d="M144.9,41.5c-0.5-0.3-0.9-0.8-1.2-1.2c0.4,0.1,0.5,0.4,0.7,0.6C144.6,41,144.9,41.1,144.9,41.5z"/>
<path class="st2" d="M143.1,39.6c-0.5-0.3-0.9-0.8-1.2-1.2c0.4,0.1,0.5,0.4,0.7,0.6C142.7,39.2,143,39.3,143.1,39.6z"/>
<path class="st2" d="M120.4,68.1c0.2-0.5,0.4-0.9,0.7-1.3C121,67.3,120.8,67.7,120.4,68.1z"/>
<path class="st2" d="M119.4,70.1c0.1-0.4,0.3-0.6,0.5-0.9C119.9,69.6,119.7,69.8,119.4,70.1z"/>
<path class="st2" d="M149.2,46.9c-0.1-0.3-0.1-0.6-0.2-0.9C149.2,46.2,149.3,46.5,149.2,46.9z"/>
<path class="st2" d="M118.8,71c0.1-0.3,0.2-0.6,0.5-0.8C119.2,70.5,119.2,70.9,118.8,71z"/>
<path class="st2" d="M148.9,48.2c0.1-0.3,0.1-0.5,0.2-0.8C149.3,47.7,149.3,48,148.9,48.2z"/>
<path class="st2" d="M121.8,65.6c0.1-0.3,0.2-0.6,0.5-0.8C122.2,65.1,122.1,65.4,121.8,65.6z"/>
<path class="st2" d="M143.6,40.1c-0.2-0.1-0.4-0.2-0.5-0.5C143.4,39.7,143.6,39.9,143.6,40.1z"/>
<path class="st2" d="M148.4,49.2c0-0.2,0.2-0.3,0.3-0.4C148.7,49.1,148.6,49.2,148.4,49.2z"/>
<path class="st2" d="M121.2,66.7c0-0.2,0.1-0.4,0.3-0.5C121.5,66.4,121.5,66.6,121.2,66.7z"/>
<path class="st2" d="M148.4,45.1c-0.2-0.1-0.3-0.2-0.3-0.4C148.4,44.7,148.4,44.9,148.4,45.1z"/>
<path class="st2" d="M147.4,50c0.1-0.1,0.2-0.3,0.4-0.3C147.8,50,147.7,50.1,147.4,50z"/>
<path class="st2" d="M138.2,37.8c-0.1,0.1-0.3,0.2-0.4,0.3C137.8,37.8,137.9,37.7,138.2,37.8z"/>
<path class="st2" d="M141.3,38c-0.1-0.1-0.2-0.2-0.3-0.2C141.2,37.7,141.3,37.8,141.3,38z"/>
<path class="st2" d="M137.6,38.1c-0.1,0.1-0.2,0.3-0.3,0.3C137.3,38.2,137.4,38,137.6,38.1z"/>
<path class="st2" d="M120.2,68.5c0-0.2,0.1-0.3,0.3-0.4C120.5,68.4,120.4,68.5,120.2,68.5z"/>
<path class="st2" d="M121.5,66.1c0-0.1,0.1-0.2,0.2-0.3C121.8,66,121.7,66.1,121.5,66.1z"/>
<path class="st2" d="M138.6,37.5c-0.1,0.1-0.2,0.2-0.3,0.2C138.3,37.5,138.4,37.5,138.6,37.5z"/>
<path class="st2" d="M140.7,37.8c-0.1,0-0.3-0.1-0.3-0.2C140.6,37.5,140.7,37.5,140.7,37.8z"/>
<path class="st2" d="M119.9,69.1c0-0.2,0.1-0.3,0.2-0.3C120.2,68.9,120.1,69,119.9,69.1z"/>
<path class="st2" d="M50.1,64.9c0.1,0,0.2,0.1,0.2,0.2C50.1,65.1,50,65,50.1,64.9z"/>
<path class="st2" d="M50.3,65.1c0.1,0,0.2,0.1,0.2,0.2C50.4,65.4,50.3,65.3,50.3,65.1z"/>
<path class="st2" d="M50.8,65.6c0.1,0,0.2,0.1,0.2,0.2C50.9,65.9,50.8,65.8,50.8,65.6z"/>
<path class="st2" d="M51.1,65.9c0.1,0,0.2,0.1,0.2,0.2C51.1,66.1,51.1,66.1,51.1,65.9z"/>
<path class="st2" d="M136.8,38.1c0-0.1,0.1-0.2,0.2-0.2C137,38,137,38.1,136.8,38.1z"/>
<path class="st2" d="M147.9,49.7c0-0.1,0.1-0.2,0.2-0.2C148.2,49.7,148.1,49.8,147.9,49.7z"/>
<path class="st2" d="M51.6,66.4c0.1,0,0.2,0.1,0.2,0.2C51.7,66.7,51.6,66.6,51.6,66.4z"/>
<path class="st2" d="M51.9,66.7c0.1,0,0.2,0.1,0.2,0.2C52,67,51.9,66.9,51.9,66.7z"/>
<path class="st2" d="M136.3,38.7c0-0.1,0.1-0.2,0.2-0.3C136.5,38.7,136.4,38.7,136.3,38.7z"/>
<path class="st2" d="M52.2,67c0.1,0,0.2,0.1,0.2,0.2C52.2,67.2,52.1,67.1,52.2,67z"/>
<path class="st2" d="M52.7,67.5c0.1,0,0.2,0.1,0.2,0.2C52.7,67.8,52.7,67.7,52.7,67.5z"/>
<path class="st2" d="M53.2,68c0.1,0,0.2,0.1,0.2,0.2C53.3,68.3,53.2,68.2,53.2,68z"/>
<path class="st2" d="M136.5,38.4c0-0.1,0.1-0.2,0.2-0.3C136.7,38.3,136.7,38.4,136.5,38.4z"/>
<path class="st2" d="M141.7,38.3c-0.1,0-0.2-0.1-0.2-0.2C141.7,38,141.7,38.2,141.7,38.3z"/>
<path class="st2" d="M147.2,64.8c0-0.1,0.1-0.1,0.2-0.2c0.1,0,0.1,0.1,0,0.2C147.3,64.8,147.2,64.8,147.2,64.8z"/>
<path class="st2" d="M52.9,67.7c0.1,0,0.2,0.1,0.2,0.2C53,68,52.9,67.9,52.9,67.7z"/>
<path class="st2" d="M118.6,71.4c0-0.1,0.1-0.2,0.2-0.3C118.8,71.4,118.8,71.4,118.6,71.4z"/>
<path class="st2" d="M51.4,66.2c0.1,0,0.2,0.1,0.2,0.2C51.4,66.4,51.4,66.4,51.4,66.2z"/>
<path class="st2" d="M136.7,39c0,0.1,0,0.1-0.1,0.2C136.5,39.1,136.6,39.1,136.7,39z"/>
<path class="st2" d="M148.1,49.5c0-0.1,0.1-0.1,0.2-0.2C148.3,49.5,148.3,49.5,148.1,49.5z"/>
<path class="st2" d="M118.5,39.1c0.1,0,0.1,0,0.1,0.1c0,0.1-0.1,0.1-0.1,0.1C118.5,39.2,118.5,39.1,118.5,39.1z"/>
<path class="st2" d="M136.5,39.4c0,0.1,0,0.2-0.1,0.2C136.4,39.5,136.4,39.4,136.5,39.4z"/>
<path class="st2" d="M50.6,65.4c0.1,0,0.1,0.1,0.2,0.2C50.6,65.6,50.6,65.5,50.6,65.4z"/>
<path class="st2" d="M137.2,38.4c0,0.1,0,0.2-0.2,0.2C137,38.5,137.1,38.4,137.2,38.4z"/>
<path class="st2" d="M137.1,38.6c0,0.1,0,0.1-0.1,0.2C136.9,38.7,136.9,38.6,137.1,38.6z"/>
<path class="st2" d="M52.5,67.3c0.1,0,0.1,0.1,0.2,0.2C52.5,67.4,52.4,67.4,52.5,67.3z"/>
<path class="st2" d="M148.5,45.2C148.5,45.1,148.5,45.1,148.5,45.2C148.5,45.1,148.5,45.1,148.5,45.2z"/>
<path class="st0" d="M56.2,41.5c-12.4,0-24.8,0-37.2,0c-0.6,0-0.6,0-0.6,0.6c0,5.4,0,10.9,0,16.3c0,0.6,0,0.6-0.6,0.6
	c-0.7,0-1.3,0-2,0c-0.5,0-0.5,0-0.5-0.5c0-2.3,0-4.7,0-7c0-3.2,0-6.4,0-9.6c0-0.5,0-0.5-0.5-0.5c-3.2,0-6.3,0-9.5,0
	c-0.5,0-0.5,0-0.5-0.5c0-0.7,0-1.5,0-2.2c0-0.3,0.1-0.4,0.4-0.4c0.1,0,0.2,0,0.3,0c18.5,0,37.1,0,55.6,0c10.8,0,21.6,0,32.4,0
	c0.6,0,0.6,0,0.6,0.6c0,0.7,0,1.4,0,2c0,0.5,0,0.5-0.5,0.5C81,41.5,68.6,41.5,56.2,41.5z"/>
<path class="st0" d="M105,57.1c-1.6,0-3.3,0-4.9,0c-1.2,0-2.2-0.6-3-1.5c-0.6-0.8-0.9-1.8-0.9-2.8c0-2.4,0-4.8,0-7.1
	c0-1.2,0.4-2.3,1.2-3.2c0.7-0.8,1.6-1.2,2.7-1.2c3.2,0,6.4,0,9.6,0c0.3,0,0.4,0.1,0.4,0.4c0,0.8,0,1.6,0,2.4c0,0.3-0.1,0.4-0.4,0.4
	c-3,0-6,0-9,0c-1,0-1.4,0.6-1.4,1.4c0,2.3,0,4.6,0,6.9c0,0.7,0.4,1.3,1.3,1.3c2.1,0,4.2,0,6.3,0c0.5,0,0.5,0,0.5-0.5
	c0-0.5,0-0.9,0-1.4c0-0.3-0.1-0.5-0.5-0.5c-0.7,0-1.4,0-2.1,0c-0.3,0-0.4-0.1-0.4-0.4c0-0.8,0-1.5,0-2.3c0-0.3,0.1-0.5,0.5-0.5
	c1.7,0,3.5,0,5.2,0c0.4,0,0.5,0.1,0.5,0.5c0,2.6,0,5.2,0,7.8c0,0.3-0.2,0.4-0.4,0.4C108.5,57.1,106.7,57.1,105,57.1z"/>
<path class="st0" d="M128.7,57.1c-0.7,0.1-1.5,0.1-2.2,0c-0.2,0-0.3,0-0.5,0c-0.1-0.2-0.1-0.3-0.1-0.5c0-3.1,0-6.2,0-9.4
	c0-0.6,0-1.1,0-1.7c1.4,0,2.9,0,4.3,0l0,0c0,0.2-0.1,0.5,0.3,0.5c0,0.1,0,0.1,0,0.2c-0.1,0.2,0,0.3,0.2,0.3c0,0,0,0,0,0.1
	c-0.1,0.2,0,0.4,0.3,0.5c0,0.1,0,0.1,0,0.2c-0.1,0.2,0,0.3,0.2,0.3c0,0.1,0,0.1,0.1,0.2c-0.1,0.2-0.1,0.3,0.2,0.4c0,0,0,0,0,0.1
	c0,0.2,0,0.4,0.3,0.5c0,0.1,0,0.1,0,0.2c-0.1,0.2,0,0.3,0.2,0.3c0,0,0,0,0,0.1c0,0.2,0,0.4,0.3,0.5c0,0.1,0,0.1,0,0.2
	c-0.1,0.2,0,0.3,0.2,0.3c0,0,0,0,0,0.1c0,0.4,0.2,0.7,0.5,1c0.1,0.1,0.1,0.2,0.1,0.2c-0.1,0.3,0.2,0.4,0.2,0.7
	c0,0.2,0.1,0.3,0.3,0.3c0.2,0,0.3-0.2,0.4-0.3c0.3-0.6,0.5-1.2,0.9-1.8c0.4-0.6,0.6-1.3,1-2c0.3-0.5,0.5-0.9,0.7-1.4
	c0.1-0.3,0.5-0.5,0.3-0.9c0-0.1,0-0.1,0.1-0.2c0.2,0,0.3-0.1,0.2-0.3c0-0.1,0-0.1,0-0.2c0,0,0,0,0,0c0.8,0,1.6,0,2.5,0
	c0.1,0,0.3,0.1,0.4-0.1c0.5,0,1,0,1.5,0c0,0.8,0,1.7,0,2.5c0,0.1-0.1,0.3,0.1,0.4c0,2.7,0,5.4,0,8.2c0,0.3-0.1,0.4-0.4,0.4
	c-0.7,0-1.4,0-2,0c-0.3,0-0.4-0.1-0.4-0.4c0-2,0-4,0-6c0-0.1,0.1-0.4-0.1-0.4c-0.2,0-0.3,0.1-0.4,0.3c-0.3,0.6-0.6,1.3-0.9,1.9
	c-0.6,1-1,2.1-1.5,3.1c-0.2,0.4-0.5,0.9-0.7,1.3c-0.1,0.1-0.1,0.2-0.3,0.2c-0.8,0-1.5,0-2.3,0c0-0.1,0-0.3-0.2-0.3
	c-0.1-0.1-0.1-0.2-0.1-0.3c0.1-0.2,0-0.4-0.2-0.5c0,0,0-0.1,0-0.1c0.1-0.2,0-0.3-0.2-0.3c0,0,0-0.1,0-0.1c0.1-0.2,0-0.4-0.2-0.4
	c0-0.1,0-0.1-0.1-0.2c0.1-0.2,0-0.3-0.2-0.3c0,0,0-0.1,0-0.1c-0.1-0.4-0.2-0.7-0.5-1c0-0.1,0-0.1,0-0.2c0.1-0.2,0-0.3-0.2-0.3
	c0,0,0-0.1,0-0.1c0.1-0.2,0-0.4-0.2-0.4c0-0.1,0-0.1,0-0.2c0.1-0.2,0-0.3-0.2-0.3c0,0,0-0.1,0-0.1c0-0.4-0.2-0.7-0.4-0.9
	c0,0,0,0-0.1,0c0,0,0-0.1,0-0.1c0.1-0.3-0.1-0.4-0.4-0.4c-0.3,0-0.3,0.2-0.3,0.4c0,0.2,0,0.3,0,0.5C128.7,53,128.7,55,128.7,57.1z"
	/>
<path class="st0" d="M87.3,57.1c-1,0-2.1,0-3.1,0c-1.4,0.1-2.4-0.6-3.1-1.7c-0.4-0.5-0.5-1.1-0.5-1.8c0-1.6-0.1-3.2,0-4.9
	c0.1-1.5,0.8-2.6,2.3-3.3c0.4-0.2,0.9-0.3,1.4-0.3c1.9,0,3.9,0,5.8,0c1.5,0,2.7,0.5,3.4,1.9c0.2,0.4,0.4,0.8,0.4,1.3
	c0,1.8,0,3.5,0,5.3c0,1.2-0.6,2.1-1.6,2.8c-0.5,0.4-1.1,0.6-1.8,0.5C89.5,57.1,88.4,57.1,87.3,57.1z M87.3,54
	C87.3,54,87.3,54,87.3,54c0.9,0,1.8,0,2.7,0c0.6,0,0.9-0.3,0.9-0.9c0-1.2,0-2.5,0-3.7c0-0.6-0.5-1-1-1c-1.7,0-3.4,0-5.1,0
	c-0.6,0-1.1,0.5-1.1,1.1c0,1.2,0,2.4,0,3.6c0,0.5,0.5,1,1,1C85.5,54,86.4,54,87.3,54z"/>
<path class="st0" d="M49.8,51.2c0-1.8,0-3.6,0-5.4c0-0.4,0.1-0.5,0.5-0.5c0.7,0,1.5,0,2.2,0c0.4,0,0.5,0.1,0.5,0.5
	c0,1.1,0,2.3,0,3.4c0,0.4,0.1,0.5,0.5,0.5c1.7,0,3.4,0,5.1,0c0.5,0,0.6-0.1,0.6-0.6c0-1.1,0-2.2,0-3.2c0-0.5,0-0.6,0.6-0.6
	c0.7,0,1.4,0,2,0c0.3,0,0.4,0.1,0.4,0.4c0,3.6,0,7.3,0,10.9c0,0.3-0.1,0.4-0.4,0.4c-0.8,0-1.5,0-2.3,0c-0.5,0-0.5,0-0.5-0.5
	c0-1.2,0.1-2.3,0.1-3.5c0-0.4-0.1-0.5-0.5-0.5c-1.8,0-3.5,0-5.3,0c-0.3,0-0.4,0.1-0.4,0.4c0,1.2,0,2.4,0,3.7c0,0.3-0.1,0.4-0.4,0.4
	c-0.8,0-1.6,0-2.4,0c-0.3,0-0.4-0.1-0.4-0.4C49.8,54.9,49.8,53.1,49.8,51.2z"/>
<path class="st4" d="M117.9,50.3c0.3-0.6,0.6-1.1,0.9-1.7c0.3-0.6,0.7-1.2,1-1.9c0.2-0.4,0.4-0.7,0.6-1.1c0.2-0.3,0.5-0.4,0.8-0.4
	c0.9,0,1.9-0.1,2.8,0.1c0.3,0.1,0.4,0.2,0.2,0.5c-0.4,0.8-0.8,1.5-1.2,2.3c-0.4,0.7-0.8,1.5-1.2,2.2c-0.4,0.7-0.7,1.4-1.1,2.1
	c-0.4,0.8-0.9,1.6-1.3,2.4c-0.4,0.7-0.8,1.5-1.2,2.2c-0.3,0.5-0.6,1.1-0.9,1.6c-0.3,0.6-0.6,1.2-1,1.8c-0.2,0.4-0.4,0.8-0.7,1.2
	c-0.2,0.4-0.4,0.8-0.6,1.2c-0.2,0.4-0.5,0.8-0.7,1.3c-0.1,0.3-0.3,0.3-0.6,0.3c-18.1,0-36.2,0-54.3,0c-0.5,0-0.6,0-0.6-0.6
	c0-0.8,0-1.5,0-2.3c0-0.4,0.2-0.6,0.6-0.6c0.1,0,0.2,0,0.3,0c17.2,0,34.3,0,51.5,0c0.6,0,0.9-0.2,1.1-0.8c0.2-0.5,0.5-0.9,0.7-1.3
	c0.3-0.6,0.6-1.1,0.9-1.7c0.3-0.6,0.6-1.1,0.9-1.7c0.2-0.4,0.4-0.7,0.6-1.1c0.1-0.2,0.1-0.5,0-0.7c-0.5-0.7-0.8-1.5-1.3-2.3
	c-0.4-0.7-0.9-1.4-1.2-2.2c-0.3-0.6-0.6-1.1-0.9-1.7c-0.2-0.5-0.5-1-0.8-1.5c-0.2-0.3-0.1-0.4,0.2-0.5c0.2-0.1,0.4-0.1,0.6-0.1
	c0.8,0,1.5,0,2.3,0c0.4,0,0.7,0.2,0.8,0.5c0.4,0.9,0.9,1.7,1.4,2.6C117.1,48.9,117.5,49.6,117.9,50.3z M86.7,64.2
	c8.9,0,17.8,0,26.7,0c0.2,0,0.3,0,0.5,0c0.2,0,0.3-0.1,0.4-0.2c0.3-0.6,0.6-1.2,0.9-1.7c0.4-0.7,0.7-1.4,1.1-2
	c0.4-0.8,0.8-1.7,1.3-2.5c0.3-0.5,0.5-1,0.8-1.5c0.3-0.5,0.5-1,0.7-1.4c0.3-0.5,0.5-1,0.8-1.5c0.5-0.8,0.9-1.6,1.3-2.5
	c0.5-0.8,0.9-1.7,1.4-2.5c0.4-0.8,0.8-1.5,1.2-2.3c0.1-0.1,0.2-0.2,0.1-0.3c-0.1-0.1-0.2-0.1-0.3-0.1c-0.9,0-1.7,0-2.6,0
	c-0.2,0-0.3,0-0.4,0.2c-0.1,0.2-0.2,0.5-0.3,0.7c-0.5,0.9-1,1.8-1.5,2.8c-0.2,0.4-0.4,0.7-0.6,1.1c-0.2,0.4-0.4,0.4-0.6,0
	c-0.1-0.1-0.1-0.1-0.2-0.2c-0.2-0.6-0.6-1.1-0.9-1.7c-0.4-0.8-0.8-1.6-1.3-2.4c-0.1-0.2-0.1-0.5-0.5-0.5c-1,0-1.9,0-2.9,0
	c-0.3,0-0.3,0.1-0.2,0.3c0.1,0.2,0.3,0.4,0.4,0.6c0.4,0.8,0.8,1.6,1.3,2.4c0.5,0.9,1,1.8,1.5,2.7c0.3,0.6,0.7,1.2,1,1.8
	c0.1,0.3,0.4,0.5,0.3,0.8c-0.1,0.2-0.2,0.4-0.3,0.6c-0.3,0.5-0.6,1-0.9,1.6c-0.4,0.8-0.8,1.5-1.2,2.3c-0.3,0.6-0.7,1.1-0.9,1.7
	c-0.3,0.6-0.4,0.8-1.1,0.8c-17.2,0-34.4,0-51.6,0c-0.1,0-0.3,0-0.4,0c-0.2,0-0.3,0.1-0.3,0.3c0,0.7,0,1.4-0.1,2.2
	c-0.1,0.6,0,0.6,0.6,0.6C68.8,64.2,77.8,64.2,86.7,64.2z"/>
<path class="st4" d="M67.9,49.5c0,0.2,0,0.4,0,0.5c0,2.2,0,4.4,0,6.6c0,0.3-0.1,0.5-0.5,0.6c-0.9,0.1-1.7,0-2.6,0
	c-0.3,0-0.5-0.2-0.5-0.6c0-3.6,0-7.2,0-10.7c0-0.6,0.2-0.8,0.8-0.8c1,0,2.1,0,3.1,0c0.4,0,0.7,0.1,0.9,0.4c0.8,1,1.6,2,2.3,2.9
	c0.5,0.7,1.1,1.4,1.6,2.1c0.5,0.7,1.2,1.4,1.7,2.1c0.1,0.1,0.2,0.2,0.3,0.3c0.1-0.2,0-0.3,0-0.4c0-2.2,0-4.3,0-6.5
	c0-0.1,0-0.3,0-0.4c0-0.4,0.2-0.5,0.6-0.5c0.8,0,1.5,0,2.3,0c0.4,0,0.6,0.2,0.6,0.6c0,3.6,0,7.3,0,10.9c0,0.3-0.1,0.5-0.4,0.5
	c-0.3,0-0.7,0-1,0c-0.8,0-1.7,0-2.5,0c-0.4,0-0.6-0.1-0.9-0.4c-0.6-0.8-1.2-1.5-1.8-2.3c-0.8-1-1.5-2-2.3-2.9
	c-0.5-0.6-0.9-1.2-1.4-1.8C68.1,49.7,68,49.6,67.9,49.5z M78.3,51.3c0-1.8,0-3.6,0-5.4c0-0.3-0.1-0.4-0.4-0.4c-0.7,0-1.3,0-2,0
	c-0.5,0-0.5,0-0.5,0.5c0,2.3,0,4.6,0,6.9c0,0.1,0.1,0.3-0.1,0.4c-0.2,0.1-0.3-0.1-0.4-0.2c-0.8-1.1-1.7-2.1-2.5-3.2
	c-1.1-1.4-2.2-2.8-3.3-4.2c-0.1-0.2-0.3-0.3-0.6-0.3c-1.1,0-2.3,0-3.4,0c-0.3,0-0.4,0.1-0.4,0.4c0,3.6,0,7.2,0,10.8
	c0,0.3,0.1,0.4,0.4,0.4c0.7,0,1.4,0,2.1,0c0.4,0,0.5-0.1,0.4-0.5c0-2.4,0-4.8,0-7.1c0-0.2,0-0.4,0.1-0.4c0.2,0,0.3,0.1,0.4,0.2
	c0,0,0,0,0,0.1c0.6,0.8,1.3,1.6,1.9,2.4c1.3,1.6,2.7,3.3,3.9,5c0.2,0.2,0.4,0.3,0.7,0.3c1.1,0,2.2,0,3.3,0c0.3,0,0.4-0.1,0.4-0.4
	C78.3,54.9,78.3,53.1,78.3,51.3z"/>
<path class="st4" d="M26.7,57.2c-1.9,0-3.7,0-5.6,0c-0.3,0-0.4-0.1-0.4-0.4c0-3.7,0-7.3,0-11c0-0.5,0-0.5,0.5-0.5
	c3.6,0,7.2,0,10.8,0c0.6,0,0.6,0,0.6,0.6c0,0.7,0,1.5,0,2.2c0,0.5-0.1,0.6-0.6,0.6c-2.5,0-5,0-7.6,0c-0.2,0-0.4-0.1-0.4,0.1
	c-0.1,0.2-0.1,0.5,0,0.7c0,0.1,0.2,0.1,0.4,0.1c1.5,0,2.9,0,4.4,0c0.7,0,0.7,0,0.7,0.7c0,0.6,0,1.2,0,1.8c0,0.5,0,0.6-0.5,0.6
	c-1.5,0-3,0-4.5,0c-0.4,0-0.5,0.1-0.5,0.5c0,0.7,0,0.7,0.7,0.7c2.5,0,5,0,7.5,0c0.5,0,0.6,0,0.6,0.6c0,0.8,0,1.5,0,2.3
	c0,0.3-0.1,0.5-0.4,0.4C30.5,57.2,28.6,57.2,26.7,57.2z M26.7,57.1c1.8,0,3.7,0,5.5,0c0.3,0,0.5-0.1,0.5-0.4c0-0.7,0-1.4,0-2.1
	c0-0.4-0.1-0.5-0.5-0.5c-2.4,0-4.9,0-7.3,0c-1.1,0-0.9,0.2-1-1c0-0.4,0.1-0.5,0.5-0.5c1.5,0,2.9,0,4.4,0c0.3,0,0.5-0.1,0.4-0.4
	c0-0.6,0-1.2,0-1.7c0-0.3-0.1-0.5-0.4-0.4c-1.3,0-2.5,0-3.8,0c-1.1,0-1.1,0.2-1.1-1.1c0-0.5,0-0.5,0.5-0.5c2.5,0,5,0,7.5,0
	c0.3,0,0.5-0.1,0.4-0.4c0-0.7,0-1.3,0-2c0-0.3-0.1-0.4-0.4-0.4c-3.6,0-7.2,0-10.7,0c-0.3,0-0.4,0.1-0.4,0.4c0,3.6,0,7.1,0,10.7
	c0,0.3,0.1,0.4,0.4,0.4C23.1,57,24.9,57.1,26.7,57.1z"/>
<path class="st4" d="M40.9,57.2c-1.2,0-2.4,0-3.6,0c-1,0-1.7-0.5-2.3-1.2c-0.6-0.7-0.9-1.6-0.9-2.6c0-1.4,0-2.9,0-4.3
	c0-1.1,0.4-2,1.2-2.8c0.6-0.6,1.4-0.9,2.2-1c2-0.3,4.1-0.1,6.1-0.1c1.4,0,2.7,0.5,3.5,1.7c0.4,0.6,0.7,1.2,0.6,2
	c0,1.4,0,1.2-1.2,1.2c-0.6,0-1.1,0-1.7,0c-0.4,0-0.5-0.2-0.6-0.5c-0.1-0.8-0.2-0.8-1-0.8c-1.7,0-3.3,0-5,0c-0.6,0-0.9,0.3-0.9,0.9
	c0,1.1,0,2.2,0,3.3c0,0.6,0.4,1,1,1c1.6,0,3.2,0,4.9,0c0.5,0,1-0.4,1-1c0-0.3,0.1-0.3,0.3-0.3c0.9,0,1.7,0,2.6,0
	c0.3,0,0.4,0.1,0.4,0.5c0,0.7,0,1.4-0.3,2.1c-0.3,0.7-0.8,1.2-1.4,1.6c-0.7,0.4-1.4,0.5-2.1,0.5C42.9,57.2,41.9,57.2,40.9,57.2
	C40.9,57.2,40.9,57.2,40.9,57.2z M41,45.5C41,45.5,41,45.5,41,45.5c-1.2,0-2.3,0-3.5,0c-0.5,0-1,0.1-1.3,0.4
	c-1.1,0.7-1.8,1.6-1.8,2.9c0,1.6,0,3.2,0,4.9c0,0.4,0,0.7,0.2,1.1c0.6,1.6,1.7,2.2,3.3,2.3c1.9,0.1,3.9,0,5.8,0
	c0.8,0,1.6-0.1,2.3-0.5c0.7-0.4,1.2-1.1,1.5-1.9c0.1-0.5,0.1-1,0.1-1.6c0-0.3-0.1-0.4-0.4-0.4c-0.7,0-1.4,0-2.2,0
	c-0.3,0-0.4,0.1-0.4,0.4c0,0.6-0.3,0.9-0.9,0.9c-1.8,0-3.6,0-5.4,0c-0.6,0-0.9-0.4-0.9-1c0-1.2,0-2.4,0-3.6c0-0.5,0.4-1,1-1
	c1.7,0,3.4,0,5.2,0c0.6,0,1,0.4,1,1c0,0.2,0,0.3,0.3,0.3c0.8,0,1.6,0,2.4,0c0.2,0,0.3-0.1,0.3-0.3c0-1,0-1.9-0.7-2.7
	c-0.6-0.7-1.4-1.2-2.4-1.2C43.3,45.5,42.2,45.5,41,45.5z"/>
<path class="st4" d="M132.3,56.5c0,0.1,0,0.2,0.1,0.3c0,0.1,0.1,0.2,0.2,0.3c0.8,0,1.5,0,2.3,0c0.2,0,0.2-0.1,0.3-0.2
	c0.2-0.4,0.5-0.9,0.7-1.3c0.5-1,1-2.1,1.5-3.1c0.3-0.6,0.6-1.2,0.9-1.9c0.1-0.2,0.2-0.3,0.4-0.3c0.3,0,0.1,0.3,0.1,0.4c0,2,0,4,0,6
	c0,0.3,0.1,0.5,0.4,0.4c0.7,0,1.4,0,2,0c0.3,0,0.4-0.1,0.4-0.4c0-2.7,0-5.4,0-8.2c0,0,0.1,0,0.1,0c0.1,0.1,0.1,0.2,0.1,0.4
	c0,2.6,0,5.2,0,7.9c0,0.4-0.1,0.5-0.5,0.5c-0.7,0-1.5,0-2.2,0c-0.6,0-0.6,0-0.6-0.6c0-1.8,0-3.5,0-5.3c0-0.1,0-0.3-0.1-0.4
	c-0.4,0.3-0.4,0.8-0.6,1.2c-0.4,0.6-0.7,1.3-1,1.9c-0.3,0.6-0.6,1.3-0.9,1.9c-0.2,0.4-0.4,0.8-0.6,1.2c0,0.1-0.2,0.2-0.3,0.2
	c-0.9,0-1.7,0-2.6,0c-0.2,0-0.3-0.1-0.4-0.3c-0.3-0.6-0.6-1.3-0.9-1.9c-0.2-0.4-0.5-0.9-0.7-1.3c-0.2-0.4-0.4-0.9-0.6-1.3
	c-0.3-0.5-0.5-1-0.8-1.5c0,0.2,0,0.3,0,0.4c0,1.8,0,3.6,0,5.4c0,0.1,0,0.2,0,0.3c-0.1,0.2-0.2,0.3-0.3,0.1c0.2-0.1,0.2-0.3,0.2-0.4
	c0-2,0-3.9,0-5.9c0-0.1-0.1-0.3,0.1-0.3c0.2-0.1,0.2,0.1,0.3,0.2c0,0,0,0.1,0,0.1c0.1,0.3,0.2,0.7,0.5,0.9c0,0,0,0.1,0,0.1
	c0,0.2,0.1,0.3,0.2,0.3c0,0.1,0,0.1,0,0.2c0,0.2,0.1,0.3,0.2,0.4c0,0,0,0.1,0,0.1c0,0.1,0.1,0.3,0.2,0.3c0,0.1,0,0.1,0,0.2
	c0.1,0.3,0.2,0.7,0.5,1c0,0,0,0.1,0,0.1c0,0.2,0.1,0.3,0.2,0.3c0,0.1,0,0.1,0.1,0.2c0,0.2,0.1,0.3,0.2,0.4c0,0,0,0.1,0,0.1
	c0,0.1,0.1,0.3,0.2,0.3c0,0,0,0.1,0,0.1C132,56.2,132.2,56.3,132.3,56.5z"/>
<path class="st4" d="M130.6,46.3c0-0.1,0-0.1,0-0.2c-0.1-0.2-0.1-0.3-0.3-0.5c0,0,0,0,0,0c-0.1-0.1-0.2-0.1-0.3-0.1
	c-1.2,0-2.5,0-3.7,0c-0.1,0-0.2,0-0.3,0.1c0,0.6,0,1.1,0,1.7c0,3.1,0,6.2,0,9.4c0,0.2,0,0.4,0.1,0.5c-0.2,0.1-0.2,0-0.2-0.1
	c0-0.1,0-0.2,0-0.3c0-3.6,0-7.2,0-10.8c0-0.6,0.1-0.7,0.7-0.7c1,0,2,0,3,0c0.7,0,0.9,0.1,1.2,0.8c0.2,0.4,0.4,0.8,0.6,1.2
	c0.2,0.5,0.5,0.9,0.7,1.4c0.3,0.6,0.7,1.3,1,1.9c0.2,0.5,0.4,0.9,0.6,1.4c0,0.1,0,0.2,0.2,0.2c0.1,0,0.2-0.1,0.2-0.2
	c0.4-0.8,0.8-1.6,1.2-2.5c0.3-0.7,0.7-1.3,0.9-2c0-0.1,0.1-0.2,0.3-0.2c0,0.1,0,0.2-0.1,0.2c-0.3,0.6-0.6,1.2-0.9,1.8
	c-0.4,1-1,1.9-1.4,2.9c0,0.1-0.1,0.2-0.2,0.2c-0.1,0-0.2-0.1-0.2-0.2c-0.1-0.2-0.2-0.4-0.3-0.6c0-0.1,0-0.2-0.1-0.2
	c-0.1-0.3-0.3-0.7-0.5-1c0,0,0,0,0-0.1c0-0.2-0.1-0.3-0.2-0.3c0-0.1,0-0.1,0-0.2c0-0.2-0.1-0.3-0.3-0.5c0,0,0,0,0-0.1
	c0-0.1-0.1-0.2-0.2-0.3c0-0.1,0-0.1,0-0.2c-0.1-0.2-0.1-0.3-0.3-0.5c0,0,0,0,0-0.1c0-0.1-0.1-0.3-0.2-0.4c0-0.1,0-0.1-0.1-0.2
	c0-0.1-0.1-0.3-0.2-0.3c0-0.1,0-0.1,0-0.2c-0.1-0.2-0.1-0.3-0.3-0.5c0,0,0,0,0-0.1C130.8,46.5,130.7,46.3,130.6,46.3z"/>
<path class="st2" d="M129.4,50.6c-0.1-0.1-0.2-0.2-0.3-0.2c-0.2,0.1-0.1,0.2-0.1,0.3c0,2,0,3.9,0,5.9c0,0.2,0.1,0.3-0.2,0.4
	c0,0,0,0,0,0s0,0,0,0c0-2,0-4.1,0-6.1c0-0.2,0-0.3,0-0.5c0-0.2,0-0.4,0.3-0.4C129.2,50.2,129.5,50.2,129.4,50.6z"/>
<path class="st2" d="M133.2,51.6c0.2,0.2,0.2,0.4,0.3,0.6c0,0.1,0.1,0.2,0.2,0.2c0.1,0,0.2-0.1,0.2-0.2c0.4-1,1-1.9,1.4-2.9
	c0.3-0.6,0.6-1.2,0.9-1.8c0-0.1,0.1-0.1,0.1-0.2c0.1-0.4,0.3-0.7,0.5-1.1c0,0,0.1,0,0.1,0c0.1,0.4-0.2,0.6-0.3,0.9
	c-0.2,0.5-0.4,1-0.7,1.4c-0.4,0.6-0.6,1.3-1,2c-0.3,0.6-0.6,1.2-0.9,1.8c-0.1,0.2-0.1,0.3-0.4,0.3c-0.2,0-0.3-0.1-0.3-0.3
	C133.5,52.1,133.1,51.9,133.2,51.6z"/>
<path class="st4" d="M141.6,45.5c-0.5,0-1,0-1.5,0c-0.1-0.1-0.3-0.1-0.5-0.1c-0.8,0-1.5,0-2.3,0c0.1-0.2,0.3-0.2,0.5-0.2
	c1.2-0.1,2.5,0.2,3.7,0.1c0.1,0,0.3,0,0.2,0.2C141.7,45.6,141.7,45.6,141.6,45.5z"/>
<path class="st2" d="M141.6,45.5c0.1,0,0.1,0,0.2,0.1c0,1,0,1.9,0,2.9c0,0-0.1,0-0.1,0c-0.1-0.1-0.1-0.3-0.1-0.4
	C141.6,47.2,141.6,46.4,141.6,45.5z"/>
<path class="st2" d="M137.3,45.4c0.8,0,1.5,0,2.3,0c0.2,0,0.3,0,0.5,0.1c-0.1,0.1-0.3,0.1-0.4,0.1c-0.8,0-1.6,0-2.5,0
	C137.2,45.5,137.3,45.5,137.3,45.4z"/>
<path class="st4" d="M137,46.2c0,0-0.1,0-0.1,0c0-0.3,0.1-0.5,0.3-0.6c0,0.1,0,0.1,0,0.2c-0.1,0.1-0.1,0.2-0.2,0.3
	C137.1,46.1,137.1,46.2,137,46.2z"/>
<path class="st2" d="M126,45.6c0-0.2,0.2-0.1,0.3-0.1c1.2,0,2.5,0,3.7,0c0.1,0,0.2,0,0.3,0.1C128.8,45.6,127.4,45.6,126,45.6z"/>
<path class="st2" d="M129.9,51.7c-0.3-0.3-0.4-0.6-0.5-0.9c0,0,0.1,0,0.1,0C129.7,51,129.9,51.3,129.9,51.7z"/>
<path class="st2" d="M131.2,54.4c-0.3-0.3-0.4-0.6-0.5-1C131,53.6,131.1,54,131.2,54.4z"/>
<path class="st2" d="M132.7,50.4c0.2,0.3,0.4,0.6,0.5,1C132.9,51.1,132.7,50.8,132.7,50.4z"/>
<path class="st2" d="M132.3,56.5c-0.1-0.1-0.3-0.2-0.2-0.5C132.3,56.1,132.3,56.3,132.3,56.5z"/>
<path class="st2" d="M130.3,45.6c0.1,0.1,0.2,0.3,0.3,0.5C130.2,46,130.3,45.8,130.3,45.6z"/>
<path class="st2" d="M132.1,49.4c0.1,0.1,0.2,0.3,0.3,0.5C132.1,49.8,132.1,49.6,132.1,49.4z"/>
<path class="st2" d="M130.8,46.7c0.1,0.1,0.2,0.3,0.3,0.5C130.8,47.1,130.8,46.9,130.8,46.7z"/>
<path class="st2" d="M131.8,55.4c-0.1-0.1-0.3-0.2-0.2-0.4C131.7,55.1,131.8,55.2,131.8,55.4z"/>
<path class="st2" d="M130.4,52.7c-0.1-0.1-0.2-0.2-0.2-0.4C130.4,52.4,130.5,52.5,130.4,52.7z"/>
<path class="st2" d="M131.6,48.3c0.1,0.1,0.2,0.3,0.3,0.5C131.6,48.7,131.6,48.5,131.6,48.3z"/>
<path class="st2" d="M131.4,47.8c0.1,0.1,0.2,0.2,0.2,0.4C131.4,48.2,131.3,48,131.4,47.8z"/>
<path class="st2" d="M131.5,54.8c-0.1-0.1-0.2-0.2-0.2-0.3C131.5,54.5,131.5,54.6,131.5,54.8z"/>
<path class="st2" d="M132.5,50c0.1,0.1,0.2,0.2,0.2,0.3C132.4,50.4,132.4,50.2,132.5,50z"/>
<path class="st2" d="M130.1,52.1c-0.1-0.1-0.2-0.2-0.2-0.3C130.2,51.8,130.2,51.9,130.1,52.1z"/>
<path class="st2" d="M131.1,47.3c0.1,0.1,0.2,0.2,0.2,0.3C131.1,47.7,131.1,47.5,131.1,47.3z"/>
<path class="st2" d="M137.1,46.1c0-0.1,0.1-0.2,0.2-0.3C137.4,46,137.3,46,137.1,46.1z"/>
<path class="st2" d="M131.9,49c0.1,0.1,0.2,0.2,0.2,0.3C131.9,49.3,131.9,49.2,131.9,49z"/>
<path class="st2" d="M132,55.9c-0.1-0.1-0.2-0.2-0.2-0.3C132,55.6,132.1,55.7,132,55.9z"/>
<path class="st2" d="M130.7,53.2c-0.1-0.1-0.2-0.2-0.2-0.3C130.7,52.9,130.7,53,130.7,53.2z"/>
<path class="st2" d="M130.6,46.3c0.1,0.1,0.2,0.2,0.2,0.3C130.6,46.6,130.5,46.5,130.6,46.3z"/>
<path class="st2" d="M132.6,57c-0.1,0-0.2-0.1-0.2-0.3C132.6,56.7,132.5,56.9,132.6,57z"/>
<path class="st2" d="M87.3,54c-0.9,0-1.8,0-2.7,0c-0.5,0-1-0.5-1-1c0-1.2,0-2.4,0-3.6c0-0.6,0.5-1.1,1.1-1.1c1.7,0,3.4,0,5.1,0
	c0.5,0,1,0.4,1,1c0,1.2,0,2.5,0,3.7c0,0.6-0.3,0.9-0.9,0.9C89.1,54,88.2,54,87.3,54C87.3,54,87.3,54,87.3,54z M87.3,48.7
	C87.3,48.7,87.3,48.7,87.3,48.7c-0.9,0-1.7,0-2.6,0c-0.6,0-0.8,0.2-0.8,0.8c0,1.2,0,2.4,0,3.6c0,0.4,0.3,0.8,0.8,0.8
	c1.7,0,3.4,0,5.2,0c0.5,0,0.9-0.5,0.9-1c0-1.1,0-2.3,0-3.4c0-0.6-0.2-0.8-0.8-0.8C89,48.6,88.2,48.7,87.3,48.7z"/>
<path class="st0" d="M86.7,64.2c-8.9,0-17.9,0-26.8,0c-0.6,0-0.6,0-0.6-0.6c0.1-0.7,0.1-1.4,0.1-2.2c0-0.2,0.1-0.3,0.3-0.3
	c0.1,0,0.3,0,0.4,0c17.2,0,34.4,0,51.6,0c0.7,0,0.9-0.2,1.1-0.8c0.2-0.6,0.6-1.1,0.9-1.7c0.4-0.8,0.8-1.6,1.2-2.3
	c0.3-0.5,0.6-1,0.9-1.6c0.1-0.2,0.2-0.4,0.3-0.6c0.2-0.3-0.1-0.5-0.3-0.8c-0.3-0.6-0.6-1.2-1-1.8c-0.5-0.9-1-1.8-1.5-2.7
	c-0.4-0.8-0.9-1.5-1.3-2.4c-0.1-0.2-0.3-0.4-0.4-0.6c-0.1-0.2-0.1-0.3,0.2-0.3c1,0,1.9,0,2.9,0c0.3,0,0.3,0.3,0.5,0.5
	c0.4,0.8,0.9,1.6,1.3,2.4c0.3,0.6,0.7,1.1,0.9,1.7c0,0.1,0.1,0.1,0.2,0.2c0.2,0.3,0.4,0.3,0.6,0c0.2-0.4,0.4-0.7,0.6-1.1
	c0.5-0.9,1-1.9,1.5-2.8c0.1-0.2,0.2-0.5,0.3-0.7c0.1-0.2,0.2-0.2,0.4-0.2c0.9,0,1.7,0,2.6,0c0.1,0,0.3,0,0.3,0.1
	c0.1,0.1,0,0.2-0.1,0.3c-0.4,0.8-0.8,1.5-1.2,2.3c-0.5,0.8-0.9,1.7-1.4,2.5c-0.4,0.8-0.8,1.7-1.3,2.5c-0.3,0.5-0.5,1-0.8,1.5
	c-0.3,0.5-0.5,1-0.7,1.4c-0.3,0.5-0.5,1-0.8,1.5c-0.5,0.8-0.9,1.6-1.3,2.5c-0.4,0.7-0.7,1.4-1.1,2c-0.3,0.6-0.6,1.2-0.9,1.7
	c-0.1,0.2-0.2,0.3-0.4,0.2c-0.2,0-0.3,0-0.5,0C104.5,64.2,95.6,64.2,86.7,64.2z"/>
<path class="st0" d="M78.3,51.3c0,1.8,0,3.6,0,5.4c0,0.3-0.1,0.4-0.4,0.4c-1.1,0-2.2,0-3.3,0c-0.3,0-0.5-0.1-0.7-0.3
	c-1.3-1.7-2.6-3.3-3.9-5c-0.6-0.8-1.3-1.6-1.9-2.4c0,0,0,0,0-0.1C68,49.1,67.8,49,67.7,49c-0.2,0.1-0.1,0.3-0.1,0.4
	c0,2.4,0,4.8,0,7.1c0,0.3-0.1,0.5-0.4,0.5c-0.7,0-1.4,0-2.1,0c-0.3,0-0.4-0.1-0.4-0.4c0-3.6,0-7.2,0-10.8c0-0.3,0.1-0.4,0.4-0.4
	c1.1,0,2.3,0,3.4,0c0.3,0,0.4,0.1,0.6,0.3c1.1,1.4,2.2,2.8,3.3,4.2c0.8,1.1,1.7,2.1,2.5,3.2c0.1,0.1,0.2,0.3,0.4,0.2
	c0.2-0.1,0.1-0.3,0.1-0.4c0-2.3,0-4.6,0-6.9c0-0.5,0-0.5,0.5-0.5c0.7,0,1.3,0,2,0c0.3,0,0.4,0.1,0.4,0.4
	C78.3,47.7,78.3,49.5,78.3,51.3z"/>
<path class="st0" d="M26.7,57.1c-1.8,0-3.6,0-5.4,0c-0.3,0-0.4-0.1-0.4-0.4c0-3.6,0-7.1,0-10.7c0-0.3,0.1-0.4,0.4-0.4
	c3.6,0,7.2,0,10.7,0c0.3,0,0.4,0.1,0.4,0.4c0,0.7,0,1.3,0,2c0,0.4-0.1,0.4-0.4,0.4c-2.5,0-5,0-7.5,0c-0.5,0-0.5,0-0.5,0.5
	c0,1.3-0.1,1.1,1.1,1.1c1.3,0,2.5,0,3.8,0c0.3,0,0.5,0.1,0.4,0.4c0,0.6,0,1.2,0,1.7c0,0.3-0.1,0.4-0.4,0.4c-1.5,0-2.9,0-4.4,0
	c-0.4,0-0.5,0.1-0.5,0.5c0,1.1-0.2,1,1,1c2.4,0,4.9,0,7.3,0c0.4,0,0.5,0.1,0.5,0.5c0,0.7,0,1.4,0,2.1c0,0.4-0.1,0.4-0.5,0.4
	C30.3,57,28.5,57.1,26.7,57.1z"/>
<path class="st0" d="M41,45.5c1.1,0,2.3,0,3.4,0c1,0,1.7,0.5,2.4,1.2c0.7,0.8,0.7,1.7,0.7,2.7c0,0.2-0.1,0.3-0.3,0.3
	c-0.8,0-1.6,0-2.4,0c-0.2,0-0.3-0.2-0.3-0.3c0-0.6-0.4-1-1-1c-1.7,0-3.4,0-5.2,0c-0.5,0-1,0.5-1,1c0,1.2,0,2.4,0,3.6
	c0,0.6,0.4,1,0.9,1c1.8,0,3.6,0,5.4,0c0.6,0,0.9-0.3,0.9-0.9c0-0.3,0.1-0.4,0.4-0.4c0.7,0,1.4,0,2.2,0c0.3,0,0.4,0.1,0.4,0.4
	c0,0.5,0,1.1-0.1,1.6c-0.2,0.8-0.7,1.4-1.5,1.9c-0.7,0.4-1.5,0.6-2.3,0.5c-1.9,0-3.9,0.1-5.8,0c-1.5-0.1-2.6-0.7-3.3-2.3
	c-0.1-0.3-0.2-0.7-0.2-1.1c0-1.6,0-3.2,0-4.9c0-1.3,0.7-2.3,1.8-2.9c0.4-0.2,0.8-0.4,1.3-0.4C38.7,45.5,39.9,45.5,41,45.5
	C41,45.5,41,45.5,41,45.5z"/>
<path class="st3" d="M87.3,48.7c0.9,0,1.7,0,2.6,0c0.6,0,0.8,0.2,0.8,0.8c0,1.1,0,2.3,0,3.4c0,0.5-0.4,1-0.9,1c-1.7,0-3.4,0-5.2,0
	c-0.4,0-0.8-0.4-0.8-0.8c0-1.2,0-2.4,0-3.6c0-0.6,0.2-0.8,0.8-0.8C85.5,48.6,86.4,48.7,87.3,48.7C87.3,48.7,87.3,48.7,87.3,48.7z"/>
<path class="st3" d="M148.8,46.3c-0.1-0.5-0.3-0.9-0.7-1.3c-1-1-2-2-3-3c-0.8-0.8-1.5-1.5-2.3-2.3c-0.3-0.6-0.8-1.2-1.6-1.5
	c-0.3-0.2-0.6-0.4-1.1-0.4c-0.2,0-0.3-0.1-0.4-0.3c-0.1,0-0.2,0-0.3,0c-0.1,0.2-0.2,0.3-0.4,0.3c-0.7,0-1.3,0.4-1.7,0.9
	c-0.4,0.3-0.7,0.8-0.8,1.2c-0.1,0-0.2,0.1-0.3,0.1c-0.1,0-0.1,0-0.2,0c-5.8,0-11.6,0-17.4,0c-0.2,0-0.4-0.1-0.6-0.2
	c-1.3-1.3-2.6-2.6-3.9-3.9c-0.9-0.9-1.9-1.8-2.8-2.8c-0.1-0.1-0.2-0.2-0.4-0.2c-0.1,0-0.3,0-0.4,0c-36.2,0-72.4,0-108.6,0
	c-0.1,0-0.2,0-0.3,0c-0.2,0-0.3,0.1-0.3,0.3c0,0.5,0,1,0,1.5c0,3.9,0,7.9,0,11.8c0,0.3,0.1,0.5,0.3,0.7c1.6,1.6,3.1,3.2,4.7,4.8
	c0.3,0.3,0.6,0.5,1,0.5c0.6,0,1.3,0,1.9,0c0.4,0,0.5,0.1,0.5,0.5c0,2,0,3.9,0,5.9c0,0.7,0,1.4,0,2.2c0,0.3,0.1,0.4,0.3,0.6
	c1.4,1.4,2.9,2.9,4.3,4.3c0.4,0.4,0.7,0.5,1.3,0.5c3.2,0,6.5,0,9.7,0c0.3,0,0.5-0.1,0.4-0.4c0-0.4,0-0.7,0-1.1c0-0.5,0-0.6,0.6-0.6
	c2.5,0,4.9,0,7.4,0c5.3,0,10.6,0,15.9,0c0.3,0,0.6,0.1,0.8,0.3c1,1,2,1.9,2.9,2.9c1,1.1,2.2,2.2,3.2,3.3c0.4,0.4,0.7,0.6,1.3,0.6
	c20,0,39.9,0,59.9,0c0.6,0,0.8-0.1,1-0.7c0.3-0.8,0.8-1.5,1.2-2.2c0.3-0.6,0.6-1.2,0.9-1.7c0.2-0.4,0.4-0.8,0.7-1.2
	c0.2-0.2,0.2-0.5,0.4-0.8c0.2-0.3,0.4-0.5,0.8-0.5c8,0,16,0,24,0c0.5,0,0.5,0,0.5-0.5c0-4.5,0-9,0-13.4c0-0.4,0.1-0.6,0.5-0.9
	c0.7-0.5,1.1-1.1,1.2-2C148.8,47.1,148.8,46.7,148.8,46.3z M136.5,41C136.5,41,136.5,41,136.5,41C136.5,41,136.5,41.1,136.5,41
	C136.5,41,136.5,41,136.5,41z M97.4,42.4c0.7-0.8,1.6-1.2,2.7-1.2c3.2,0,6.4,0,9.6,0c0.3,0,0.4,0.1,0.4,0.4c0,0.8,0,1.6,0,2.4
	c0,0.3-0.1,0.4-0.4,0.4c-3,0-6,0-9,0c-1,0-1.4,0.6-1.4,1.4c0,2.3,0,4.6,0,6.9c0,0.7,0.4,1.3,1.3,1.3c2.1,0,4.2,0,6.3,0
	c0.5,0,0.5,0,0.5-0.5c0-0.5,0-0.9,0-1.4c0-0.3-0.1-0.5-0.5-0.5c-0.7,0-1.4,0-2.1,0c-0.3,0-0.4-0.1-0.4-0.4c0-0.8,0-1.5,0-2.3
	c0-0.3,0.1-0.5,0.5-0.5c1.7,0,3.5,0,5.2,0c0.4,0,0.5,0.1,0.5,0.5c0,2.6,0,5.2,0,7.8c0,0.3-0.2,0.4-0.4,0.4c-1.7,0-3.4,0-5.2,0
	c-1.6,0-3.3,0-4.9,0c-1.2,0-2.2-0.6-3-1.5c-0.6-0.8-0.9-1.8-0.9-2.8c0-2.4,0-4.8,0-7.1C96.2,44.4,96.6,43.3,97.4,42.4z M93.9,53.8
	c0,1.2-0.6,2.1-1.6,2.8c-0.5,0.4-1.1,0.6-1.8,0.5c-1.1,0-2.2,0-3.3,0c-1,0-2.1,0-3.1,0c-1.4,0.1-2.4-0.6-3.1-1.7
	c-0.4-0.5-0.5-1.1-0.5-1.8c0-1.6-0.1-3.2,0-4.9c0.1-1.5,0.8-2.6,2.3-3.3c0.4-0.2,0.9-0.3,1.4-0.3c1.9,0,3.9,0,5.8,0
	c1.5,0,2.7,0.5,3.4,1.9c0.2,0.4,0.4,0.8,0.4,1.3C93.9,50.2,93.9,52,93.9,53.8z M32.3,57.2c-1.9,0-3.7,0-5.6,0c-1.9,0-3.7,0-5.6,0
	c-0.3,0-0.4-0.1-0.4-0.4c0-3.7,0-7.3,0-11c0-0.5,0-0.5,0.5-0.5c3.6,0,7.2,0,10.8,0c0.6,0,0.6,0,0.6,0.6c0,0.7,0,1.5,0,2.2
	c0,0.5-0.1,0.6-0.6,0.6c-2.5,0-5,0-7.6,0c-0.2,0-0.4-0.1-0.4,0.1c-0.1,0.2-0.1,0.5,0,0.7c0,0.1,0.2,0.1,0.4,0.1c1.5,0,2.9,0,4.4,0
	c0.7,0,0.7,0,0.7,0.7c0,0.6,0,1.2,0,1.8c0,0.5,0,0.6-0.5,0.6c-1.5,0-3,0-4.5,0c-0.4,0-0.5,0.1-0.5,0.5c0,0.7,0,0.7,0.7,0.7
	c2.5,0,5,0,7.5,0c0.5,0,0.6,0,0.6,0.6c0,0.8,0,1.5,0,2.3C32.8,57.1,32.7,57.2,32.3,57.2z M47.5,55.1c-0.3,0.7-0.8,1.2-1.4,1.6
	c-0.7,0.4-1.4,0.5-2.1,0.5c-1,0-2,0-3,0c0,0,0,0,0,0c-1.2,0-2.4,0-3.6,0c-1,0-1.7-0.5-2.3-1.2c-0.6-0.7-0.9-1.6-0.9-2.6
	c0-1.4,0-2.9,0-4.3c0-1.1,0.4-2,1.2-2.8c0.6-0.6,1.4-0.9,2.2-1c2-0.3,4.1-0.1,6.1-0.1c1.4,0,2.7,0.5,3.5,1.7c0.4,0.6,0.7,1.2,0.6,2
	c0,1.4,0,1.2-1.2,1.2c-0.6,0-1.1,0-1.7,0c-0.4,0-0.5-0.2-0.6-0.5c-0.1-0.8-0.2-0.8-1-0.8c-1.7,0-3.3,0-5,0c-0.6,0-0.9,0.3-0.9,0.9
	c0,1.1,0,2.2,0,3.3c0,0.6,0.4,1,1,1c1.6,0,3.2,0,4.9,0c0.5,0,1-0.4,1-1c0-0.3,0.1-0.3,0.3-0.3c0.9,0,1.7,0,2.6,0
	c0.3,0,0.4,0.1,0.4,0.5C47.8,53.7,47.8,54.4,47.5,55.1z M19,41.5c-0.6,0-0.6,0-0.6,0.6c0,5.4,0,10.9,0,16.3c0,0.6,0,0.6-0.6,0.6
	c-0.7,0-1.3,0-2,0c-0.5,0-0.5,0-0.5-0.5c0-2.3,0-4.7,0-7c0-3.2,0-6.4,0-9.6c0-0.5,0-0.5-0.5-0.5c-3.2,0-6.3,0-9.5,0
	c-0.5,0-0.5,0-0.5-0.5c0-0.7,0-1.5,0-2.2c0-0.3,0.1-0.4,0.4-0.4c0.1,0,0.2,0,0.3,0c18.5,0,37.1,0,55.6,0c10.8,0,21.6,0,32.4,0
	c0.6,0,0.6,0,0.6,0.6c0,0.7,0,1.4,0,2c0,0.5,0,0.5-0.5,0.5c-12.4,0-24.8,0-37.2,0C43.8,41.5,31.4,41.5,19,41.5z M67.9,56.6
	c0,0.3-0.1,0.5-0.5,0.6c-0.9,0.1-1.7,0-2.6,0c-0.3,0-0.5-0.2-0.5-0.6c0-3.6,0-7.2,0-10.7c0-0.6,0.2-0.8,0.8-0.8c1,0,2.1,0,3.1,0
	c0.4,0,0.7,0.1,0.9,0.4c0.8,1,1.6,2,2.3,2.9c0.5,0.7,1.1,1.4,1.6,2.1c0.5,0.7,1.2,1.4,1.7,2.1c0.1,0.1,0.2,0.2,0.3,0.3
	c0.1-0.2,0-0.3,0-0.4c0-2.2,0-4.3,0-6.5c0-0.1,0-0.3,0-0.4c0-0.4,0.2-0.5,0.6-0.5c0.8,0,1.5,0,2.3,0c0.4,0,0.6,0.2,0.6,0.6
	c0,3.6,0,7.3,0,10.9c0,0.3-0.1,0.5-0.4,0.5c-0.3,0-0.7,0-1,0c-0.8,0-1.7,0-2.5,0c-0.4,0-0.6-0.1-0.9-0.4c-0.6-0.8-1.2-1.5-1.8-2.3
	c-0.8-1-1.5-2-2.3-2.9c-0.5-0.6-0.9-1.2-1.4-1.8c-0.1-0.1-0.2-0.2-0.3-0.3c0,0.2,0,0.4,0,0.5C67.9,52.2,67.9,54.4,67.9,56.6z
	 M53.4,52.6c-0.3,0-0.4,0.1-0.4,0.4c0,1.2,0,2.4,0,3.7c0,0.3-0.1,0.4-0.4,0.4c-0.8,0-1.6,0-2.4,0c-0.3,0-0.4-0.1-0.4-0.4
	c0-1.8,0-3.7,0-5.5c0-1.8,0-3.6,0-5.4c0-0.4,0.1-0.5,0.5-0.5c0.7,0,1.5,0,2.2,0c0.4,0,0.5,0.1,0.5,0.5c0,1.1,0,2.3,0,3.4
	c0,0.4,0.1,0.5,0.5,0.5c1.7,0,3.4,0,5.1,0c0.5,0,0.6-0.1,0.6-0.6c0-1.1,0-2.2,0-3.2c0-0.5,0-0.6,0.6-0.6c0.7,0,1.4,0,2,0
	c0.3,0,0.4,0.1,0.4,0.4c0,3.6,0,7.3,0,10.9c0,0.3-0.1,0.4-0.4,0.4c-0.8,0-1.5,0-2.3,0c-0.5,0-0.5,0-0.5-0.5c0-1.2,0.1-2.3,0.1-3.5
	c0-0.4-0.1-0.5-0.5-0.5C57,52.6,55.2,52.6,53.4,52.6z M124.2,45.8c-0.4,0.8-0.8,1.5-1.2,2.3c-0.4,0.7-0.8,1.5-1.2,2.2
	c-0.4,0.7-0.7,1.4-1.1,2.1c-0.4,0.8-0.9,1.6-1.3,2.4c-0.4,0.7-0.8,1.5-1.2,2.2c-0.3,0.5-0.6,1.1-0.9,1.6c-0.3,0.6-0.6,1.2-1,1.8
	c-0.2,0.4-0.4,0.8-0.7,1.2c-0.2,0.4-0.4,0.8-0.6,1.2c-0.2,0.4-0.5,0.8-0.7,1.3c-0.1,0.3-0.3,0.3-0.6,0.3c-18.1,0-36.2,0-54.3,0
	c-0.5,0-0.6,0-0.6-0.6c0-0.8,0-1.5,0-2.3c0-0.4,0.2-0.6,0.6-0.6c0.1,0,0.2,0,0.3,0c17.2,0,34.3,0,51.5,0c0.6,0,0.9-0.2,1.1-0.8
	c0.2-0.5,0.5-0.9,0.7-1.3c0.3-0.6,0.6-1.1,0.9-1.7c0.3-0.6,0.6-1.1,0.9-1.7c0.2-0.4,0.4-0.7,0.6-1.1c0.1-0.2,0.1-0.5,0-0.7
	c-0.5-0.7-0.8-1.5-1.3-2.3c-0.4-0.7-0.9-1.4-1.2-2.2c-0.3-0.6-0.6-1.1-0.9-1.7c-0.2-0.5-0.5-1-0.8-1.5c-0.2-0.3-0.1-0.4,0.2-0.5
	c0.2-0.1,0.4-0.1,0.6-0.1c0.8,0,1.5,0,2.3,0c0.4,0,0.7,0.2,0.8,0.5c0.4,0.9,0.9,1.7,1.4,2.6c0.4,0.7,0.7,1.4,1.1,2.1
	c0.3-0.6,0.6-1.1,0.9-1.7c0.3-0.6,0.7-1.2,1-1.9c0.2-0.4,0.4-0.7,0.6-1.1c0.2-0.3,0.5-0.4,0.8-0.4c0.9,0,1.9-0.1,2.8,0.1
	C124.3,45.4,124.4,45.5,124.2,45.8z M141.4,57.2c-0.7,0-1.5,0-2.2,0c-0.6,0-0.6,0-0.6-0.6c0-1.8,0-3.5,0-5.3c0-0.1,0-0.3-0.1-0.4
	c-0.4,0.3-0.4,0.8-0.6,1.2c-0.4,0.6-0.7,1.3-1,1.9c-0.3,0.6-0.6,1.3-0.9,1.9c-0.2,0.4-0.4,0.8-0.6,1.2c0,0.1-0.2,0.2-0.3,0.2
	c-0.9,0-1.7,0-2.6,0c-0.2,0-0.3-0.1-0.4-0.3c-0.3-0.6-0.6-1.3-0.9-1.9c-0.2-0.4-0.5-0.9-0.7-1.3c-0.2-0.4-0.4-0.9-0.6-1.3
	c-0.3-0.5-0.5-1-0.8-1.5c0,0.2,0,0.3,0,0.4c0,1.8,0,3.6,0,5.4c0,0.1,0,0.2,0,0.3c-0.1,0.2-0.2,0.3-0.3,0.1l0,0l0,0
	c-0.7,0.1-1.5,0.1-2.2,0c-0.2,0-0.3,0-0.5,0c-0.2,0.1-0.2,0-0.2-0.1c0-0.1,0-0.2,0-0.3c0-3.6,0-7.2,0-10.8c0-0.6,0.1-0.7,0.7-0.7
	c1,0,2,0,3,0c0.7,0,0.9,0.1,1.2,0.8c0.2,0.4,0.4,0.8,0.6,1.2c0.2,0.5,0.5,0.9,0.7,1.4c0.3,0.6,0.7,1.3,1,1.9
	c0.2,0.5,0.4,0.9,0.6,1.4c0,0.1,0,0.2,0.2,0.2c0.1,0,0.2-0.1,0.2-0.2c0.4-0.8,0.8-1.6,1.2-2.5c0.3-0.7,0.7-1.3,0.9-2
	c0-0.1,0.1-0.2,0.3-0.2c0.1-0.4,0.3-0.7,0.5-1.1c0-0.3,0.1-0.5,0.3-0.6c0,0,0,0,0,0c0-0.1,0-0.1,0.1-0.2c0.1-0.2,0.3-0.2,0.5-0.2
	c1.2-0.1,2.5,0.2,3.7,0.1c0.1,0,0.3,0,0.2,0.2c0,1,0,1.9,0,2.9c0.1,0.1,0.1,0.2,0.1,0.4c0,2.6,0,5.2,0,7.9
	C141.8,57.1,141.7,57.2,141.4,57.2z"/>
</svg>
